<?xml version="1.0" encoding="UTF-8"?>
<svg width="100px" height="45px" viewBox="0 0 100 45" version="1.1" xmlns="http://www.w3.org/2000/svg" xmlns:xlink="http://www.w3.org/1999/xlink">
    <!-- Generator: Sketch 50 (54983) - http://www.bohemiancoding.com/sketch -->
    <title>footerLogo</title>
    <desc>Created with Sketch.</desc>
    <defs></defs>
    <g id="footerLogo" stroke="none" stroke-width="1" fill="none" fill-rule="evenodd">
        <path d="M46.3021,2.25 C45.8878864,2.25 45.5521,1.91421356 45.5521,1.5 C45.5521,1.08578644 45.8878864,0.75 46.3021,0.75 L75.9871,0.75 C76.1763061,0.75 76.3585209,0.82151239 76.4972209,0.95020305 C80.0322642,4.23014016 83.7309,7.66207305 87.9916241,11.6157292 C91.0450123,14.4490615 91.5113161,14.8817691 99.4852567,22.2812362 C99.9850069,22.7449825 99.6568704,23.581 98.9751,23.581 L69.2901,23.581 C69.100877,23.581 68.9186473,23.5094749 68.7799433,23.3807638 C64.7076639,19.6018625 62.7445262,17.7801588 60.6351813,15.8228023 C60.3315535,15.5410523 60.313818,15.0665099 60.595568,14.7628821 C60.877318,14.4592543 61.3518604,14.4415189 61.6554882,14.7232688 C63.727234,16.6457355 65.6579389,18.4373426 69.5844706,22.080996 L97.0642696,22.081 C90.4231435,15.9183267 89.8351535,15.3727039 86.9713259,12.7152708 C82.7972261,8.84199598 79.1625966,5.46945064 75.6927532,2.24999999 L46.3021,2.25 Z" id="Stroke-3" fill="#FF6400" fill-rule="nonzero"></path>
        <path d="M45.8292196,0.951338387 C45.9680425,0.822008904 46.1507229,0.7501 46.3404541,0.7501 L75.8387,0.7501 C76.519752,0.7501 76.8482481,1.58462523 76.3499345,2.04886161 C63.2690426,14.235215 50.4683829,26.1599218 31.074915,44.2258797 C30.9360942,44.355198 30.753422,44.4271 30.5637,44.4271 L1.4997,44.4271 C0.818622882,44.4271 0.490139344,43.5925227 0.988503126,43.1283034 C7.28434782,37.2638066 12.2814708,32.5579483 23.4309916,22.0196061 C27.1552204,18.4995267 28.7867284,16.9580656 30.8469955,15.0138517 C36.645893,9.54160159 41.3020075,5.16895652 45.8292196,0.951338387 Z M31.8764846,16.1047927 C29.8166059,18.0486401 28.1852899,19.5899198 24.4613526,23.1097236 C14.1424764,32.8629543 9.09166896,37.6220434 3.40428133,42.9271 L30.2684912,42.9271 C48.8535262,25.6142346 61.3768641,13.9478843 73.9333659,2.2501 L46.6357067,2.2501 C42.1788467,6.40327031 37.5810488,10.7215622 31.8764846,16.1047927 Z" id="Stroke-7" fill="#FF6400" fill-rule="nonzero"></path>
    </g>
</svg>