<svg id="Ebene_1" xmlns="http://www.w3.org/2000/svg" viewBox="0 0 265 76">
  <style>
    .st0{fill:#7d8791}.st1{fill:#46505a}
  </style>
  <path class="st0" d="M75.67 75.58v-.51h.15c.14 0 .27-.01.4-.03a.8.8 0 0 0 .32-.12.6.6 0 0 0 .21-.27c.05-.12.08-.27.08-.46v-5.96c0-.19-.03-.34-.08-.46a.6.6 0 0 0-.21-.26.8.8 0 0 0-.32-.13 2.52 2.52 0 0 0-.4-.03h-.15v-.5h3.56v.5h-.16c-.14 0-.27.02-.39.03a.78.78 0 0 0-.32.13.64.64 0 0 0-.21.26 1.1 1.1 0 0 0-.08.46v5.96c0 .19.02.34.08.46a.65.65 0 0 0 .53.39c.12.02.25.03.39.03h.16v.51h-3.56zM87.95 75.58v-.51h.04c.13 0 .25-.01.36-.03.1-.02.2-.05.27-.1a.55.55 0 0 0 .17-.24c.05-.1.07-.24.08-.4v-6.54l-2.8 7.82h-.67l-2.84-7.8v6.4c0 .2.02.35.06.47.04.12.1.2.18.27.08.06.17.1.28.12.1.02.23.03.37.03h.03v.51h-2.82v-.51h.15c.14 0 .26-.01.39-.03a.88.88 0 0 0 .32-.1c.09-.06.16-.15.21-.26a.99.99 0 0 0 .08-.43v-6.06a.98.98 0 0 0-.08-.44.61.61 0 0 0-.21-.25.76.76 0 0 0-.32-.12 2.51 2.51 0 0 0-.39-.02h-.15v-.52h2.79l2.53 7 2.51-7h2.72v.51h-.16c-.14 0-.27.02-.39.03a.8.8 0 0 0-.32.13.6.6 0 0 0-.21.26c-.05.12-.08.27-.08.46v5.96c0 .19.03.34.08.46s.12.2.21.27c.1.06.2.1.32.12.12.02.25.03.4.03h.15v.51h-3.26zM99.93 75.58v-.51h.04c.13 0 .25-.01.35-.03.1-.02.2-.05.27-.1a.55.55 0 0 0 .18-.24c.04-.1.07-.24.08-.4v-6.54l-2.8 7.82h-.67l-2.84-7.8v6.4c0 .2.02.35.06.47.04.12.1.2.17.27.08.06.18.1.29.12.1.02.23.03.36.03h.04v.51h-2.83v-.51h.16c.13 0 .26-.01.38-.03a.88.88 0 0 0 .32-.1c.1-.06.17-.15.22-.26a.99.99 0 0 0 .08-.43v-6.06a.98.98 0 0 0-.08-.44.61.61 0 0 0-.22-.25.76.76 0 0 0-.32-.12 2.51 2.51 0 0 0-.38-.02h-.16v-.52h2.8l2.53 7 2.51-7h2.71v.51h-.15c-.14 0-.27.02-.4.03a.8.8 0 0 0-.31.13.6.6 0 0 0-.22.26c-.05.12-.07.27-.07.46v5.96c0 .19.02.34.07.46s.13.2.22.27c.09.06.2.1.32.12.12.02.25.03.39.03h.15v.51h-3.25zM112.53 71.2a6.3 6.3 0 0 1-.25 1.84 4.01 4.01 0 0 1-.74 1.42c-.33.4-.73.7-1.2.92-.49.22-1.04.32-1.65.32-.65 0-1.22-.1-1.7-.32a3.18 3.18 0 0 1-1.2-.91c-.32-.4-.56-.87-.72-1.43-.16-.56-.24-1.17-.24-1.85s.08-1.3.24-1.85c.16-.55.4-1.02.72-1.41.32-.4.72-.7 1.2-.9a4.2 4.2 0 0 1 1.7-.33c.63 0 1.17.1 1.65.32.47.22.87.52 1.2.91.33.4.57.87.74 1.42.17.55.25 1.17.25 1.85m-6.34 0c0 .6.04 1.15.13 1.62.1.48.24.88.44 1.21.2.33.45.58.77.76.32.17.7.26 1.16.26.45 0 .84-.1 1.15-.26.32-.18.58-.43.77-.76.2-.33.34-.73.43-1.2.1-.48.13-1.02.13-1.63 0-.6-.04-1.15-.13-1.62a3.55 3.55 0 0 0-.43-1.2 2.04 2.04 0 0 0-1.91-1.01c-.46 0-.84.08-1.16.25-.32.18-.58.42-.78.75-.2.33-.35.73-.44 1.2a8.88 8.88 0 0 0-.13 1.63M120.61 69.03a1.8 1.8 0 0 1-.92 1.66c-.18.1-.38.2-.6.27V71c.29.05.54.13.77.25.23.11.43.27.6.45.16.19.29.4.38.66.1.25.14.54.14.86 0 .79-.26 1.38-.78 1.78-.52.39-1.3.58-2.37.58h-3.64v-.51h.15c.14 0 .27-.01.4-.03a.8.8 0 0 0 .31-.12c.1-.06.17-.15.22-.27.05-.11.08-.27.08-.46v-6a.99.99 0 0 0-.08-.44.63.63 0 0 0-.22-.25.77.77 0 0 0-.32-.12 2.63 2.63 0 0 0-.39-.02h-.15v-.52h3.28c1.06 0 1.85.18 2.37.53.52.35.77.9.77 1.66m-4.03 1.67h.85c.36 0 .66-.03.9-.1.24-.06.43-.16.57-.3.15-.13.25-.3.31-.51.06-.21.1-.47.1-.76 0-.3-.04-.55-.1-.75-.07-.2-.18-.36-.34-.49a1.37 1.37 0 0 0-.58-.26 4.27 4.27 0 0 0-.89-.08h-.81v3.25zm0 4.27h1.2c.34 0 .63-.03.87-.1.24-.06.44-.16.59-.3.15-.14.26-.33.33-.55a3.47 3.47 0 0 0 .01-1.66 1.35 1.35 0 0 0-.3-.6 1.34 1.34 0 0 0-.59-.34 3.03 3.03 0 0 0-.9-.11h-1.2v3.66zM122.68 75.58v-.51h.16c.14 0 .27-.01.39-.03a.8.8 0 0 0 .32-.12c.1-.07.16-.15.22-.27.05-.12.07-.27.07-.46v-5.96c0-.19-.02-.34-.07-.46a.6.6 0 0 0-.22-.26.8.8 0 0 0-.32-.13 2.52 2.52 0 0 0-.4-.03h-.15v-.5h3.57v.5h-.16c-.14 0-.27.02-.4.03a.78.78 0 0 0-.31.13.64.64 0 0 0-.22.26 1.1 1.1 0 0 0-.08.46v5.96c0 .19.03.34.08.46a.65.65 0 0 0 .54.39c.12.02.25.03.39.03h.16v.51h-3.57zM127.67 75.58v-.51h.16c.14 0 .27-.01.39-.03a.8.8 0 0 0 .32-.12.6.6 0 0 0 .21-.27c.06-.12.08-.27.08-.46v-5.96c0-.19-.02-.34-.08-.46a.6.6 0 0 0-.21-.26.8.8 0 0 0-.32-.13 2.52 2.52 0 0 0-.4-.03h-.15v-.5h3.56v.5h-.16c-.13 0-.26.01-.38.03a.76.76 0 0 0-.32.12.61.61 0 0 0-.22.25.98.98 0 0 0-.08.44v6.78h2.41c.19 0 .34-.03.47-.1a.93.93 0 0 0 .32-.25c.09-.1.15-.23.2-.36.04-.13.07-.26.09-.4l.12-.9h.64l-.09 2.62h-6.56zM135.79 75.58v-.51h.16c.14 0 .27-.01.39-.03a.8.8 0 0 0 .32-.12.6.6 0 0 0 .21-.27c.05-.12.08-.27.08-.46v-5.96c0-.19-.02-.34-.08-.46a.6.6 0 0 0-.21-.26.8.8 0 0 0-.32-.13 2.52 2.52 0 0 0-.4-.03h-.15v-.5h3.56v.5h-.16l-.39.03a.78.78 0 0 0-.32.13.64.64 0 0 0-.21.26 1.1 1.1 0 0 0-.08.46v5.96c0 .19.02.34.08.46a.65.65 0 0 0 .53.39c.13.02.26.03.4.03h.15v.51h-3.56zM143.17 74.97h2.37c.2 0 .36-.02.5-.08a.97.97 0 0 0 .55-.54c.06-.12.1-.25.11-.38l.09-.53h.64l-.09 2.14h-6.56v-.51h.15c.14 0 .27-.01.39-.03a.86.86 0 0 0 .32-.1.59.59 0 0 0 .22-.26.99.99 0 0 0 .08-.43v-6.02c0-.19-.03-.34-.08-.46a.6.6 0 0 0-.22-.26.8.8 0 0 0-.32-.13 2.52 2.52 0 0 0-.39-.02h-.15v-.52h6.17l.06 2.14h-.64l-.06-.52a1.63 1.63 0 0 0-.09-.4.92.92 0 0 0-.52-.54 1.23 1.23 0 0 0-.47-.07h-2.06v3.26h2.96v.6h-2.96v3.66zM155.4 75.58l-4.6-7.05v5.66c0 .19.03.34.08.46.06.12.13.2.22.27.09.06.2.1.32.12.12.02.25.03.39.03h.16v.51h-3.08v-.51h.16c.14 0 .27-.01.4-.03a.8.8 0 0 0 .31-.12.6.6 0 0 0 .22-.27c.05-.12.08-.27.08-.46v-6a.95.95 0 0 0-.09-.44.6.6 0 0 0-.21-.25.76.76 0 0 0-.32-.12 2.51 2.51 0 0 0-.39-.03h-.16v-.5h2.25l4.38 6.76V68.2a.98.98 0 0 0-.08-.44.61.61 0 0 0-.22-.25.76.76 0 0 0-.32-.12 2.51 2.51 0 0 0-.38-.03h-.17v-.5h3.08v.5h-.16c-.14 0-.27.02-.39.03a.8.8 0 0 0-.32.13.6.6 0 0 0-.21.26c-.05.12-.08.27-.08.46v7.35h-.87zM168.96 75.58l-1.02-1.07a3.28 3.28 0 0 1-2.65 1.2c-.49 0-.92-.07-1.28-.2-.37-.12-.67-.29-.91-.52-.24-.22-.42-.5-.54-.8a2.95 2.95 0 0 1-.18-1.06c0-.34.05-.65.14-.9.1-.26.22-.49.4-.68.16-.2.37-.37.6-.52.25-.14.52-.28.81-.4a7 7 0 0 1-.4-.53 3.44 3.44 0 0 1-.47-1.02 2.53 2.53 0 0 1-.06-.57c0-.27.04-.51.13-.73.09-.22.22-.4.4-.57.2-.16.44-.28.73-.37.3-.08.64-.13 1.05-.13.39 0 .72.05 1 .14.27.1.5.22.67.38.17.16.3.34.38.56.08.2.11.43.11.66 0 .27-.03.5-.1.7-.09.2-.2.4-.37.57-.17.17-.38.33-.64.48-.26.16-.58.31-.95.47l2.23 2.36a5.63 5.63 0 0 0 .22-1.11 7.12 7.12 0 0 0 .06-1.01v-.48h2.2v.51h-.11c-.14 0-.27.01-.4.03a1.1 1.1 0 0 0-.37.1.94.94 0 0 0-.3.26c-.1.1-.16.26-.22.44l-.24.86c-.1.3-.21.61-.35.92l1.13 1.21a.9.9 0 0 0 .41.25l.3.05h.54v.52h-1.95zm-3.56-.56a2.78 2.78 0 0 0 1.24-.28 2.6 2.6 0 0 0 .86-.71l-2.71-2.9c-.19.1-.36.22-.5.34a1.95 1.95 0 0 0-.63 1 2.71 2.71 0 0 0 .05 1.5 1.56 1.56 0 0 0 .95.94c.22.07.47.11.74.11m1.4-6.55c0-.17-.02-.32-.06-.46a.93.93 0 0 0-.2-.36.92.92 0 0 0-.35-.24 1.4 1.4 0 0 0-.53-.1c-.36 0-.64.11-.84.33-.2.2-.29.49-.29.84a1.64 1.64 0 0 0 .2.84 6.69 6.69 0 0 0 .66.89 4 4 0 0 0 .63-.33c.17-.12.32-.24.44-.38.11-.14.2-.3.25-.46.06-.17.09-.36.09-.57M178.86 75.58L176.2 68c-.04-.13-.09-.23-.14-.32a.65.65 0 0 0-.18-.2.65.65 0 0 0-.23-.1l-.31-.02h-.16v-.52h3.36v.52h-.28c-.25 0-.43.04-.55.14-.12.09-.18.24-.18.44 0 .07 0 .14.02.21l.08.25 1.34 3.97a15.3 15.3 0 0 1 .55 2.01 21.91 21.91 0 0 1 .57-2l1.35-3.9a4.02 4.02 0 0 0 .1-.53c0-.2-.06-.36-.2-.45-.13-.1-.33-.14-.6-.14h-.28v-.52h2.98v.52h-.23c-.12 0-.22 0-.31.03a.51.51 0 0 0-.23.14c-.07.07-.14.17-.2.3a4.7 4.7 0 0 0-.19.48l-2.53 7.27h-.9zM186.8 74.97h2.36c.2 0 .37-.02.5-.08a.97.97 0 0 0 .56-.54c.06-.12.1-.25.11-.38l.09-.53h.64l-.09 2.14h-6.56v-.51h.15c.14 0 .27-.01.39-.03a.86.86 0 0 0 .32-.1.59.59 0 0 0 .21-.26.99.99 0 0 0 .09-.43v-6.02c0-.19-.03-.34-.08-.46a.6.6 0 0 0-.22-.26.8.8 0 0 0-.32-.13 2.53 2.53 0 0 0-.39-.02h-.15v-.52h6.17l.06 2.14H190l-.06-.52a1.63 1.63 0 0 0-.09-.4.98.98 0 0 0-.2-.31.93.93 0 0 0-.32-.22 1.22 1.22 0 0 0-.47-.08h-2.06v3.26h2.96v.6h-2.96v3.66zM198.85 74.09c.2.32.4.57.6.73.2.17.42.25.68.25h.04v.51H200c-.39 0-.7-.01-.95-.04-.24-.03-.45-.08-.62-.16s-.32-.2-.44-.33a4.47 4.47 0 0 1-.4-.57l-1.65-2.75h-1.01v2.52c0 .18.02.32.08.43.05.11.12.2.21.25.1.06.2.1.32.11.13.02.25.03.39.03h.16v.51h-3.56v-.51h.15c.14 0 .27-.01.39-.03a.85.85 0 0 0 .32-.1c.09-.06.16-.15.22-.26.05-.1.08-.25.08-.43v-6.06a1 1 0 0 0-.08-.44.62.62 0 0 0-.22-.25.76.76 0 0 0-.32-.12 2.49 2.49 0 0 0-.39-.03h-.15v-.5h3.3c1.05 0 1.84.19 2.36.58.52.4.78.98.78 1.77a2.15 2.15 0 0 1-1.15 1.94 3.8 3.8 0 0 1-.65.3l1.68 2.65zm-3.92-2.94h.86c.36 0 .65-.04.9-.12.23-.08.42-.2.57-.36.14-.16.24-.36.3-.6a3.45 3.45 0 0 0 0-1.67 1.23 1.23 0 0 0-.92-.87c-.24-.07-.54-.1-.88-.1h-.83v3.72zM207.27 66.92l1.53 5.3a34.1 34.1 0 0 1 .53 2.16 31.2 31.2 0 0 1 .49-2l1.07-3.79a15.61 15.61 0 0 1 .09-.34l.03-.17.02-.13c0-.2-.07-.36-.2-.45-.14-.1-.34-.14-.61-.14h-.28v-.52h2.99v.52h-.24c-.12 0-.22 0-.3.03a.55.55 0 0 0-.25.14 1 1 0 0 0-.2.29c-.06.12-.12.28-.18.49l-2.07 7.27h-1.1l-2-6.86-1.87 6.86h-1.13L201.35 68a1.57 1.57 0 0 0-.13-.32.66.66 0 0 0-.18-.2.65.65 0 0 0-.24-.1 1.5 1.5 0 0 0-.32-.02h-.16v-.52h3.38v.52h-.29c-.24 0-.43.04-.55.14-.12.09-.18.24-.18.44 0 .07.01.14.03.2l.06.26 1.13 3.91a50.28 50.28 0 0 1 .53 2.07 39.97 39.97 0 0 1 .5-2.2l1.46-5.26h.88zM215.27 72.66l-.47 1.29a2.01 2.01 0 0 0-.12.52c0 .2.07.36.2.46.14.09.34.14.62.14h.28v.51h-3v-.51h.24c.12 0 .22-.01.3-.04a.5.5 0 0 0 .24-.15c.06-.07.13-.16.19-.29.06-.12.13-.28.2-.48l2.72-7.27h.96l2.77 7.58c.04.12.1.23.14.31a.65.65 0 0 0 .41.3c.09.03.2.04.31.04h.16v.51h-3.36v-.51h.28c.49 0 .73-.2.73-.59 0-.06 0-.14-.02-.2a4.98 4.98 0 0 0-.08-.25l-.49-1.37h-3.21zm2.23-2.76l-.35-1.02c-.1-.31-.19-.62-.26-.91a5.26 5.26 0 0 1-.22.84 12.47 12.47 0 0 1-.34.98l-.83 2.25h2.76l-.76-2.14zM222.38 75.58v-.51h.16c.14 0 .27-.01.39-.03a.8.8 0 0 0 .32-.12.6.6 0 0 0 .21-.27c.06-.12.08-.27.08-.46v-5.96c0-.19-.02-.34-.08-.46a.6.6 0 0 0-.21-.26.8.8 0 0 0-.32-.13 2.52 2.52 0 0 0-.4-.03h-.15v-.5h3.57v.5h-.17c-.13 0-.26.01-.38.03a.76.76 0 0 0-.32.12.61.61 0 0 0-.22.25.98.98 0 0 0-.08.44v6.78h2.41c.19 0 .34-.03.47-.1a.93.93 0 0 0 .32-.25c.09-.1.15-.23.2-.36.04-.13.07-.26.09-.4l.12-.9h.64l-.08 2.62h-6.57zM233.54 74.19c0 .2.02.35.08.46.05.12.13.2.21.27.1.06.2.1.32.12.13.02.26.03.4.03h.27v.51h-3.8v-.51h.28c.13 0 .26 0 .38-.03a.84.84 0 0 0 .32-.1.6.6 0 0 0 .22-.26c.05-.1.08-.25.08-.43v-6.8h-1.17c-.18 0-.33.03-.45.08a.8.8 0 0 0-.47.54c-.04.12-.07.25-.09.39l-.06.52h-.63l.05-2.14h6.9l.06 2.14h-.64l-.05-.52a2.03 2.03 0 0 0-.09-.39 1 1 0 0 0-.17-.32.78.78 0 0 0-.3-.22 1.16 1.16 0 0 0-.46-.08h-1.2v6.74zM241.6 75.7a5 5 0 0 1-1.3-.15c-.38-.1-.7-.26-.96-.48a2.1 2.1 0 0 1-.61-.86 3.44 3.44 0 0 1-.21-1.27v-4.75a.99.99 0 0 0-.08-.44.62.62 0 0 0-.22-.25.76.76 0 0 0-.32-.12 2.5 2.5 0 0 0-.39-.03h-.15v-.5h3.56v.5h-.16l-.39.03a.77.77 0 0 0-.32.13.65.65 0 0 0-.21.26 1.1 1.1 0 0 0-.08.46v4.78c0 .36.05.66.15.9a1.56 1.56 0 0 0 1.07.95 2.98 2.98 0 0 0 1.74-.03c.26-.1.47-.23.64-.4.17-.17.3-.37.38-.6.08-.24.12-.5.12-.77v-4.87a.99.99 0 0 0-.08-.44.62.62 0 0 0-.22-.25.77.77 0 0 0-.32-.12 2.5 2.5 0 0 0-.39-.03h-.15v-.5h3.07v.5h-.16l-.39.03a.76.76 0 0 0-.32.13.64.64 0 0 0-.21.26 1.1 1.1 0 0 0-.08.46v4.85c0 .41-.07.78-.2 1.1-.13.33-.32.6-.57.83-.25.22-.57.4-.94.51-.38.12-.81.18-1.3.18M253.4 75.58l-4.59-7.05v5.66c0 .19.03.34.09.46.05.12.12.2.21.27.1.06.2.1.32.12.12.02.25.03.39.03h.16v.51h-3.07v-.51h.15c.14 0 .27-.01.4-.03a.8.8 0 0 0 .31-.12.6.6 0 0 0 .22-.27c.05-.12.08-.27.08-.46v-6a.98.98 0 0 0-.08-.44.61.61 0 0 0-.22-.25.76.76 0 0 0-.32-.12 2.49 2.49 0 0 0-.39-.03h-.15v-.5h2.24l4.38 6.76V68.2a.98.98 0 0 0-.08-.44.61.61 0 0 0-.22-.25.76.76 0 0 0-.32-.12 2.49 2.49 0 0 0-.38-.03h-.16v-.5h3.07v.5h-.15c-.14 0-.27.02-.4.03a.8.8 0 0 0-.32.13.6.6 0 0 0-.21.26c-.05.12-.08.27-.08.46v7.35h-.87zM261.19 75.7c-.71 0-1.33-.1-1.86-.32a3.5 3.5 0 0 1-2.1-2.34 6.23 6.23 0 0 1 .02-3.66 3.69 3.69 0 0 1 2.16-2.34 5.9 5.9 0 0 1 3.05-.22c.33.07.6.17.83.29.23.12.4.27.51.44.11.17.17.35.17.54 0 .13-.03.25-.1.36-.05.1-.13.2-.24.27-.1.07-.22.13-.35.17-.14.04-.29.06-.45.06 0-.2-.03-.38-.08-.57a1.36 1.36 0 0 0-.78-.87c-.2-.1-.46-.14-.76-.14-.52 0-.96.08-1.32.25-.37.17-.67.42-.9.74-.23.33-.4.73-.5 1.2-.1.48-.16 1.03-.16 1.64 0 .61.06 1.15.16 1.63.11.47.29.87.53 1.2.24.32.56.56.95.73.38.17.85.25 1.41.25a6.38 6.38 0 0 0 1.28-.15v-1.97a.99.99 0 0 0-.08-.44.6.6 0 0 0-.22-.25.87.87 0 0 0-.32-.12 2.51 2.51 0 0 0-.39-.02h-.05v-.52h3.19v.52h-.05c-.12 0-.23 0-.33.02-.1.03-.2.07-.27.13a.61.61 0 0 0-.18.27c-.04.11-.07.27-.07.46v2.2a5.89 5.89 0 0 1-2.7.56"/>
  <path class="st1" d="M80.55 39.85v3.85l16 .01c.51 0 .95-.18 1.34-.5a1.9 1.9 0 0 0-.09-2.95 2.54 2.54 0 0 0-1.6-.42H80.55m0 7.64v4.42s12.1.03 15.95 0c.56 0 1.14-.1 1.68-.25.8-.22 1.28-.79 1.35-1.64.07-.81-.2-1.48-.87-1.98a3.54 3.54 0 0 0-2.2-.55H80.55m-4.78-11.41h20.47c1.65 0 3.19.37 4.57 1.29a5.2 5.2 0 0 1 2.5 3.67 4.28 4.28 0 0 1-1.65 4.24l-.26.22c.36.25.72.49 1.06.75a4.58 4.58 0 0 1 1.66 2.2c.53 1.65.33 3.2-.7 4.6a6.29 6.29 0 0 1-3.83 2.34c-.63.14-1.28.2-1.92.3h-21.9V36.07zM137.46 55.68V36.1h25.37v3.75h-20.58v4h15.55v3.77h-15.56v4.3h21.35l.02.34v3.1l.02.33h-26.17zM109.51 55.68V36.1h4.76v15.83h19.22v3.76z"/>
  <g>
    <path class="st1" d="M168.25 55.68V36.1H173l.01.31V55.4l-.02.3h-4.74z"/>
  </g>
  <path fill="#fadccd" d="M58.55.3L88.6 28.56h38.91L97.46.3z"/>
  <path fill="#ff6400" d="M58.81.3L.21 55.7h38.6L97.41.3z"/>
</svg>
