<?xml version="1.0" encoding="UTF-8"?>
<svg width="144px" height="46px" viewBox="0 0 144 46" version="1.1" xmlns="http://www.w3.org/2000/svg" xmlns:xlink="http://www.w3.org/1999/xlink">
    <!-- Generator: Sketch 49.3 (51167) - http://www.bohemiancoding.com/sketch -->
    <title>logo-scrolled</title>
    <desc>Created with Sketch.</desc>
    <defs>
        <polygon id="path-1" points="0.5215 0.7205 4.476 0.7205 4.476 16.9855 0.5215 16.9855"></polygon>
    </defs>
    <g id="logo-scrolled" stroke="none" stroke-width="1" fill="none" fill-rule="evenodd">
        <g id="Page-1">
            <g id="Group-5" transform="translate(62.000000, 29.000000)" fill="#46505A">
                <path d="M0.7246,0.7023 C5.2476,0.7033 13.2006,0.7053 17.7236,0.7043 C19.0896,0.7043 20.3706,1.0113 21.5156,1.7733 C22.6146,2.5053 23.4036,3.4673 23.5936,4.8183 C23.7936,6.2413 23.3796,7.4373 22.2266,8.3403 C22.1566,8.3943 22.0886,8.4533 22.0056,8.5223 C22.3056,8.7343 22.6036,8.9283 22.8846,9.1453 C23.5116,9.6293 24.0236,10.2123 24.2696,10.9783 C24.7086,12.3423 24.5436,13.6313 23.6826,14.7953 C22.8896,15.8673 21.7746,16.4403 20.5056,16.7323 C19.9826,16.8523 19.4436,16.9033 18.9116,16.9853 L0.7246,16.9853 L0.7246,0.7023 Z M4.6936,10.1743 L4.6936,13.8463 C4.6936,13.8463 14.7416,13.8673 17.9366,13.8493 C18.4036,13.8473 18.8826,13.7673 19.3336,13.6403 C19.9976,13.4533 20.3966,12.9863 20.4576,12.2793 C20.5156,11.6043 20.2946,11.0433 19.7346,10.6353 C19.1886,10.2363 18.5586,10.1753 17.9136,10.1753 C14.7506,10.1743 4.6936,10.1743 4.6936,10.1743 Z M4.6996,3.8373 L4.6996,7.0403 C4.6996,7.0403 14.7616,7.0473 17.9826,7.0493 C18.4126,7.0493 18.7776,6.8993 19.1036,6.6253 C19.8536,5.9953 19.8146,4.7613 19.0296,4.1823 C18.6306,3.8883 18.1766,3.8363 17.7026,3.8363 C14.6046,3.8383 4.6996,3.8373 4.6996,3.8373 Z" id="Fill-1"></path>
                <path d="M51.9553,16.9855 L51.9553,0.7195 L73.0203,0.7195 L73.0203,3.8305 L55.9313,3.8305 L55.9313,7.1535 L68.8403,7.1535 L68.8403,10.2835 L55.9283,10.2835 L55.9283,13.8545 L73.6513,13.8545 C73.6563,13.9625 73.6643,14.0485 73.6643,14.1355 C73.6653,14.9955 73.6643,15.8565 73.6653,16.7175 C73.6663,16.8065 73.6783,16.8965 73.6843,16.9855 L51.9553,16.9855 Z" id="Fill-3"></path>
            </g>
            <polygon id="Fill-6" fill="#46505A" points="90.7506 29.7217 90.7506 45.9857 110.6596 45.9857 110.6596 42.8617 94.6986 42.8617 94.6986 29.7217"></polygon>
            <g id="Group-9" transform="translate(139.000000, 29.000000)">
                <mask id="mask-2" fill="white">
                    <use xlink:href="#path-1"></use>
                </mask>
                <g id="Clip-8"></g>
                <path d="M0.5215,16.9855 L0.5215,0.7205 L4.4625,0.7205 C4.4675,0.8075 4.4755,0.8945 4.4755,0.9805 C4.4765,6.2345 4.4765,11.4885 4.4755,16.7425 C4.4755,16.8235 4.4635,16.9045 4.4575,16.9855 L0.5215,16.9855 Z" id="Fill-7" fill="#46505A" mask="url(#mask-2)"></path>
            </g>
            <polygon id="Fill-10" fill="#FADCCD" points="48.4344 0.0001 73.3944 23.4661 105.7064 23.4661 80.7464 0.0001"></polygon>
            <polygon id="Fill-11" fill="#FF6400" points="48.654 0.0001 0 46.0001 32.05 46.0001 80.704 0.0001"></polygon>
        </g>
    </g>
</svg>