<?xml version="1.0" encoding="UTF-8"?>
<svg width="36px" height="36px" viewBox="0 0 36 36" version="1.1" xmlns="http://www.w3.org/2000/svg" xmlns:xlink="http://www.w3.org/1999/xlink">
    <!-- Generator: Sketch 50 (54983) - http://www.bohemiancoding.com/sketch -->
    <title>phone</title>
    <desc>Created with Sketch.</desc>
    <defs></defs>
    <g id="phone" stroke="none" stroke-width="1" fill="none" fill-rule="evenodd">
        <path d="M34.3863,31.4913 C35.4453,30.2653 35.5373,29.0863 35.4913,28.3313 C35.3523,26.9163 34.4783,26.0203 34.1103,25.6903 L29.8303,21.5403 C28.8173,20.5023 27.8053,20.3143 27.1143,20.3143 C25.8263,20.3143 24.9513,21.1163 24.6753,21.3993 L22.9263,23.0963 C22.7883,23.2383 22.5123,23.2853 22.3283,23.1913 C20.3953,22.1533 18.6003,20.8803 16.9433,19.1823 L16.7133,19.0403 C15.0103,17.3903 13.6763,15.6453 12.5713,13.7113 C12.4793,13.5233 12.4793,13.2403 12.6173,13.0983 L14.2283,11.2123 C14.4583,10.9293 15.1943,9.9863 15.1483,8.6653 C15.1483,7.9583 14.8723,6.9203 13.8603,5.9773 L9.5803,1.7803 C9.2573,1.4493 8.3373,0.5533 6.9563,0.5063 C6.2203,0.4593 5.0693,0.6483 3.9653,1.7323 C3.7813,1.9213 2.0323,3.6193 1.3423,5.6943 C0.8353,6.9203 -2.4777,16.5413 8.7973,27.5293 L9.0273,27.7653 C15.3793,34.0383 21.0853,35.5003 25.0893,35.5003 C28.1273,35.5003 30.1523,34.6513 30.6583,34.4153 C32.6833,33.5193 34.2483,31.6803 34.3863,31.4913 Z M29.1393,30.8783 C28.8173,31.0193 21.3623,34.5563 11.6053,24.9363 L11.3753,24.7003 C1.5263,15.1733 4.6553,7.3923 4.7933,7.0623 L4.8853,6.8733 C5.2073,5.8833 6.1743,4.7983 6.5423,4.4683 C6.7263,4.2793 6.8183,4.2323 6.8183,4.2323 C6.8643,4.2323 6.9103,4.2793 6.9103,4.3263 L11.4213,8.7123 L11.4673,8.7593 L9.9023,10.5523 C8.7053,11.9193 8.5213,13.9473 9.4423,15.5513 C10.7303,17.8143 12.2953,19.8423 14.2283,21.7293 L14.4123,21.9173 C16.3453,23.8513 18.4163,25.3603 20.6713,26.5393 C22.2823,27.3883 24.2153,27.1053 25.5043,25.8323 L27.2063,24.1343 C27.2523,24.1343 27.2523,24.1813 27.2983,24.2283 L31.6253,28.4733 L31.7633,28.6143 L31.8093,28.7083 C31.8093,28.7083 31.7633,28.8033 31.5793,29.0863 C31.2563,29.4633 30.2443,30.5013 29.3233,30.8783 L29.1393,30.8783 Z" id="Fill-1" fill="#FF6400"></path>
        <path d="M34.3863,31.4913 C35.4453,30.2653 35.5373,29.0863 35.4913,28.3313 C35.3523,26.9163 34.4783,26.0203 34.1103,25.6903 L29.8303,21.5403 C28.8173,20.5023 27.8053,20.3143 27.1143,20.3143 C25.8263,20.3143 24.9513,21.1163 24.6753,21.3993 L22.9263,23.0963 C22.7883,23.2383 22.5123,23.2853 22.3283,23.1913 C20.3953,22.1533 18.6003,20.8803 16.9433,19.1823 L16.7133,19.0403 C15.0103,17.3903 13.6763,15.6453 12.5713,13.7113 C12.4793,13.5233 12.4793,13.2403 12.6173,13.0983 L14.2283,11.2123 C14.4583,10.9293 15.1943,9.9863 15.1483,8.6653 C15.1483,7.9583 14.8723,6.9203 13.8603,5.9773 L9.5803,1.7803 C9.2573,1.4493 8.3373,0.5533 6.9563,0.5063 C6.2203,0.4593 5.0693,0.6483 3.9653,1.7323 C3.7813,1.9213 2.0323,3.6193 1.3423,5.6943 C0.8353,6.9203 -2.4777,16.5413 8.7973,27.5293 L9.0273,27.7653 C15.3793,34.0383 21.0853,35.5003 25.0893,35.5003 C28.1273,35.5003 30.1523,34.6513 30.6583,34.4153 C32.6833,33.5193 34.2483,31.6803 34.3863,31.4913 Z M29.1393,30.8783 C28.8173,31.0193 21.3623,34.5563 11.6053,24.9363 L11.3753,24.7003 C1.5263,15.1733 4.6553,7.3923 4.7933,7.0623 L4.8853,6.8733 C5.2073,5.8833 6.1743,4.7983 6.5423,4.4683 C6.7263,4.2793 6.8183,4.2323 6.8183,4.2323 C6.8643,4.2323 6.9103,4.2793 6.9103,4.3263 L11.4213,8.7123 L11.4673,8.7593 L9.9023,10.5523 C8.7053,11.9193 8.5213,13.9473 9.4423,15.5513 C10.7303,17.8143 12.2953,19.8423 14.2283,21.7293 L14.4123,21.9173 C16.3453,23.8513 18.4163,25.3603 20.6713,26.5393 C22.2823,27.3883 24.2153,27.1053 25.5043,25.8323 L27.2063,24.1343 C27.2523,24.1343 27.2523,24.1813 27.2983,24.2283 L31.6253,28.4733 L31.7633,28.6143 L31.8093,28.7083 C31.8093,28.7083 31.7633,28.8033 31.5793,29.0863 C31.2563,29.4633 30.2443,30.5013 29.3233,30.8783 L29.1393,30.8783 Z" id="Stroke-3" stroke="#FEFEFE"></path>
    </g>
</svg>