<?xml version="1.0" encoding="utf-8"?>
<!-- Generator: Adobe Illustrator 22.0.1, SVG Export Plug-In . SVG Version: 6.00 Build 0)  -->
<svg version="1.1" id="Ebene_1" xmlns="http://www.w3.org/2000/svg" xmlns:xlink="http://www.w3.org/1999/xlink" x="0px" y="0px"
	 width="45px" height="43px" viewBox="0 0 45 43" style="enable-background:new 0 0 45 43;" xml:space="preserve">
<style type="text/css">
	.st0{fill:#46505A;}
</style>
<path class="st0" d="M34.3,18.7c0.3-0.4,0.3-1,0.1-1.5c-0.3-0.5-0.7-0.7-1.3-0.7h-7.9l1.4-14.2c0.1-0.7-0.3-1.3-1-1.5
	c-0.2-0.1-0.3-0.1-0.5-0.1c-0.5,0-0.9,0.2-1.2,0.7l-14,22.1c-0.3,0.4-0.3,1-0.1,1.5s0.7,0.7,1.3,0.7H19l-1.4,14.2
	c-0.1,0.7,0.3,1.3,1,1.5c0.6,0.2,1.3,0,1.7-0.6L34.3,18.7z M13.7,22.8l9.6-14.9l-1,9.9c0,0.4,0.1,0.8,0.4,1.1
	c0.3,0.3,0.7,0.5,1.1,0.5h6.8L21,34.3l1-9.9c0-0.4-0.1-0.8-0.4-1.1c-0.3-0.3-0.7-0.5-1.1-0.5H13.7z"/>
</svg>
