<?xml version="1.0" encoding="utf-8"?>
<!-- Generator: Adobe Illustrator 22.0.1, SVG Export Plug-In . SVG Version: 6.00 Build 0)  -->
<svg version="1.1" id="Ebene_1" xmlns="http://www.w3.org/2000/svg" xmlns:xlink="http://www.w3.org/1999/xlink" x="0px" y="0px"
	 width="49.3px" height="44.5px" viewBox="0 0 49.3 44.5" style="enable-background:new 0 0 49.3 44.5;" xml:space="preserve">
<style type="text/css">
	.st0{fill:none;stroke:#46505A;stroke-width:2.35;stroke-miterlimit:10;}
	.st1{fill:none;stroke:#46505A;stroke-width:2.35;stroke-linecap:round;stroke-linejoin:round;}
	.st2{fill:none;stroke:#46505A;stroke-width:2.35;stroke-linecap:round;stroke-miterlimit:10;}
</style>
<g>
	<path class="st0" d="M30.1,43H10c-0.2,0-0.4-0.1-0.6-0.2C8.1,41.3,1.9,34,1.7,18.4c0-0.4,0.4-0.8,0.8-0.8h35.1
		c0.4,0,0.8,0.4,0.8,0.8c-0.2,15.6-6.3,22.9-7.7,24.3C30.6,42.9,30.4,43,30.1,43z"/>
	<path class="st1" d="M38.4,23.9c0.9-0.7,4.2-2.9,7.1-0.6l0.4,0.4c2.3,2.3,2.4,6.1,0.1,8.4c-1.9,2-5.4,4.2-11.4,6.5
		c-0.1,0-0.3,0-0.3-0.1c0,0-0.1-0.1-0.1-0.1"/>
	<path class="st2" d="M14.3,12.4c0,0,1.6-2.8,0-5.1c-1.6-2.3,0-5.3,0-5.3 M20.1,12.4c0,0,1.6-2.8,0-5.1c-1.6-2.3,0-5.3,0-5.3
		 M25.9,12.4c0,0,1.6-2.8,0-5.1c-1.6-2.3,0-5.3,0-5.3"/>
</g>
</svg>
