<?xml version="1.0" encoding="utf-8"?>
<!-- Generator: Adobe Illustrator 22.0.1, SVG Export Plug-In . SVG Version: 6.00 Build 0)  -->
<svg version="1.1" id="Ebene_1" xmlns="http://www.w3.org/2000/svg" xmlns:xlink="http://www.w3.org/1999/xlink" x="0px" y="0px"
	 width="45px" height="44.4px" viewBox="0 0 45 44.4" style="enable-background:new 0 0 45 44.4;" xml:space="preserve">
<style type="text/css">
	.st0{fill:#46505A;}
	.st1{fill:#FFFFFF;}
</style>
<g>
	<path class="st0" d="M39.3,44.1c-1.4,0-2.7-0.5-3.6-1.5L13,19.9c-2-2-2-5.3,0-7.3l0,0c2-2,5.3-2,7.3,0L43,35.3c2,2,2,5.3,0,7.3
		C42,43.6,40.7,44.1,39.3,44.1z M15.1,14.7c-0.8,0.8-0.8,2.2,0,3.1l22.7,22.7c0.8,0.8,2.2,0.8,3.1,0c0.8-0.8,0.8-2.2,0-3.1
		L18.1,14.7C17.3,13.9,15.9,13.9,15.1,14.7z"/>
	<path class="st1" d="M6.3,5.9c-5.7,5.7-5.7,15,0,20.7s15,5.7,20.7,0s5.7-15,0-20.7S12,0.2,6.3,5.9"/>
	<path class="st0" d="M16.6,32.4c-4.3,0-8.4-1.7-11.4-4.7c-6.3-6.3-6.3-16.6,0-22.9l0,0c3.1-3,7.1-4.7,11.4-4.7S25,1.8,28,4.8
		c3.1,3.1,4.7,7.1,4.7,11.4S31,24.6,28,27.6C25,30.7,20.9,32.4,16.6,32.4z M7.3,7c-5.1,5.1-5.1,13.5,0,18.6c2.5,2.5,5.8,3.9,9.3,3.9
		s6.8-1.4,9.3-3.9s3.9-5.8,3.9-9.3S28.4,9.5,25.9,7s-5.8-3.9-9.3-3.9S9.8,4.5,7.3,7L7.3,7z"/>
	<g>
		<path class="st0" d="M16.5,25.7c-0.8,0-1.5-0.7-1.5-1.5V8.7c0-0.8,0.7-1.5,1.5-1.5S18,7.9,18,8.7v15.5C18,25,17.4,25.7,16.5,25.7z
			 M23,22.5c-0.8,0-1.5-0.7-1.5-1.5v-7.1c0-0.8,0.7-1.5,1.5-1.5s1.5,0.7,1.5,1.5V21C24.5,21.8,23.9,22.5,23,22.5z M10,22.5
			c-0.8,0-1.5-0.7-1.5-1.5v-7.1c0-0.8,0.7-1.5,1.5-1.5s1.5,0.7,1.5,1.5V21C11.5,21.8,10.9,22.5,10,22.5z"/>
	</g>
</g>
</svg>
