<?xml version="1.0" encoding="utf-8"?>
<!-- Generator: Adobe Illustrator 22.0.1, SVG Export Plug-In . SVG Version: 6.00 Build 0)  -->
<svg version="1.1" id="Ebene_1" xmlns="http://www.w3.org/2000/svg" xmlns:xlink="http://www.w3.org/1999/xlink" x="0px" y="0px"
	 width="45px" height="43.6px" viewBox="0 0 45 43.6" style="enable-background:new 0 0 45 43.6;" xml:space="preserve">
<style type="text/css">
	.st0{clip-path:url(#SVGID_2_);fill:#46505A;}
	.st1{clip-path:url(#SVGID_4_);fill:#46505A;}
	.st2{clip-path:url(#SVGID_6_);fill:#46505A;}
	.st3{clip-path:url(#SVGID_8_);fill:#46505A;}
</style>
<g>
	<g>
		<g>
			<defs>
				<rect id="SVGID_1_" x="3.4" y="0.1" width="37.5" height="43.4"/>
			</defs>
			<clipPath id="SVGID_2_">
				<use xlink:href="#SVGID_1_"  style="overflow:visible;"/>
			</clipPath>
			<path class="st0" d="M10.8,41.1H5.9V20h4.9V41.1z M12,17.6H4.6c-0.7,0-1.2,0.6-1.2,1.2v23.5c0,0.7,0.6,1.2,1.2,1.2H12
				c0.7,0,1.2-0.6,1.2-1.2V18.7C13.3,18.2,12.7,17.6,12,17.6"/>
		</g>
	</g>
	<g>
		<g>
			<defs>
				<rect id="SVGID_3_" x="3.4" y="0.1" width="37.5" height="43.4"/>
			</defs>
			<clipPath id="SVGID_4_">
				<use xlink:href="#SVGID_3_"  style="overflow:visible;"/>
			</clipPath>
			<path class="st1" d="M24.9,41.1H20v-26h4.9V41.1z M26.2,12.6h-7.4c-0.7,0-1.2,0.6-1.2,1.2v28.5c0,0.7,0.6,1.2,1.2,1.2h7.4
				c0.7,0,1.2-0.6,1.2-1.2V13.9C27.3,13.2,26.9,12.6,26.2,12.6"/>
		</g>
	</g>
	<g>
		<g>
			<defs>
				<rect id="SVGID_5_" x="3.4" y="0.1" width="37.5" height="43.4"/>
			</defs>
			<clipPath id="SVGID_6_">
				<use xlink:href="#SVGID_5_"  style="overflow:visible;"/>
			</clipPath>
			<path class="st2" d="M38.5,41.1h-4.9V24.4h4.9V41.1z M39.7,21.9h-7.4c-0.7,0-1.2,0.6-1.2,1.2v19.2c0,0.7,0.6,1.2,1.2,1.2h7.4
				c0.7,0,1.2-0.6,1.2-1.2V23.1C40.8,22.4,40.3,21.9,39.7,21.9"/>
		</g>
	</g>
	<g>
		<g>
			<defs>
				<rect id="SVGID_7_" x="3.4" y="0.1" width="37.5" height="43.4"/>
			</defs>
			<clipPath id="SVGID_8_">
				<use xlink:href="#SVGID_7_"  style="overflow:visible;"/>
			</clipPath>
			<path class="st3" d="M39.9,13c0,2.1-1.7,3.6-3.6,3.6c-2.1,0-3.6-1.7-3.6-3.6c0-0.2,0-0.4,0.1-0.7l-8-5.4c-0.6,0.4-1.2,0.6-2,0.6
				c-1.1,0-2.1-0.5-2.8-1.3l-7.7,2.7c-0.1,2-1.7,3.5-3.6,3.5c-2.2,0-3.8-1.7-3.8-3.6c0-2.1,1.7-3.6,3.6-3.6c1.2,0,2.3,0.6,3,1.5
				L19,4c0-0.1,0-0.1,0-0.1c0-2.1,1.7-3.6,3.6-3.6c2.1,0,3.6,1.7,3.6,3.6c0,0.4-0.1,0.8-0.2,1.2l7.6,5.1l0,0h0.1
				c0.6-0.5,1.5-0.9,2.4-0.9C38.2,9.4,39.9,11.1,39.9,13"/>
		</g>
	</g>
</g>
</svg>
