<?xml version="1.0" encoding="utf-8"?>
<!-- Generator: Adobe Illustrator 22.0.1, SVG Export Plug-In . SVG Version: 6.00 Build 0)  -->
<svg version="1.1" id="Ebene_1" xmlns="http://www.w3.org/2000/svg" xmlns:xlink="http://www.w3.org/1999/xlink" x="0px" y="0px"
	 width="46.8px" height="43.6px" viewBox="0 0 46.8 43.6" style="enable-background:new 0 0 46.8 43.6;" xml:space="preserve">
<style type="text/css">
	.st0{fill:#46505A;}
</style>
<path class="st0" d="M45.7,28.5L39.2,22c1.2-0.3,2.4-1,3.5-2.1c0.2-0.2,0.3-0.5,0.3-0.8c0-0.3-0.1-0.6-0.3-0.8l-5.8-6.1l-5-5.2
	c-5.7-5.8-10.3-5.8-13.7-5.8c-1.6,0-2.8,0-3.8-0.7l-0.1,0c-0.6-0.2-1.1-0.1-1.4,0.3L12.6,1l-0.1,0.1c-0.3,0.5-0.1,1.4,0.4,1.7
	c1.6,0.9,3.3,0.9,5.1,0.9c2.9,0,6.9,0,12,5.1l5.1,5.1l4.7,5.3c-1.4,1-3.4,1.4-7-2.2l-5.2-5.2c-0.4-0.4-1.3-0.4-1.7,0
	c-1.3,1.3-3.8,0.5-5.2-0.1c-0.3-0.1-0.6-0.2-0.9-0.1c-0.3,0.1-0.6,0.3-0.7,0.6c-0.3,0.6,0,1.3,0.6,1.6c2.7,1.2,5.2,1.4,7,0.3
	l4.5,4.5c1.1,1.1,2.4,2.1,3.5,2.7l8.9,8.9c0.7,0.7,0.7,1.6,0,2.3c-0.3,0.3-0.7,0.5-1.1,0.5c0,0,0,0,0,0c-0.4,0-0.8-0.2-1.1-0.5
	L27.9,19.1c-0.4-0.4-1.3-0.4-1.7,0c-0.2,0.2-0.3,0.5-0.3,0.8c0,0.3,0.1,0.6,0.3,0.8l14.9,14.9c0.3,0.3,0.5,0.7,0.5,1.1
	c0,0.4-0.2,0.8-0.5,1.1c-0.3,0.3-0.7,0.5-1.1,0.5c0,0,0,0,0,0c-0.4,0-0.8-0.2-1.1-0.5L23.9,23c-0.2-0.2-0.5-0.3-0.8-0.3c0,0,0,0,0,0
	c-0.3,0-0.6,0.1-0.8,0.3c-0.4,0.4-0.4,1.3,0,1.7l12.5,12.4c0.3,0.3,0.5,0.7,0.5,1.1c0,0.4-0.2,0.8-0.5,1.1c-0.3,0.3-0.7,0.5-1.1,0.5
	c0,0,0,0,0,0c-0.4,0-0.8-0.2-1.1-0.5L19.1,26.1c-0.4-0.4-1.3-0.4-1.7,0c-0.2,0.2-0.3,0.5-0.3,0.8c0,0.3,0.1,0.6,0.3,0.8l8,8
	c0.3,0.3,0.5,0.7,0.5,1.1c0,0.4-0.2,0.8-0.5,1.1c-0.7,0.7-1.6,0.7-2.3,0L11.9,26.9c-5.2-5.1-6.4-8.1-7.2-10c-0.4-1.2-1-2.6-2.4-3.9
	c-0.2-0.2-0.5-0.3-0.8-0.3c0,0,0,0,0,0c-0.3,0-0.6,0.1-0.8,0.3c-0.2,0.2-0.3,0.5-0.3,0.8c0,0.3,0.1,0.6,0.3,0.8
	c0.9,0.9,1.3,1.7,1.8,2.8L2.7,18c1,2.3,2.4,5.5,7.6,10.6l11.4,11.3c0.7,0.7,1.8,1.2,2.8,1.2c0,0,0,0,0,0c1.1,0,2.1-0.4,2.8-1.2
	c0.4-0.4,0.7-0.8,0.9-1.4l2.7,2.7c0.7,0.7,1.8,1.2,2.8,1.2c1.1,0,2.1-0.4,2.8-1.2c0.4-0.4,0.7-0.8,0.9-1.4c1.6,1.3,4,1.3,5.5-0.2
	c1.1-1.2,1.5-2.8,0.9-4.4c0.7-0.2,1.3-0.5,1.8-1C47.2,32.7,47.2,30.1,45.7,28.5z"/>
</svg>
