<?xml version="1.0" encoding="utf-8"?>
<!-- Generator: Adobe Illustrator 22.0.1, SVG Export Plug-In . SVG Version: 6.00 Build 0)  -->
<svg version="1.1" id="Ebene_1" xmlns="http://www.w3.org/2000/svg" xmlns:xlink="http://www.w3.org/1999/xlink" x="0px" y="0px"
	 width="68.8px" height="118.5px" viewBox="0 0 68.8 118.5" style="enable-background:new 0 0 68.8 118.5;" xml:space="preserve">
<style type="text/css">
	.st0{fill:#FFFFFF;}
</style>
<g>
	<g>
		<path class="st0" d="M40.8,9.8c0.4,0.3,20.7,19.2,20.9,19.4v29.1c-0.9-0.8-21.3-19.5-21.3-19.5S8.1,67.5,7.2,68.3V39.7
			C7.4,39.5,40.5,10.1,40.8,9.8 M1.2,36.4v45.9c0,0,39-34.7,39.4-35C40.9,47.5,68,72.4,68,72.4V25.7L41.1,0.9L1.2,36.4z"/>
		<path class="st0" d="M10.2,111.5h2.5c1.7,0,3.6-0.7,3.6-3c0-2.5-1.8-3-3.6-3h-2.6V111.5z M10.2,99.6h2.4c1.7,0,3.5-0.6,3.5-2.8
			c0-2.2-1.6-2.8-3.3-2.8h-2.6V99.6z M1.2,88.5h15.7c4.3,0,8.6,1.6,8.6,7.2c0,4-1.8,6.1-5.1,7.1v0.1c3.5,0.5,5.6,3.7,5.6,6.6
			c0,7.3-5.1,8.1-10.2,8.1H1.2V88.5z"/>
	</g>
	<polygon class="st0" points="46.3,88.5 41.6,105.9 41.5,105.9 36.9,88.5 26.7,88.5 35.5,117.5 46.9,117.5 56.1,88.5 	"/>
	<rect x="58.5" y="88.5" class="st0" width="9.6" height="29"/>
</g>
</svg>
