<?xml version="1.0" encoding="utf-8"?>
<!-- Generator: Adobe Illustrator 22.0.1, SVG Export Plug-In . SVG Version: 6.00 Build 0)  -->
<svg version="1.1" id="Ebene_1" xmlns="http://www.w3.org/2000/svg" xmlns:xlink="http://www.w3.org/1999/xlink" x="0px" y="0px"
	 width="181.5px" height="75.2px" viewBox="0 0 181.5 75.2" style="enable-background:new 0 0 181.5 75.2;" xml:space="preserve">
<style type="text/css">
	.st0{fill:#FFFFFF;}
	.st1{fill:none;stroke:#FFFFFF;stroke-width:0.75;stroke-miterlimit:10;}
</style>
<g>
	<g>
		<path class="st0" d="M30.5,18.3v-1.2c0-0.6-0.5-1.1-1.1-1.1H2.1c-0.6,0-1.1,0.5-1.1,1.1v27c0,0.6,0.5,1.1,1.1,1.1h13.7V32.9
			c0-0.6,0.5-1.5,1.1-2.2l12.5-12.4c0.3-0.3,0.6-0.5,0.8-0.5C30.4,17.9,30.5,18,30.5,18.3 M34.2,16h13.7V1.2c0-0.3-0.1-0.4-0.3-0.4
			c-0.2,0-0.5,0.1-0.8,0.4L34.2,13.6c-0.6,0.6-1.1,1.6-1.1,2.2v1.3v0C33,16.5,33.6,16,34.2,16"/>
		<path class="st1" d="M29.3,47.5c0.6-0.6,1.1-1.6,1.1-2.2v-1.2V18.3c0-0.3-0.1-0.4-0.3-0.4c-0.2,0-0.5,0.1-0.8,0.4L16.8,30.7
			c-0.6,0.6-1.1,1.6-1.1,2.2v12.3v14.6c0,0.3,0.1,0.5,0.3,0.5c0.2,0,0.5-0.1,0.8-0.5L29.3,47.5z M62.6,44.1v-27
			c0-0.6-0.5-1.1-1.1-1.1H47.8H34.2c-0.6,0-1.1,0.5-1.1,1.1v25.6v1.3c0,0.6,0.5,1.1,1.1,1.1h27.3C62,45.2,62.6,44.7,62.6,44.1z"/>
		<path class="st0" d="M166.9,71.8c0.4,0,0.8,0.1,1.1,0.3c0.3,0.2,0.5,0.4,0.5,0.7c0,0.1-0.1,0.3-0.1,0.4c-0.1,0.1-0.2,0.3-0.3,0.4
			c-0.1,0.1-0.3,0.2-0.5,0.2c-0.2,0.1-0.4,0.1-0.6,0.1c-0.2,0-0.4,0-0.6-0.1c-0.2-0.1-0.3-0.1-0.5-0.2c-0.1-0.1-0.2-0.2-0.3-0.4
			c-0.1-0.1-0.1-0.3-0.1-0.4c0-0.1,0.1-0.3,0.1-0.4c0.1-0.1,0.2-0.2,0.3-0.3c0.1-0.1,0.3-0.1,0.5-0.2
			C166.5,71.8,166.7,71.8,166.9,71.8z M86,69v1.3l-0.2,0.4c-0.1,0.1-0.2,0.2-0.3,0.3c-0.1,0.1-0.3,0.2-0.5,0.3
			c-0.2,0.1-0.3,0.1-0.5,0.1c-0.3,0-0.5-0.1-0.7-0.3c-0.2-0.2-0.3-0.5-0.3-0.8c0-0.2,0-0.3,0.1-0.4c0.1-0.1,0.2-0.3,0.4-0.4
			c0.1-0.1,0.3-0.2,0.5-0.3c0.2-0.1,0.3-0.1,0.5-0.2L86,69L86,69z M78.1,68.3h1.2c0.5,0,0.8,0.1,1.1,0.4c0.3,0.2,0.5,0.6,0.5,1
			c0,0.2-0.1,0.4-0.1,0.6c-0.1,0.2-0.2,0.4-0.4,0.5c-0.1,0.1-0.3,0.2-0.5,0.3c-0.2,0.1-0.4,0.1-0.6,0.1h-1.2V68.3z M105.5,68.9h2.4
			v-0.7h-2.4V68.9z M152.4,66.8c0.2,0,0.5,0.1,0.6,0.2c0.2,0.1,0.3,0.3,0.5,0.5c0.1,0.2,0.2,0.4,0.2,0.7c0.1,0.3,0.1,0.5,0.1,0.8
			c0,0.3,0,0.5-0.1,0.8c-0.1,0.3-0.2,0.6-0.4,0.8c-0.1,0.2-0.3,0.4-0.5,0.6c-0.2,0.2-0.4,0.2-0.7,0.2l-0.3,0h-0.3l-0.3,0l-0.2,0
			v-3.4l0.1-0.3l0.3-0.4c0.1-0.1,0.3-0.2,0.4-0.3C152,66.8,152.2,66.8,152.4,66.8L152.4,66.8z M90.6,66.8c0.2,0,0.3,0,0.5,0.1
			c0.1,0.1,0.3,0.2,0.4,0.4c0.1,0.1,0.2,0.2,0.3,0.4l0.1,0.3v2.4l-0.1,0.3l-0.3,0.4c-0.1,0.1-0.3,0.2-0.4,0.3
			c-0.2,0.1-0.3,0.1-0.5,0.1c-0.3,0-0.5-0.1-0.7-0.2c-0.2-0.2-0.3-0.3-0.4-0.6c-0.1-0.2-0.2-0.5-0.3-0.8c0-0.3,0-0.6,0-0.8
			c0-0.3,0-0.6,0.1-0.9c0.1-0.3,0.2-0.5,0.3-0.7c0.1-0.2,0.3-0.3,0.5-0.4C90.1,66.9,90.3,66.8,90.6,66.8z M166.9,66.7
			c0.4,0,0.7,0.1,0.9,0.4c0.2,0.2,0.3,0.6,0.3,1c0,0.2-0.1,0.3-0.1,0.5c0,0.2-0.1,0.4-0.2,0.5c-0.1,0.1-0.2,0.3-0.4,0.4
			c-0.1,0.1-0.3,0.1-0.5,0.1c-0.2,0-0.4-0.1-0.5-0.1c-0.1-0.1-0.2-0.2-0.3-0.3c-0.1-0.1-0.2-0.3-0.2-0.4c0-0.2,0-0.4,0-0.6
			c0-0.2,0-0.3,0.1-0.5c0.1-0.2,0.1-0.3,0.2-0.4c0.1-0.1,0.2-0.2,0.4-0.3C166.6,66.8,166.7,66.7,166.9,66.7z M157.9,66.7
			c0.2,0,0.4,0.1,0.6,0.2c0.2,0.1,0.3,0.3,0.4,0.5c0.1,0.2,0.2,0.4,0.2,0.6c0,0.2,0.1,0.4,0.1,0.6h-2.6c0-0.2,0-0.4,0.1-0.6
			c0.1-0.2,0.1-0.4,0.2-0.6c0.1-0.2,0.2-0.4,0.4-0.5C157.4,66.8,157.6,66.7,157.9,66.7z M137.8,66.7c0.2,0,0.4,0.1,0.6,0.2
			c0.2,0.1,0.3,0.3,0.4,0.5c0.1,0.2,0.2,0.4,0.2,0.6c0,0.2,0.1,0.4,0.1,0.6h-2.6c0-0.2,0-0.4,0.1-0.6c0.1-0.2,0.1-0.4,0.2-0.6
			c0.1-0.2,0.2-0.4,0.4-0.5C137.4,66.8,137.6,66.7,137.8,66.7z M96.1,66.7c0.2,0,0.4,0.1,0.6,0.2c0.2,0.1,0.3,0.3,0.4,0.5
			c0.1,0.2,0.2,0.4,0.2,0.6c0,0.2,0,0.4,0,0.6h-2.6c0-0.2,0-0.4,0.1-0.6c0.1-0.2,0.1-0.4,0.2-0.6c0.1-0.2,0.2-0.4,0.4-0.5
			C95.7,66.8,95.9,66.7,96.1,66.7z M118.6,66.3v3.8c0,0.2,0,0.5,0.1,0.7c0.1,0.2,0.2,0.4,0.3,0.6c0.1,0.2,0.3,0.3,0.5,0.4
			c0.2,0.1,0.5,0.2,0.8,0.2c0.2,0,0.4-0.1,0.5-0.1c0.2-0.1,0.3-0.2,0.5-0.3c0.1-0.1,0.2-0.2,0.3-0.3l0.1-0.2v0.8h0.7v-5.6h-0.8v4
			l-0.1,0.3l-0.3,0.4c-0.1,0.1-0.3,0.2-0.4,0.3c-0.2,0.1-0.3,0.1-0.5,0.1c-0.2,0-0.4-0.1-0.5-0.1c-0.1-0.1-0.2-0.1-0.3-0.3
			c-0.1-0.1-0.1-0.3-0.2-0.4c0-0.2,0-0.3,0-0.5v-3.7H118.6z M166.9,66.2c-0.3,0-0.5,0.1-0.7,0.2c-0.2,0.1-0.5,0.3-0.6,0.4
			c-0.2,0.2-0.3,0.4-0.4,0.6c-0.1,0.2-0.1,0.5-0.1,0.7c0,0.3,0,0.6,0.1,0.8c0.1,0.2,0.2,0.4,0.3,0.6c0.1,0.2,0.3,0.2,0.4,0.3
			c0.1,0.1,0.3,0.2,0.4,0.2l-0.2,0l-0.3,0.2l-0.2,0.2l-0.1,0.3c0,0.1,0,0.3,0.1,0.4l0.2,0.2l0.2,0.1l0.2,0c-0.1,0-0.2,0.1-0.4,0.1
			c-0.2,0.1-0.3,0.1-0.5,0.2c-0.2,0.1-0.3,0.3-0.4,0.4c-0.1,0.2-0.2,0.3-0.2,0.5c0,0.2,0,0.4,0.1,0.6c0.1,0.2,0.3,0.4,0.5,0.5
			c0.2,0.1,0.4,0.2,0.7,0.3c0.3,0.1,0.6,0.1,0.9,0.1c0.4,0,0.7,0,1-0.1c0.3-0.1,0.6-0.2,0.8-0.4c0.2-0.2,0.3-0.3,0.5-0.5
			c0.1-0.2,0.2-0.4,0.2-0.6c0-0.3-0.1-0.5-0.2-0.7c-0.1-0.2-0.3-0.4-0.5-0.5c-0.2-0.1-0.4-0.2-0.7-0.3c-0.3-0.1-0.6-0.1-0.9-0.1
			c-0.2,0-0.4-0.1-0.6-0.2c-0.2-0.1-0.2-0.2-0.2-0.4l0.1-0.2l0.2-0.1l0.3-0.1l0.2,0c0.3,0,0.5,0,0.8-0.1c0.2-0.1,0.5-0.3,0.6-0.4
			c0.2-0.2,0.3-0.4,0.4-0.7c0.1-0.2,0.1-0.5,0.1-0.8c0-0.2,0-0.3,0-0.4c0-0.1-0.1-0.3-0.1-0.4l-0.1-0.3l-0.1-0.2h0.9v-0.5h-1.6
			c-0.1,0-0.2-0.1-0.3-0.1C167.2,66.2,167,66.2,166.9,66.2L166.9,66.2z M163.5,66.2c-0.2,0-0.4,0.1-0.5,0.1
			c-0.2,0.1-0.3,0.2-0.4,0.3l-0.3,0.3l-0.1,0.2v-0.8h-0.7v5.6h0.8v-4l0.1-0.2l0.2-0.4c0.1-0.1,0.2-0.2,0.4-0.3
			c0.1-0.1,0.3-0.1,0.4-0.1l0.3,0l0.2,0.1l0.2-0.7l-0.2-0.1L163.5,66.2z M157.8,66.2c-0.3,0-0.7,0.1-0.9,0.3
			c-0.3,0.2-0.5,0.4-0.6,0.7c-0.2,0.3-0.3,0.6-0.4,0.9c-0.1,0.3-0.1,0.6-0.1,0.9c0,0.3,0.1,0.7,0.1,1c0.1,0.4,0.2,0.7,0.3,1
			c0.2,0.3,0.4,0.6,0.7,0.8c0.3,0.2,0.6,0.3,1.1,0.3c0.2,0,0.4,0,0.6,0c0.2,0,0.4-0.1,0.5-0.1c0.2,0,0.3-0.1,0.4-0.1l0.2-0.1
			l-0.2-0.6l-0.2,0.1c-0.1,0-0.2,0.1-0.3,0.1c-0.1,0-0.3,0.1-0.5,0.1c-0.2,0-0.3,0-0.5,0c-0.3,0-0.5,0-0.7-0.2
			c-0.2-0.1-0.3-0.4-0.5-0.6c-0.1-0.2-0.2-0.4-0.3-0.7c-0.1-0.2-0.1-0.5-0.1-0.7h3.4v-0.3c0-0.3,0-0.6-0.1-0.9
			c-0.1-0.3-0.2-0.6-0.4-0.9c-0.2-0.3-0.3-0.5-0.6-0.7C158.6,66.3,158.2,66.2,157.8,66.2z M143.6,66.2c-0.2,0-0.4,0.1-0.5,0.1
			c-0.2,0.1-0.3,0.2-0.5,0.3l-0.3,0.3l-0.1,0.2v-0.8h-0.7v5.6h0.8v-4l0.1-0.3l0.2-0.3c0.1-0.1,0.3-0.2,0.4-0.3
			c0.2-0.1,0.3-0.1,0.5-0.1c0.2,0,0.4,0.1,0.5,0.1c0.1,0.1,0.2,0.2,0.3,0.3c0.1,0.1,0.1,0.2,0.2,0.4c0,0.2,0,0.3,0,0.5v3.7h0.8v-4.1
			l0.1-0.3l0.3-0.3c0.1-0.1,0.3-0.2,0.4-0.2c0.2-0.1,0.3-0.1,0.5-0.1c0.2,0,0.4,0.1,0.5,0.1c0.1,0.1,0.2,0.2,0.3,0.3
			c0.1,0.1,0.1,0.2,0.2,0.4c0,0.2,0,0.3,0,0.5v3.7h0.8V68c0-0.2,0-0.5-0.1-0.7c-0.1-0.2-0.1-0.5-0.3-0.6c-0.1-0.2-0.3-0.3-0.5-0.4
			c-0.2-0.1-0.5-0.2-0.8-0.2c-0.2,0-0.4,0.1-0.6,0.1c-0.2,0.1-0.4,0.2-0.5,0.3c-0.1,0.1-0.2,0.2-0.3,0.3l-0.2,0.2l-0.1-0.2l-0.3-0.3
			c-0.1-0.1-0.3-0.2-0.5-0.2C144.1,66.2,143.8,66.2,143.6,66.2z M137.8,66.2c-0.3,0-0.7,0.1-0.9,0.3c-0.3,0.2-0.5,0.4-0.6,0.7
			c-0.2,0.3-0.3,0.6-0.4,0.9c-0.1,0.3-0.1,0.6-0.1,0.9c0,0.3,0.1,0.7,0.1,1c0.1,0.4,0.2,0.7,0.3,1c0.2,0.3,0.4,0.6,0.7,0.8
			c0.3,0.2,0.6,0.3,1.1,0.3c0.2,0,0.4,0,0.6,0c0.2,0,0.4-0.1,0.5-0.1c0.2,0,0.3-0.1,0.4-0.1l0.2-0.1l-0.2-0.6l-0.2,0.1
			c-0.1,0-0.2,0.1-0.4,0.1c-0.1,0-0.3,0.1-0.4,0.1c-0.2,0-0.3,0-0.5,0c-0.3,0-0.5,0-0.7-0.2c-0.2-0.1-0.3-0.4-0.5-0.6
			c-0.1-0.2-0.2-0.4-0.3-0.7c-0.1-0.2-0.1-0.5-0.1-0.7h3.4v-0.3c0-0.3,0-0.6-0.1-0.9c-0.1-0.3-0.2-0.6-0.4-0.9
			c-0.2-0.3-0.4-0.5-0.6-0.7C138.5,66.3,138.2,66.2,137.8,66.2z M126.5,66.2c-0.2,0-0.4,0.1-0.5,0.1c-0.2,0.1-0.3,0.2-0.4,0.3
			l-0.2,0.3l-0.1,0.2v-0.8h-0.7v5.6h0.8v-4l0.1-0.2l0.3-0.4c0.1-0.1,0.2-0.2,0.4-0.3c0.1-0.1,0.3-0.1,0.4-0.1l0.2,0l0.2,0.1l0.2-0.7
			l-0.2-0.1L126.5,66.2z M102,66.2c-0.2,0-0.4,0.1-0.5,0.1c-0.2,0.1-0.4,0.2-0.5,0.3c-0.1,0.1-0.2,0.2-0.3,0.3l-0.1,0.2v-0.8h-0.7
			v5.6h0.8v-4l0.1-0.3l0.3-0.3c0.1-0.1,0.3-0.2,0.5-0.3c0.2-0.1,0.3-0.1,0.5-0.1c0.2,0,0.3,0.1,0.5,0.1c0.1,0.1,0.3,0.2,0.4,0.3
			c0.1,0.1,0.1,0.3,0.2,0.4c0,0.2,0.1,0.3,0.1,0.4v3.7h0.8V68c0-0.2-0.1-0.5-0.1-0.7c-0.1-0.2-0.2-0.5-0.3-0.6
			c-0.1-0.2-0.3-0.3-0.5-0.4C102.6,66.2,102.3,66.2,102,66.2z M96.1,66.2c-0.3,0-0.7,0.1-0.9,0.3c-0.3,0.2-0.5,0.4-0.7,0.7
			c-0.2,0.3-0.3,0.6-0.4,0.9c-0.1,0.3-0.1,0.6-0.1,0.9c0,0.3,0,0.7,0.1,1c0.1,0.4,0.2,0.7,0.4,1c0.2,0.3,0.4,0.6,0.7,0.8
			c0.3,0.2,0.7,0.3,1.1,0.3c0.2,0,0.4,0,0.6,0c0.2,0,0.3-0.1,0.5-0.1c0.2,0,0.3-0.1,0.4-0.1l0.2-0.1L97.7,71l-0.3,0.1
			c-0.1,0-0.2,0.1-0.3,0.1c-0.1,0-0.3,0.1-0.4,0.1c-0.2,0-0.3,0-0.5,0c-0.3,0-0.5,0-0.6-0.2c-0.2-0.1-0.4-0.4-0.5-0.6
			c-0.1-0.2-0.2-0.4-0.2-0.7c-0.1-0.2-0.1-0.5-0.1-0.7h3.4v-0.3c0-0.3-0.1-0.6-0.1-0.9c-0.1-0.3-0.2-0.6-0.3-0.9
			c-0.2-0.3-0.4-0.5-0.6-0.7C96.8,66.3,96.5,66.2,96.1,66.2z M84.9,66.2c-0.2,0-0.4,0-0.6,0.1c-0.2,0-0.3,0.1-0.5,0.1
			c-0.2,0.1-0.3,0.1-0.4,0.2l-0.2,0.1l0.2,0.6l0.2-0.1c0.1-0.1,0.2-0.1,0.4-0.2c0.1-0.1,0.3-0.1,0.4-0.1c0.2,0,0.3-0.1,0.4-0.1
			c0.4,0,0.7,0.2,0.9,0.4c0.2,0.2,0.3,0.5,0.3,0.9v0.4l-1.1,0.3c-0.2,0-0.4,0.1-0.7,0.2c-0.2,0.1-0.5,0.2-0.7,0.4
			c-0.2,0.1-0.4,0.3-0.5,0.5c-0.1,0.2-0.2,0.4-0.2,0.6c0,0.5,0.2,0.9,0.5,1.2c0.3,0.3,0.7,0.4,1.2,0.4c0.2,0,0.4-0.1,0.6-0.1
			c0.2-0.1,0.3-0.2,0.5-0.3c0.1-0.1,0.3-0.2,0.4-0.3l0.1-0.2v0.8h0.7V68c0-0.6-0.2-1-0.5-1.3C85.9,66.3,85.5,66.2,84.9,66.2
			L84.9,66.2z M78.1,65.1h1.2c0.4,0,0.7,0.1,1,0.3c0.3,0.2,0.4,0.5,0.4,0.9c0,0.2-0.1,0.4-0.1,0.5c-0.1,0.2-0.2,0.3-0.3,0.4
			c-0.1,0.1-0.3,0.2-0.5,0.3c-0.2,0.1-0.4,0.1-0.5,0.1h-1.2V65.1z M132.6,64.8v1.5h-1v0.6h1v3.9c0,0.2,0,0.3,0,0.4
			c0,0.1,0.1,0.3,0.2,0.4c0.1,0.1,0.2,0.2,0.4,0.3c0.2,0.1,0.4,0.1,0.6,0.1l0.2,0l0.3,0l0.2,0l0.1,0l-0.2-0.6c0,0-0.1,0.1-0.2,0.1
			c-0.1,0-0.3,0.1-0.4,0.1c-0.2,0-0.3-0.1-0.4-0.2s-0.1-0.3-0.1-0.4v-3.8h1.1v-0.6h-1.1v-1.5L132.6,64.8L132.6,64.8z M128.7,64.8
			v1.5h-0.9v0.6h0.9v3.9c0,0.2,0,0.3,0.1,0.4c0,0.1,0.1,0.3,0.2,0.4c0.1,0.1,0.2,0.2,0.4,0.3c0.2,0.1,0.4,0.1,0.6,0.1l0.2,0l0.3,0
			l0.2,0l0.1,0l-0.2-0.6c0,0-0.1,0.1-0.3,0.1c-0.1,0-0.2,0.1-0.3,0.1c-0.2,0-0.3-0.1-0.4-0.2c-0.1-0.1-0.1-0.3-0.1-0.4v-3.8h1.1
			v-0.6h-1.1v-1.5L128.7,64.8L128.7,64.8z M108.9,64.5l1.7,7.4h0.9l1.6-6.4l1.6,6.4h0.9l1.7-7.4h-0.8l-1.4,6.4l-1.6-6.4h-0.9
			l-1.6,6.4l-1.4-6.4H108.9z M77.3,64.5v7.4h1.9c0.4,0,0.6,0,1-0.1c0.3-0.1,0.6-0.3,0.9-0.4c0.2-0.2,0.4-0.4,0.5-0.6
			c0.1-0.3,0.2-0.6,0.2-0.9c0-0.2-0.1-0.5-0.1-0.7c-0.1-0.2-0.2-0.4-0.3-0.5c-0.1-0.2-0.3-0.3-0.5-0.4c-0.2-0.1-0.4-0.2-0.6-0.2
			c0.2,0,0.3-0.1,0.5-0.2c0.2-0.1,0.3-0.2,0.4-0.4c0.1-0.1,0.3-0.3,0.4-0.5c0.1-0.2,0.1-0.3,0.1-0.5c0-0.3-0.1-0.6-0.2-0.9
			c-0.1-0.2-0.3-0.4-0.5-0.6c-0.2-0.2-0.5-0.2-0.7-0.3c-0.3-0.1-0.5-0.1-0.8-0.1H77.3z M121.5,64.3c-0.1,0-0.3,0.1-0.4,0.2
			c-0.1,0.1-0.1,0.2-0.1,0.4c0,0.1,0,0.3,0.1,0.4c0.1,0.1,0.2,0.1,0.4,0.1c0.2,0,0.3,0,0.4-0.1c0.1-0.1,0.1-0.2,0.1-0.4
			c0-0.1,0-0.3-0.1-0.4S121.7,64.3,121.5,64.3 M119.6,64.3c-0.1,0-0.3,0.1-0.4,0.2c-0.1,0.1-0.1,0.2-0.1,0.4c0,0.1,0,0.3,0.1,0.4
			c0.1,0.1,0.2,0.1,0.4,0.1s0.3,0,0.4-0.1c0.1-0.1,0.2-0.2,0.2-0.4c0-0.1-0.1-0.3-0.2-0.4C119.9,64.4,119.8,64.3,119.6,64.3
			 M150.3,64v7.7c0.1,0,0.2,0.1,0.3,0.1c0.2,0,0.3,0.1,0.5,0.1c0.2,0,0.4,0,0.5,0c0.2,0,0.3,0,0.5,0c0.4,0,0.7-0.1,1-0.3
			c0.3-0.2,0.6-0.4,0.8-0.7c0.2-0.3,0.4-0.6,0.5-1c0.1-0.4,0.2-0.7,0.2-1.1c0-0.3-0.1-0.7-0.1-1c-0.1-0.3-0.2-0.6-0.4-0.9
			c-0.2-0.3-0.4-0.5-0.7-0.7c-0.3-0.2-0.6-0.3-1-0.3c-0.2,0-0.3,0.1-0.5,0.1c-0.2,0.1-0.3,0.2-0.4,0.3l-0.3,0.3l-0.1,0.2V64
			L150.3,64L150.3,64z M91.8,64v3.1l-0.2-0.2l-0.3-0.3c-0.1-0.1-0.3-0.2-0.4-0.2c-0.2-0.1-0.3-0.1-0.5-0.1c-0.3,0-0.6,0.1-0.9,0.3
			c-0.3,0.2-0.5,0.4-0.7,0.6c-0.2,0.3-0.4,0.6-0.5,0.9c-0.1,0.3-0.1,0.7-0.1,1c0,0.4,0.1,0.7,0.1,1.1c0.1,0.4,0.2,0.7,0.4,1
			c0.2,0.3,0.4,0.5,0.6,0.7c0.3,0.2,0.6,0.3,1,0.3c0.2,0,0.3-0.1,0.5-0.1c0.2-0.1,0.3-0.2,0.4-0.3c0.1-0.1,0.2-0.2,0.3-0.3l0.2-0.2
			v0.8h0.7V64H91.8z M92.3,56.8v1.3l-0.2,0.4c-0.1,0.1-0.2,0.3-0.3,0.4c-0.1,0.1-0.3,0.2-0.5,0.2c-0.2,0.1-0.3,0.1-0.5,0.1
			c-0.3,0-0.5-0.1-0.7-0.3c-0.2-0.2-0.3-0.4-0.3-0.7c0-0.2,0-0.3,0.1-0.4c0.1-0.1,0.2-0.3,0.4-0.4c0.1-0.1,0.3-0.2,0.5-0.3
			c0.2-0.1,0.3-0.1,0.5-0.2L92.3,56.8z M156.4,54.6c0.2,0,0.4,0,0.6,0.2c0.2,0.1,0.3,0.3,0.4,0.5c0.1,0.2,0.2,0.4,0.2,0.6
			c0,0.2,0.1,0.4,0.1,0.6h-2.6c0-0.2,0-0.4,0.1-0.6c0.1-0.2,0.1-0.4,0.2-0.6c0.1-0.2,0.2-0.4,0.4-0.5
			C156,54.7,156.2,54.6,156.4,54.6z M115.6,54.6c0.3,0,0.5,0.1,0.7,0.3c0.2,0.2,0.3,0.3,0.5,0.5c0.1,0.2,0.2,0.5,0.2,0.7
			c0,0.2,0,0.4,0,0.6c0,0.2,0,0.5,0,0.8c0,0.3-0.1,0.5-0.2,0.8c-0.1,0.2-0.3,0.5-0.5,0.6c-0.2,0.2-0.4,0.3-0.7,0.3
			c-0.3,0-0.5-0.1-0.7-0.3c-0.2-0.2-0.4-0.4-0.5-0.6c-0.1-0.2-0.1-0.5-0.2-0.8c0-0.3-0.1-0.5-0.1-0.8c0-0.2,0-0.4,0.1-0.7
			c0-0.2,0.1-0.5,0.2-0.7c0.1-0.2,0.3-0.4,0.5-0.6C115.1,54.7,115.3,54.6,115.6,54.6 M99.9,54.6c0.2,0,0.4,0,0.6,0.2
			c0.2,0.1,0.3,0.3,0.4,0.5c0.1,0.2,0.2,0.4,0.2,0.6c0,0.2,0.1,0.4,0.1,0.6h-2.6c0-0.2,0-0.4,0.1-0.6c0.1-0.2,0.1-0.4,0.2-0.6
			c0.1-0.2,0.2-0.4,0.4-0.5C99.5,54.7,99.7,54.6,99.9,54.6z M145.8,54.1v3.8c0,0.2,0,0.5,0.1,0.7c0.1,0.2,0.2,0.4,0.3,0.6
			c0.1,0.2,0.3,0.3,0.5,0.4c0.2,0.1,0.5,0.1,0.8,0.1c0.2,0,0.4-0.1,0.6-0.1c0.2-0.1,0.3-0.2,0.4-0.3c0.1-0.1,0.2-0.2,0.3-0.3
			l0.2-0.2v0.8h0.7v-5.6h-0.8v4l-0.1,0.2l-0.3,0.4c-0.1,0.1-0.3,0.2-0.4,0.3c-0.2,0.1-0.4,0.1-0.5,0.1c-0.2,0-0.3-0.1-0.5-0.1
			c-0.1-0.1-0.3-0.1-0.4-0.3c-0.1-0.1-0.1-0.3-0.2-0.4c0-0.2,0-0.3,0-0.5v-3.7H145.8z M83.6,54.1v3.8c0,0.2,0.1,0.5,0.1,0.7
			c0.1,0.2,0.2,0.4,0.3,0.6c0.1,0.2,0.3,0.3,0.5,0.4c0.2,0.1,0.5,0.1,0.8,0.1c0.2,0,0.4-0.1,0.5-0.1c0.2-0.1,0.3-0.2,0.5-0.3
			c0.1-0.1,0.2-0.2,0.3-0.3l0.1-0.2v0.8h0.7v-5.6h-0.8v4l-0.1,0.2l-0.3,0.4c-0.1,0.1-0.3,0.2-0.4,0.3c-0.2,0.1-0.3,0.1-0.5,0.1
			c-0.2,0-0.4-0.1-0.5-0.1c-0.1-0.1-0.2-0.1-0.3-0.3c-0.1-0.1-0.1-0.3-0.2-0.4c0-0.2-0.1-0.3-0.1-0.5v-3.7H83.6z M156.4,54
			c-0.3,0-0.7,0.1-0.9,0.3c-0.3,0.2-0.5,0.4-0.6,0.7c-0.2,0.3-0.3,0.6-0.4,0.9c-0.1,0.3-0.1,0.6-0.1,0.9c0,0.3,0.1,0.7,0.1,1.1
			c0.1,0.4,0.2,0.7,0.3,1c0.2,0.3,0.4,0.5,0.7,0.7c0.3,0.2,0.6,0.3,1.1,0.3c0.2,0,0.4,0,0.6,0c0.2,0,0.4-0.1,0.5-0.1
			c0.2,0,0.3-0.1,0.4-0.1l0.2-0.1l-0.2-0.6l-0.2,0.1c-0.1,0-0.2,0.1-0.3,0.1c-0.1,0-0.3,0.1-0.5,0.1c-0.2,0-0.3,0.1-0.5,0.1
			c-0.3,0-0.5-0.1-0.7-0.2c-0.2-0.1-0.3-0.3-0.5-0.5c-0.1-0.2-0.2-0.5-0.3-0.7c-0.1-0.2-0.1-0.5-0.1-0.7h3.4v-0.3
			c0-0.3,0-0.6-0.1-0.9c-0.1-0.3-0.2-0.6-0.4-0.9c-0.2-0.3-0.4-0.5-0.6-0.7C157,54.1,156.7,54,156.4,54 M136.9,54
			c-0.3,0-0.6,0.1-0.9,0.3c-0.3,0.2-0.5,0.4-0.7,0.7c-0.2,0.3-0.3,0.6-0.4,0.9c-0.1,0.3-0.2,0.6-0.2,0.9c0,0.4,0.1,0.8,0.1,1.1
			c0.1,0.4,0.2,0.7,0.4,1c0.2,0.3,0.4,0.5,0.7,0.7c0.3,0.2,0.6,0.3,1,0.3c0.2,0,0.4,0,0.5,0c0.2,0,0.4-0.1,0.5-0.1
			c0.1,0,0.2-0.1,0.3-0.1l0.2-0.1l-0.2-0.6l-0.2,0.1l-0.3,0.1c-0.1,0-0.2,0.1-0.4,0.1c-0.1,0-0.3,0-0.4,0c-0.3,0-0.5-0.1-0.6-0.2
			c-0.2-0.1-0.3-0.3-0.5-0.5c-0.1-0.2-0.2-0.5-0.2-0.8c-0.1-0.3-0.1-0.6-0.1-0.9c0-0.2,0-0.5,0.1-0.7c0.1-0.3,0.2-0.5,0.3-0.7
			c0.1-0.2,0.3-0.4,0.5-0.5c0.2-0.1,0.4-0.2,0.6-0.2l0.3,0l0.4,0.1l0.3,0.1l0.1,0.1l0.2-0.6l-0.1-0.1l-0.3-0.1
			c-0.1,0-0.3-0.1-0.4-0.1C137.3,54,137.1,54,136.9,54z M131.8,54c-0.2,0-0.5,0.1-0.7,0.1c-0.2,0.1-0.4,0.2-0.6,0.4
			c-0.2,0.1-0.3,0.3-0.4,0.5c-0.1,0.2-0.1,0.4-0.1,0.7c0,0.2,0.1,0.4,0.2,0.6c0.1,0.2,0.3,0.3,0.5,0.5c0.2,0.1,0.4,0.3,0.6,0.4
			c0.2,0.1,0.4,0.2,0.6,0.4c0.2,0.1,0.4,0.3,0.5,0.4c0.1,0.1,0.2,0.2,0.2,0.4c0,0.3-0.1,0.5-0.3,0.7c-0.2,0.2-0.5,0.3-0.8,0.3
			c-0.1,0-0.3,0-0.5,0c-0.2,0-0.3-0.1-0.5-0.1c-0.1,0-0.3-0.1-0.4-0.1l-0.2-0.1l-0.3,0.6l0.3,0.1c0.1,0,0.2,0.1,0.4,0.1
			c0.1,0,0.4,0.1,0.5,0.1c0.2,0,0.4,0,0.6,0c0.3,0,0.5-0.1,0.7-0.1c0.2-0.1,0.4-0.2,0.6-0.3c0.2-0.1,0.3-0.3,0.4-0.5
			c0.1-0.2,0.1-0.4,0.1-0.7c0-0.2,0-0.4-0.2-0.5c-0.1-0.2-0.3-0.3-0.5-0.4c-0.2-0.1-0.4-0.3-0.6-0.4c-0.2-0.1-0.5-0.2-0.7-0.4
			c-0.2-0.1-0.4-0.3-0.5-0.4c-0.1-0.1-0.2-0.3-0.2-0.4c0-0.3,0.1-0.5,0.3-0.7c0.2-0.2,0.4-0.3,0.7-0.3l0.3,0l0.4,0.1l0.3,0.1
			l0.2,0.1l0.2-0.6l-0.2-0.1c-0.1,0-0.2-0.1-0.3-0.1c-0.1,0-0.3-0.1-0.4-0.1C132.1,54,131.9,54,131.8,54L131.8,54z M121.4,54
			c-0.3,0-0.6,0.1-0.9,0.3c-0.3,0.2-0.5,0.4-0.7,0.7c-0.2,0.3-0.3,0.6-0.5,0.9c-0.1,0.3-0.2,0.6-0.2,0.9c0,0.4,0.1,0.8,0.1,1.1
			c0.1,0.4,0.2,0.7,0.4,1c0.2,0.3,0.4,0.5,0.7,0.7c0.3,0.2,0.6,0.3,1,0.3c0.2,0,0.4,0,0.5,0c0.2,0,0.3-0.1,0.5-0.1
			c0.1,0,0.2-0.1,0.3-0.1l0.2-0.1l-0.3-0.6l-0.2,0.1l-0.3,0.1c-0.1,0-0.2,0.1-0.4,0.1c-0.1,0-0.2,0-0.4,0c-0.3,0-0.5-0.1-0.7-0.2
			c-0.2-0.1-0.3-0.3-0.5-0.5c-0.1-0.2-0.2-0.5-0.2-0.8c-0.1-0.3-0.1-0.6-0.1-0.9c0-0.2,0-0.5,0.1-0.7c0.1-0.3,0.2-0.5,0.3-0.7
			c0.1-0.2,0.3-0.4,0.5-0.5c0.2-0.1,0.4-0.2,0.6-0.2l0.4,0l0.3,0.1l0.3,0.1l0.1,0.1l0.3-0.6l-0.2-0.1l-0.3-0.1
			c-0.1,0-0.3-0.1-0.4-0.1C121.7,54,121.5,54,121.4,54z M115.6,54c-0.4,0-0.7,0.1-1,0.3c-0.3,0.2-0.5,0.4-0.7,0.7
			c-0.2,0.3-0.3,0.6-0.4,0.9c-0.1,0.3-0.1,0.6-0.1,0.9c0,0.3,0.1,0.6,0.1,1c0.1,0.4,0.2,0.7,0.4,1c0.2,0.3,0.4,0.6,0.7,0.8
			c0.3,0.2,0.6,0.3,1,0.3c0.4,0,0.8-0.1,1-0.3c0.3-0.2,0.5-0.5,0.7-0.8c0.2-0.3,0.3-0.6,0.4-1c0.1-0.4,0.1-0.7,0.1-1
			c0-0.3,0-0.5-0.1-0.9c-0.1-0.3-0.2-0.6-0.4-0.9c-0.2-0.3-0.4-0.5-0.7-0.7C116.3,54.1,116,54,115.6,54z M99.9,54
			c-0.3,0-0.7,0.1-0.9,0.3c-0.3,0.2-0.5,0.4-0.6,0.7c-0.2,0.3-0.3,0.6-0.4,0.9c-0.1,0.3-0.1,0.6-0.1,0.9c0,0.3,0,0.7,0.1,1.1
			c0.1,0.4,0.2,0.7,0.4,1c0.2,0.3,0.4,0.5,0.7,0.7c0.3,0.2,0.6,0.3,1.1,0.3c0.2,0,0.4,0,0.6,0c0.2,0,0.4-0.1,0.5-0.1
			c0.2,0,0.3-0.1,0.4-0.1l0.2-0.1l-0.2-0.6l-0.2,0.1c-0.1,0-0.2,0.1-0.4,0.1c-0.1,0-0.3,0.1-0.4,0.1c-0.2,0-0.3,0.1-0.5,0.1
			c-0.3,0-0.5-0.1-0.7-0.2c-0.2-0.1-0.3-0.3-0.5-0.5c-0.1-0.2-0.2-0.5-0.3-0.7c-0.1-0.2-0.1-0.5-0.1-0.7h3.4v-0.3
			c0-0.3,0-0.6-0.1-0.9c-0.1-0.3-0.2-0.6-0.4-0.9c-0.2-0.3-0.4-0.5-0.6-0.7C100.6,54.1,100.3,54,99.9,54 M91.2,54
			c-0.2,0-0.4,0-0.6,0.1c-0.2,0-0.4,0.1-0.5,0.1c-0.2,0.1-0.3,0.1-0.4,0.2l-0.2,0.1l0.2,0.6L90,55c0.1-0.1,0.2-0.1,0.4-0.1
			c0.1-0.1,0.3-0.1,0.4-0.2c0.2,0,0.3,0,0.4,0c0.4,0,0.7,0.1,0.9,0.4c0.2,0.2,0.3,0.5,0.3,0.9v0.4l-1.1,0.3c-0.2,0-0.4,0.1-0.7,0.2
			c-0.2,0.1-0.5,0.2-0.7,0.4c-0.2,0.1-0.4,0.3-0.5,0.5c-0.1,0.2-0.2,0.4-0.2,0.6c0,0.5,0.2,0.9,0.5,1.2c0.3,0.3,0.7,0.4,1.2,0.4
			c0.2,0,0.4,0,0.5-0.1c0.2-0.1,0.4-0.2,0.5-0.3c0.1-0.1,0.3-0.2,0.4-0.3l0.1-0.2v0.8h0.7v-3.8c0-0.6-0.2-1.1-0.5-1.4
			C92.3,54.2,91.8,54,91.2,54z M78.1,52.9H79c0.3,0,0.6,0.1,0.9,0.2c0.3,0.1,0.6,0.3,0.8,0.5c0.2,0.2,0.4,0.5,0.5,0.9
			c0.1,0.4,0.2,0.8,0.2,1.2s-0.1,0.9-0.2,1.3c-0.1,0.4-0.3,0.7-0.5,1c-0.2,0.3-0.5,0.5-0.8,0.7c-0.3,0.2-0.6,0.3-0.9,0.3h-1V52.9z
			 M106.9,52.3v7.4h0.8v-3.5h3v3.5h0.8v-7.4h-0.8v3.2h-3v-3.2H106.9z M77.3,52.3v7.4h1.8c0.5,0,0.9-0.1,1.3-0.3
			c0.4-0.2,0.8-0.5,1-0.8c0.3-0.3,0.5-0.7,0.7-1.2c0.2-0.5,0.2-1,0.2-1.5c0-0.6-0.1-1-0.3-1.5c-0.2-0.4-0.4-0.8-0.7-1.1
			c-0.3-0.3-0.7-0.6-1.1-0.7s-0.9-0.2-1.4-0.2H77.3z M151.6,51.8v6.7c0,0.2,0,0.4,0,0.5c0,0.2,0.1,0.3,0.2,0.4
			c0.1,0.1,0.2,0.2,0.3,0.3c0.1,0.1,0.3,0.1,0.5,0.1c0.1,0,0.3,0,0.4,0c0.1,0,0.2-0.1,0.3-0.1l-0.2-0.6l-0.2,0.1l-0.2,0
			c-0.1,0-0.2-0.1-0.3-0.2c-0.1-0.1-0.1-0.3-0.1-0.5v-6.6H151.6z M139.9,51.8v7.9h0.8v-4l0.1-0.3l0.3-0.4c0.1-0.1,0.2-0.2,0.4-0.3
			c0.2-0.1,0.4-0.1,0.5-0.1c0.2,0,0.3,0.1,0.5,0.1c0.1,0.1,0.3,0.2,0.4,0.3c0.1,0.1,0.1,0.3,0.2,0.5c0,0.2,0.1,0.3,0.1,0.4v3.7h0.8
			v-3.8c0-0.2-0.1-0.4-0.1-0.7c-0.1-0.2-0.2-0.4-0.3-0.6c-0.1-0.2-0.3-0.3-0.5-0.4c-0.2-0.1-0.5-0.2-0.8-0.2c-0.2,0-0.4,0.1-0.5,0.1
			c-0.2,0.1-0.3,0.2-0.5,0.3c-0.1,0.1-0.2,0.2-0.3,0.3l-0.1,0.2v-3.1H139.9z M124.3,51.8v7.9h0.8v-4l0.1-0.3l0.3-0.4
			c0.1-0.1,0.3-0.2,0.5-0.3c0.2-0.1,0.3-0.1,0.5-0.1c0.2,0,0.3,0.1,0.5,0.1c0.1,0.1,0.3,0.2,0.4,0.3c0.1,0.1,0.1,0.3,0.2,0.5
			c0,0.2,0.1,0.3,0.1,0.4v3.7h0.8v-3.8c0-0.2,0-0.4-0.1-0.7c-0.1-0.2-0.2-0.4-0.4-0.6c-0.1-0.2-0.3-0.3-0.5-0.4
			c-0.2-0.1-0.5-0.2-0.8-0.2c-0.2,0-0.4,0.1-0.5,0.1c-0.2,0.1-0.3,0.2-0.5,0.3c-0.1,0.1-0.2,0.2-0.3,0.3l-0.1,0.2v-3.1H124.3z
			 M95.1,51.8v6.7c0,0.2,0,0.4,0,0.5c0,0.2,0.1,0.3,0.2,0.4c0.1,0.1,0.2,0.2,0.4,0.3c0.1,0.1,0.3,0.1,0.5,0.1c0.1,0,0.2,0,0.4,0
			c0.1,0,0.2-0.1,0.3-0.1L96.6,59l-0.2,0.1l-0.2,0c-0.1,0-0.3-0.1-0.3-0.2c-0.1-0.1-0.1-0.3-0.1-0.5v-6.6H95.1z M134.2,31.2h4.8
			c1.9,0,3.4,0.5,4.6,1.5c1.2,1,1.7,2.3,1.7,4c0,0.9-0.1,1.7-0.5,2.4c-0.3,0.7-0.8,1.4-1.4,1.9c-0.6,0.5-1.2,0.9-2,1.2
			c-0.8,0.3-1.6,0.4-2.5,0.4h-4.8V31.2z M134.2,18.6h4.8c1.7,0,3,0.4,4.1,1.3c1,0.9,1.5,2.1,1.5,3.5c0,0.8-0.2,1.4-0.5,2.1
			c-0.3,0.6-0.7,1.2-1.3,1.7c-0.5,0.5-1.1,0.8-1.8,1.1c-0.7,0.3-1.4,0.4-2.1,0.4h-4.7V18.6z M152.2,16.1c-0.2,0-0.4,0.1-0.5,0.2
			c-0.1,0.1-0.2,0.3-0.1,0.5l5.6,27.7c0.1,0.2,0.2,0.4,0.4,0.5c0.2,0.1,0.3,0.2,0.5,0.2h2.2c0.2,0,0.4-0.1,0.5-0.2
			c0.2-0.1,0.3-0.3,0.3-0.5L166,20l4.9,24.4c0.1,0.2,0.2,0.4,0.3,0.5c0.2,0.1,0.3,0.2,0.5,0.2h2.2c0.2,0,0.4-0.1,0.5-0.2
			c0.1-0.1,0.3-0.3,0.3-0.5l5.6-27.7c0.1-0.2,0-0.4-0.1-0.5c-0.1-0.1-0.3-0.2-0.5-0.2h-1.8c-0.4,0-0.7,0.2-0.9,0.7L173,41.2
			l-4.9-24.4c-0.1-0.5-0.4-0.7-0.8-0.7H165c-0.5,0-0.8,0.2-0.9,0.7l-4.8,24.4l-4.4-24.4c-0.1-0.5-0.4-0.7-0.9-0.7H152.2z
			 M131.7,16.1c-0.2,0-0.4,0-0.5,0.2c-0.1,0.1-0.2,0.3-0.2,0.5v27.7c0,0.2,0.1,0.4,0.2,0.5c0.1,0.1,0.3,0.2,0.5,0.2h6.7
			c1.4,0,2.7-0.2,4-0.6c1.2-0.4,2.3-0.9,3.2-1.6c0.9-0.7,1.7-1.6,2.2-2.7c0.5-1,0.8-2.2,0.8-3.5c0-0.9-0.2-1.8-0.5-2.6
			c-0.3-0.8-0.8-1.5-1.4-2.1c-0.6-0.6-1.3-1.1-2-1.5c-0.7-0.4-1.5-0.7-2.4-0.8c0.6-0.2,1.2-0.5,1.8-0.9c0.6-0.4,1.2-0.9,1.8-1.4
			c0.5-0.6,1-1.2,1.3-1.9c0.4-0.7,0.5-1.5,0.5-2.2c0-1.3-0.2-2.3-0.7-3.2c-0.5-0.9-1.1-1.7-2-2.3c-0.8-0.6-1.7-1.1-2.8-1.3
			c-1.1-0.3-2.2-0.4-3.4-0.4H131.7z"/>
		<path class="st0" d="M82.5,20.1h3.3c1.2,0,2.3,0.3,3.3,0.8c1,0.5,1.8,1.2,2.5,2.1c0.7,0.9,1.2,1.9,1.6,3.1
			c0.4,1.2,0.5,2.5,0.5,3.9c0,1.6-0.2,3.1-0.5,4.4c-0.4,1.4-1,2.6-1.7,3.5c-0.7,1-1.6,1.7-2.6,2.3c-1,0.6-2.1,0.9-3.4,0.9h-3V20.1z
			 M105.2,16.1c-0.3,0-0.6,0.1-0.8,0.3c-0.2,0.2-0.3,0.5-0.3,0.8v27c0,0.3,0.1,0.6,0.3,0.8c0.2,0.2,0.5,0.3,0.8,0.3h3
			c0.3,0,0.6-0.1,0.8-0.3c0.2-0.2,0.3-0.4,0.3-0.8v-12h10.2v12c0,0.3,0.1,0.6,0.3,0.8c0.2,0.2,0.4,0.3,0.7,0.3h3
			c0.3,0,0.6-0.1,0.8-0.3c0.2-0.2,0.3-0.4,0.3-0.8v-27c0-0.3-0.1-0.6-0.3-0.8c-0.2-0.2-0.5-0.3-0.8-0.3h-3c-0.3,0-0.5,0.1-0.7,0.3
			c-0.2,0.2-0.3,0.5-0.3,0.8v10.7h-10.2V17.1c0-0.3-0.1-0.6-0.3-0.8c-0.2-0.2-0.5-0.3-0.8-0.3H105.2z M78.3,16.1
			c-0.3,0-0.6,0.1-0.8,0.3c-0.2,0.2-0.3,0.5-0.3,0.8v27c0,0.3,0.1,0.6,0.3,0.8c0.2,0.2,0.4,0.3,0.8,0.3h7.4c2,0,3.9-0.4,5.5-1.1
			c1.7-0.8,3.1-1.8,4.2-3.2c1.2-1.4,2-2.9,2.7-4.8c0.6-1.9,0.9-3.9,0.9-6.1c0-2.1-0.3-4-1-5.7c-0.6-1.7-1.6-3.2-2.7-4.4
			c-1.2-1.2-2.6-2.2-4.2-2.8c-1.7-0.7-3.5-1-5.5-1H78.3z"/>
	</g>
</g>
</svg>
