<?xml version="1.0" encoding="utf-8"?>
<!-- Generator: Adobe Illustrator 22.0.1, SVG Export Plug-In . SVG Version: 6.00 Build 0)  -->
<svg version="1.1" id="Ebene_1" xmlns="http://www.w3.org/2000/svg" xmlns:xlink="http://www.w3.org/1999/xlink" x="0px" y="0px"
	 width="181.5px" height="28.8px" viewBox="0 0 181.5 28.8" style="enable-background:new 0 0 181.5 28.8;" xml:space="preserve">
<style type="text/css">
	.st0{fill:#FFFFFF;}
</style>
<g>
	<polygon class="st0" points="14.6,3.4 14.6,12.2 7.6,12.2 7.6,3.4 1.6,3.4 1.6,26.3 7.6,26.3 7.6,16.5 14.6,16.5 14.6,26.3 
		20.6,26.3 20.6,3.4 	"/>
	<polygon class="st0" points="25.6,26.3 25.6,3.4 41.3,3.4 41.3,7.8 31.5,7.8 31.5,12.5 40.8,12.5 40.8,16.8 31.5,16.8 31.5,22 
		41.7,22 41.7,26.3 	"/>
	<polygon class="st0" points="59.3,26.3 52.3,15.9 52.2,15.9 52.2,26.3 46.3,26.3 46.3,3.4 52.2,3.4 52.2,12.8 52.3,12.8 59,3.4 
		66.2,3.4 57.9,14.1 66.9,26.3 	"/>
	<path class="st0" d="M85.5,26.3l-1.7-4.9h-8.4l-1.8,4.9h-6.1l8.5-22.9h7.3L92,26.3H85.5z M82.4,17.1l-2.7-8.9h-0.1l-2.9,8.9H82.4z"
		/>
	<polygon class="st0" points="96.9,26.3 96.9,7.9 91.4,7.9 91.4,3.4 108.4,3.4 108.4,7.9 102.9,7.9 102.9,26.3 	"/>
	<g>
		<path class="st0" d="M117.3,7.8h1.6c2.3,0,4.4,0.4,4.4,2.5c0,2.6-2.4,2.7-4.4,2.7h-1.6V7.8z M111.4,26.3h6v-9h1.2
			c2.2,0,3,1,4.2,4.9l1.3,4.1h6.2l-2.2-6.2c-1.1-2.8-1.2-4.5-3.2-5V15c2.9-0.7,4.3-2.7,4.3-5.8c0-3.9-3.2-5.8-7.2-5.8h-10.6V26.3z"
			/>
	</g>
	<polygon class="st0" points="174.4,3.4 174.5,19 174.4,19 166.9,3.4 159.3,3.4 159.3,26.3 164.8,26.3 164.6,10.7 164.6,10.7 
		172.5,26.3 179.9,26.3 179.9,3.4 	"/>
	<g>
		<path class="st0" d="M131.5,12.1c0,0,3.1-9.1,11.4-9.1c8.4,0,11.7,6.8,11.7,11.2s-3.9,8.7-9.2,8.7c-5.2,0-8.9-4.4-8.9-8.2
			s3.3-6.5,6.6-6.5s6.2,2.9,6.2,5.2c0,3-1.5,4.2-3.9,4.2c-3.4,0-3.6-2.9-3.6-2.9h5.1v1.6h0.8c0,0,0.3-1.2,0.3-2.1
			c0-0.9-0.7-5.1-4.4-5.1c-2.6,0-5.4,2.8-5.4,6.7c0,3.3,2.5,6.4,6.6,6.4c4.8,0,8.1-4.6,8.1-8.9c0-4.3-3.2-9.3-9.1-9.3
			c-5.9,0-10.9,5.6-10.9,11.7c0,6.1,5.5,11.9,11.3,11.9c10.4,0,12.7-10,12.7-10s-2.7,8.1-11.9,8.1c-6.2,0-11-5.5-11-10.9
			c0-2.1,1.7-9.1,9.2-9.1c5.8,0,8.8,5.5,8.8,8c0,2.3-1.4,6.7-6.6,6.7c-3.9,0-6.1-3.1-6.1-5.4c0-1.4,1-3.9,3.5-3.9
			c3.7,0,3.9,2.7,3.9,2.7h-5.1v-1.4h-0.7c0,0-0.4,1.1-0.4,2.1s0.6,5.2,4.2,5.2c3.7,0,5.8-3.7,5.8-6.5c0-2.9-2.4-6.4-6.9-6.4
			c-3.9,0-7.9,4-7.9,9c0,4.6,3.6,9.3,9.2,9.3c5.7,0,10.6-5.8,10.6-11.6s-4.6-11.8-11.7-11.8C133.3,1.3,131.5,12.1,131.5,12.1"/>
	</g>
</g>
</svg>
