<?xml version="1.0" encoding="utf-8"?>
<!-- Generator: Adobe Illustrator 22.0.1, SVG Export Plug-In . SVG Version: 6.00 Build 0)  -->
<svg version="1.1" id="Ebene_1" xmlns="http://www.w3.org/2000/svg" xmlns:xlink="http://www.w3.org/1999/xlink" x="0px" y="0px"
	 width="132.5px" height="67.3px" viewBox="0 0 132.5 67.3" style="enable-background:new 0 0 132.5 67.3;" xml:space="preserve">
<style type="text/css">
	.st0{clip-path:url(#SVGID_2_);fill:#FFFFFF;}
	.st1{clip-path:url(#SVGID_2_);fill:none;stroke:#FFFFFF;stroke-width:0.713;stroke-miterlimit:10;}
</style>
<g>
	<defs>
		<rect id="SVGID_1_" x="1.2" y="0.9" width="130.8" height="65.7"/>
	</defs>
	<clipPath id="SVGID_2_">
		<use xlink:href="#SVGID_1_"  style="overflow:visible;"/>
	</clipPath>
	<path class="st0" d="M1.5,1.3v65h65c7.3-20.9,7.4-44.1,0-65H1.5z"/>
	<path class="st1" d="M1.5,1.3v65h65c7.3-20.9,7.4-44.1,0-65H1.5z"/>
	<path class="st1" d="M66.5,1.3c7.4,21,7.3,44.1,0,65h65v-65H66.5z"/>
	<path class="st0" d="M108.9,12.1c-0.6,0-1.1,0.5-1.1,1.1l0,19.5c0,0.6,0.5,1.1,1.1,1.1h2c0.6,0,1.1-0.5,1.1-1.1v-5.1l3.6-3.9l5.6,9
		c0.4,0.6,0.9,1.1,1.5,1.1h3c0.6,0,0.8-0.5,0.4-1.1l-7.7-12.1l6.6-7.5c0.5-0.6,0.5-1.1-0.1-1.1h-2.9c-0.6,0-0.9-0.1-1.8,0.9
		l-8.1,8.8l0-8.6c0-0.6-0.5-1.1-1.1-1.1H108.9z M87.3,12.1c-0.6,0-1.1,0.5-1.1,1.1v19.5c0,0.6,0.5,1.1,1.1,1.1h2.1
		c0.6,0,1.1-0.5,1.1-1.1v-8.1h8.6l0,8.1c0,0.6,0.5,1.1,1.1,1.1h2.1c0.6,0,1.1-0.5,1.1-1.1V13.2c0-0.6-0.5-1.1-1.1-1.1h-2.1
		c-0.6,0-1.1,0.5-1.1,1.1v7.9h-8.6l0-7.9c0-0.6-0.5-1.1-1.1-1.1H87.3z M78.5,12.1c-0.6,0-1.1,0.5-1.1,1.1l0,19.5
		c0,0.6,0.5,1.1,1.1,1.1h2.2c0.6,0,1.1-0.5,1.1-1.1l0-19.5c0-0.6-0.5-1.1-1.1-1.1H78.5z"/>
</g>
</svg>
