<svg id="Ebene_1" xmlns="http://www.w3.org/2000/svg" xmlns:xlink="http://www.w3.org/1999/xlink" width="86" height="84.7">
  <style>
    .st1,.st2{fill:none;stroke:#ff6400;stroke-width:1.2268;stroke-linecap:round;stroke-linejoin:round;stroke-miterlimit:10}.st2{clip-path:url(#SVGID_4_)}
  </style>
  <defs>
    <path id="SVGID_1_" d="M9.8.8h72.3v83H9.8z"/>
  </defs>
  <clipPath id="SVGID_2_">
    <use xlink:href="#SVGID_1_" overflow="visible"/>
  </clipPath>
  <circle cx="70.8" cy="48.1" r="10.8" clip-path="url(#SVGID_2_)" fill="none" stroke="#ff6400" stroke-width="1.23" stroke-linecap="round" stroke-linejoin="round" stroke-miterlimit="10"/>
  <path class="st1" d="M78 56.7v12.4l-7.2-4.3-7.3 4.3V56.7"/>
  <g>
    <defs>
      <path id="SVGID_3_" d="M9.8.8h72.3v83H9.8z"/>
    </defs>
    <clipPath id="SVGID_4_">
      <use xlink:href="#SVGID_3_" overflow="visible"/>
    </clipPath>
    <path class="st2" d="M40.4 38.2h.1c16.3-.1 14-22.6 14-22.6 0-.9-.1-1.8-.1-2.6-1.8-15.5-26.4-15.3-27.9.1-.1.8-.1 1.6-.1 2.4 0 .1-2.3 22.5 14 22.7"/>
    <path class="st2" d="M57.8 41.6a45.1 45.1 0 0 0-34.6 0c-6.7 2.8-12.8 7.2-12.8 14.1v27.5h60.2V65.5"/>
  </g>
</svg>
