<?xml version="1.0" encoding="utf-8"?>
<!-- Generator: Adobe Illustrator 22.0.1, SVG Export Plug-In . SVG Version: 6.00 Build 0)  -->
<svg version="1.1" id="Ebene_1" xmlns="http://www.w3.org/2000/svg" xmlns:xlink="http://www.w3.org/1999/xlink" x="0px" y="0px"
	 width="86px" height="84.7px" viewBox="0 0 86 84.7" style="enable-background:new 0 0 86 84.7;" xml:space="preserve">
<style type="text/css">
	.st0{clip-path:url(#SVGID_2_);fill:none;stroke:#FF6400;stroke-width:1.1623;stroke-miterlimit:10;}
	
		.st1{clip-path:url(#SVGID_2_);fill:none;stroke:#FF6400;stroke-width:1.1623;stroke-linecap:round;stroke-linejoin:round;stroke-miterlimit:10;}
</style>
<g>
	<defs>
		<rect id="SVGID_1_" x="0.3" y="0.5" width="85" height="82.3"/>
	</defs>
	<clipPath id="SVGID_2_">
		<use xlink:href="#SVGID_1_"  style="overflow:visible;"/>
	</clipPath>
	<line class="st0" x1="8.5" y1="1.1" x2="62.8" y2="1.1"/>
	<path class="st1" d="M61.4,21.2H37.9 M51.7,32.6H37.9 M51.7,44H37.9 M60.6,55.4H24.5 M0.9,8.4v4.4h10.2 M84.8,74.9v-4.4H30.2v4.4
		 M70.3,8.4l0,12.2 M70.1,55.9v14.7 M77.4,82.3H22.8 M15.5,74.9V8.4 M77.4,82.3c4,0,7.3-3.3,7.3-7.3 M15.5,74.9c0,4,3.3,7.3,7.3,7.3
		c4,0,7.3-3.3,7.3-7.3 M70.3,8.4c0-4-3.3-7.3-7.3-7.3 M15.5,8.4c0-4-3.3-7.3-7.3-7.3c-4,0-7.3,3.3-7.3,7.3"/>
	<path class="st1" d="M82.8,38.6c0,7.2-5.8,13-13,13c-7.2,0-13-5.8-13-13s5.8-13,13-13C77,25.6,82.8,31.4,82.8,38.6z"/>
	<path class="st1" d="M64.2,38l5.2,5.3l7.2-7.3 M27.6,36.6c2.1,0,3.8,1.7,3.8,3.9c0,2.2-1.7,3.9-3.8,3.9h-3.8 M31.4,32.7
		c0,2.2-1.7,3.9-3.8,3.9s-3.8-1.7-3.8-3.9c0-2.2,1.7-3.9,3.8-3.9S31.4,30.5,31.4,32.7z M27.6,28.8c-2.1,0-3.8-1.7-3.8-3.9
		c0-2.2,1.7-3.9,3.8-3.9h3.8"/>
</g>
</svg>
