<svg id="Ebene_1" xmlns="http://www.w3.org/2000/svg" width="86" height="84.7">
  <style>
    .st0{fill:#ff6400}
  </style>
  <path class="st0" d="M32.2 8.3a23.24 23.24 0 1 0 0 46.5 23.22 23.22 0 0 0 23.3-23.3c0-6.3-2.4-12.1-6.8-16.5-4.4-4.3-10.3-6.7-16.5-6.7zM47.7 47c-4.1 4.1-9.6 6.4-15.5 6.4S20.9 51.2 16.8 47a21.9 21.9 0 0 1 0-30.9c4.1-4.1 9.6-6.4 15.5-6.4 5.8 0 11.3 2.3 15.5 6.4 4.1 4.1 6.4 9.6 6.4 15.5-.1 5.8-2.4 11.3-6.5 15.4z"/>
  <path class="st0" d="M77 82.6c.8.8 2 1.3 3.2 1.3 1.2 0 2.3-.5 3.2-1.3 1.7-1.7 1.7-4.6 0-6.3l-16-16a4.53 4.53 0 0 0-5.7-.5l-.1.1-7.1-7.1.1-.1c5.5-5.8 8.5-13.5 8.4-21.5A30.72 30.72 0 0 0 32.2.8 30.72 30.72 0 0 0 1.4 31.6a30.72 30.72 0 0 0 30.8 30.8c7.9 0 15.4-3 21.1-8.4l.1-.1 7.1 7.1c-1.2 1.8-1 4.1.5 5.7l16 15.9zM62 61.3c.6-.6 1.3-.9 2.2-.9.8 0 1.6.3 2.2.9l16 16c1.2 1.2 1.2 3.1 0 4.3-.6.6-1.4.9-2.2.9-.8 0-1.6-.3-2.2-.9l-16-16a3.02 3.02 0 0 1 0-4.3zm-9-9C47.5 57.9 40.1 61 32.2 61c-7.8 0-15.2-3.1-20.8-8.6-5.6-5.6-8.6-12.9-8.6-20.8s3.1-15.2 8.6-20.8a29.44 29.44 0 0 1 41.6 0 29.27 29.27 0 0 1 0 41.5z"/>
  <path class="st0" d="M21.1 38.1h-2.8c-.4 0-.7.3-.7.7s.3.7.7.7h28.2c.4 0 .7-.3.7-.7s-.3-.7-.7-.7h-2.8v-17c0-.4-.3-.7-.7-.7-.4 0-.7.3-.7.7V38h-5.7v-6.4c0-.4-.3-.7-.7-.7s-.7.3-.7.7V38h-5.7V24.7c0-.4-.3-.7-.7-.7s-.7.3-.7.7v13.4h-5.7v-6.4c0-.4-.3-.7-.7-.7s-.7.3-.7.7v6.4z"/>
</svg>
