<svg xmlns="http://www.w3.org/2000/svg" width="117" height="54.7">
  <path d="M115.5 8.1h-37l.7-1.9c.8-2.2.8-4.4.8-4.6 0-.4-.3-.8-.8-.8H50c-.1 0-.3 0-.4.1L37.4 8H1.5c-.4 0-.7.3-.7.7v32c0 .4.3.7.8.7h18.8c.4 0 .8-.3.8-.7v-4.4h3.7l23.8 15c.8.7 4 2.5 7.9 2.5 1.1 0 2.2-.1 3-.3 6.5-1.5 17.4-5 20.4-6l.7-.2.6.4c1.4.8 2.6 1.4 3.9 1.4 1.8 0 3.4-.7 4.3-2 .8-1 1.3-2.2 1.3-3.4 0-1.4-.5-2.9-1.6-4.2l-1-1.3 3.5-2.4h4.1v5c0 .4.3.8.8.8h18.8c.4 0 .8-.3.8-.8v-32c0-.4-.3-.7-.7-.7zm-.7 1.5V40H97.7V9.6h17.1zM76.5 42c-.1.1-.2.3-.2.5s.1.4.2.5l1.3 1.3 1.7 1.6-2.5.9c-1.9.6-11.8 3.9-17.7 5.2-.8.2-1.8.3-2.7.3-4.3 0-7-2.3-7.1-2.3l-24-15.1c-.1-.1-.4-.1-.5-.1h-4V9.6h16.6c.1 0 .3 0 .4-.1l12.2-7.2h28.1L78 4c-.3 1.5-.9 2.8-1.9 3.9L76 8l-.2.1c-.1 0-.1 0-.1.1h-.1l-.2.2c-1.4.9-2.8 1.4-4.4 1.4H58.9c-.1 0-.3 0-.4.1L34.1 25.1c-.3.2-.4.6-.3 1.1 0 0 2.3 4.2 6.4 5.2 2.2.5 4.5.1 6.6-1.3l10.5-6.2h12.4l1.8 1.8c.1.1 10.2 9 14.9 13.3l1.2 1c2.3 2.1 2.1 4.5.9 6-1.8 2.1-4.5 1.6-6.2.2-1.2-.9-2.7-2.3-4.6-4.2-.3-.2-.4-.2-.6-.2-.3 0-.5.1-.6.2zm10.4-4.9l-.8-.7c-2-1.8-4.6-4.1-6.8-6.2-1.7-1.5-3.3-3-4.5-4L72 23.7h7.1c.4 0 .8-.3.8-.7 0-.4-.3-.8-.8-.8H57.3c-.1 0-.3 0-.4.1l-10.8 6.5c-1.8 1.2-3.7 1.6-5.4 1.2-1.2-.3-2.5-1-4-2.4l-1.3-1.4L59 11.4h12c2.1 0 3.8-.5 5.1-1.5l.4-.3h19.2v24.6h-4.3c-.1 0-.3 0-.4.1l-4.1 2.8zm-84.5 3V9.6h17.1v30.5H2.4z" fill="#ff6400"/>
</svg>
