<svg id="Ebene_1" xmlns="http://www.w3.org/2000/svg" viewBox="0 0 990 410">
  <style>
    .st1{fill:none;stroke:#818b95;stroke-linejoin:round;stroke-miterlimit:10}.st3{fill:#fff}.st5{fill:none;stroke:#ff6400;stroke-linejoin:round;stroke-miterlimit:10}.st6{fill:#ffbd93}.st7{fill:#fde7d8}.st8{fill:none;stroke:#818b95;stroke-width:2.5;stroke-linejoin:round;stroke-miterlimit:10}
  </style>
  <linearGradient id="SVGID_1_" gradientUnits="userSpaceOnUse" x1="211.31" y1="173.13" x2="211.31" y2="314.41">
    <stop offset="0" stop-color="#eceeef"/>
    <stop offset=".09" stop-color="#eff1f2"/>
    <stop offset=".53" stop-color="#fbfbfc"/>
    <stop offset=".99" stop-color="#fff"/>
    <stop offset="1" stop-color="#fff"/>
  </linearGradient>
  <path d="M228.7 212.93a39 39 0 0 0-76.48-10.73 65.14 65.14 0 0 0-45.14-18.1 65.23 65.23 0 0 0-50.2 23.51A39 39 0 0 0-18 222.93c0 21.54 7.38 159.16 7.38 159.16l439-15s12.25-138.12 12.25-159.66a39 39 0 0 0-75.3-14.25 26.49 26.49 0 0 0-52.62 4.33" fill="url(#SVGID_1_)"/>
  <path class="st1" d="M559.54 108.47L674.36 6.77l114.1 163.03m-14.21 128.66l-201.2-53.9m215.4-74.76L674.35 6.77"/>
  <linearGradient id="SVGID_2_" gradientUnits="userSpaceOnUse" x1="764.44" y1="303.44" x2="804.24" y2="391.01">
    <stop offset="0" stop-color="#ffe0cc"/>
    <stop offset="1" stop-color="#fff"/>
  </linearGradient>
  <path fill="url(#SVGID_2_)" d="M792.6 405l-206.34-50.33 189.54-56.6 206.35 41.12z"/>
  <path class="st3" d="M738.3 218.94l25.38-7.34-.13-57.63-79.2-21.22-16.84 4.87-.02-9.39-79.2-21.22-85.19 24.63.02 9.62-17.28-4.63-85.19 24.62.13 57.63 25.25 6.77-25.38 7.34.13 57.62 79.2 21.22 16.85-4.87.02 9.4 79.2 21.21 85.18-24.62-.02-9.62 17.28 4.63 85.19-24.63-.13-57.63z"/>
  <path fill="none" stroke="#ff6400" stroke-width="5" stroke-linejoin="round" stroke-miterlimit="10" d="M738.3 218.94l25.38-7.34-.13-57.63-79.2-21.22-16.84 4.87-.02-9.39-79.2-21.22-85.19 24.63.02 9.62-17.28-4.63-85.19 24.62.13 57.63 25.25 6.77-25.38 7.34.13 57.62 79.2 21.22 16.85-4.87.02 9.4 79.2 21.21 85.18-24.62-.02-9.62 17.28 4.63 85.19-24.63-.13-57.63z"/>
  <path class="st3" d="M503.1 203.37l85.19-24.63 79.2 21.22-85.2 24.63z"/>
  <path class="st5" d="M503.1 203.37l85.19-24.63 79.2 21.22-85.2 24.63z"/>
  <path class="st3" d="M667.49 199.96l.12 57.63-85.18 24.63-.13-57.63z"/>
  <path class="st5" d="M667.49 199.96l.12 57.63-85.18 24.63-.13-57.63z"/>
  <path class="st3" d="M582.3 224.59l.13 57.63-79.2-21.22-.13-57.63z"/>
  <path class="st5" d="M582.3 224.59l.13 57.63-79.2-21.22-.13-57.63z"/>
  <path class="st6" d="M684.35 204.48l79.2 21.22-85.18 24.63-79.2-21.22z"/>
  <path class="st5" d="M684.35 204.48l79.2 21.22-85.18 24.63-79.2-21.22z"/>
  <path class="st7" d="M763.55 225.7l.13 57.63-85.18 24.63-.13-57.63z"/>
  <path class="st5" d="M763.55 225.7l.13 57.63-85.18 24.63-.13-57.63z"/>
  <path class="st3" d="M678.37 250.33l.12 57.63-79.2-21.22-.12-57.63z"/>
  <path class="st5" d="M678.37 250.33l.12 57.63-79.2-21.22-.12-57.63z"/>
  <path class="st6" d="M400.65 232.98l85.19-24.62 79.2 21.22-85.19 24.63z"/>
  <path class="st5" d="M400.65 232.98l85.19-24.62 79.2 21.22-85.19 24.63z"/>
  <path class="st7" d="M565.04 229.58l.13 57.63-85.2 24.62-.12-57.62z"/>
  <path class="st5" d="M565.04 229.58l.13 57.63-85.2 24.62-.12-57.62z"/>
  <path class="st3" d="M479.85 254.2l.13 57.63-79.2-21.22-.13-57.63z"/>
  <path class="st5" d="M479.85 254.2l.13 57.63-79.2-21.22-.13-57.63z"/>
  <path class="st6" d="M496.72 258.73l85.18-24.63 79.2 21.22-85.18 24.63z"/>
  <path class="st5" d="M496.72 258.73l85.18-24.63 79.2 21.22-85.18 24.63z"/>
  <path class="st7" d="M661.1 255.32l.13 57.63-85.19 24.62-.12-57.62z"/>
  <path class="st5" d="M661.1 255.32l.13 57.63-85.19 24.62-.12-57.62z"/>
  <path class="st3" d="M575.92 279.95l.13 57.62-79.2-21.22-.13-57.63z"/>
  <path class="st5" d="M575.92 279.95l.13 57.62-79.2-21.22-.13-57.63z"/>
  <path class="st3" d="M503.1 131.64L588.3 107l79.2 21.22-85.2 24.63z"/>
  <path class="st5" d="M503.1 131.64L588.3 107l79.2 21.22-85.2 24.63z"/>
  <path class="st7" d="M667.49 128.23l.12 57.63-85.18 24.63-.13-57.63z"/>
  <path class="st5" d="M667.49 128.23l.12 57.63-85.18 24.63-.13-57.63z"/>
  <path class="st3" d="M582.3 152.86l.13 57.63-79.2-21.23-.13-57.62z"/>
  <path class="st5" d="M582.3 152.86l.13 57.63-79.2-21.23-.13-57.62z"/>
  <path class="st3" d="M684.35 132.75l79.2 21.22-85.18 24.63-79.2-21.22z"/>
  <path class="st5" d="M684.35 132.75l79.2 21.22-85.18 24.63-79.2-21.22z"/>
  <path class="st7" d="M763.55 153.97l.13 57.63-85.18 24.63-.13-57.63z"/>
  <path class="st5" d="M763.55 153.97l.13 57.63-85.18 24.63-.13-57.63z"/>
  <path class="st3" d="M678.37 178.6l.12 57.63L599.3 215l-.12-57.63z"/>
  <path class="st5" d="M678.37 178.6l.12 57.63L599.3 215l-.12-57.63z"/>
  <path class="st3" d="M400.65 161.25l85.19-24.62 79.2 21.22-85.19 24.63z"/>
  <path class="st5" d="M400.65 161.25l85.19-24.62 79.2 21.22-85.19 24.63z"/>
  <path class="st7" d="M565.04 157.85l.13 57.63-85.2 24.62-.12-57.63z"/>
  <path class="st5" d="M565.04 157.85l.13 57.63-85.2 24.62-.12-57.63z"/>
  <path class="st3" d="M479.85 182.47l.13 57.63-79.2-21.22-.13-57.63z"/>
  <path class="st5" d="M479.85 182.47l.13 57.63-79.2-21.22-.13-57.63z"/>
  <path class="st3" d="M496.72 187l85.18-24.63 79.2 21.22-85.18 24.63z"/>
  <path class="st5" d="M496.72 187l85.18-24.63 79.2 21.22-85.18 24.63z"/>
  <path class="st7" d="M661.1 183.59l.13 57.63-85.19 24.62-.12-57.62z"/>
  <path class="st5" d="M661.1 183.59l.13 57.63-85.19 24.62-.12-57.62z"/>
  <path class="st3" d="M575.92 208.22l.13 57.62-79.2-21.22-.13-57.63z"/>
  <path class="st5" d="M575.92 208.22l.13 57.62-79.2-21.22-.13-57.63z"/>
  <path class="st1" d="M489.8 61.62l114.09 163.03-13.85-3.7-.36 132.37-201.2-53.91.36-132.38-13.85-3.71 114.8-101.7zm0 0L674.6 6.43l114.1 163.03-184.82 55.2-114.1-163.04zm285.06 111.99l-.36 124.52-184.82 55.19.36-132.38"/>
  <path class="st8" d="M788.7 169.46L674.62 6.43 489.8 61.62 375 163.32l13.85 3.71-.36 132.38 201.2 53.9 184.82-55.18.36-124.52-.15.03z"/>
  <linearGradient id="SVGID_3_" gradientUnits="userSpaceOnUse" x1="255.15" y1="364.37" x2="401.38" y2="364.37">
    <stop offset="0" stop-color="#e6e8ea"/>
    <stop offset=".2" stop-color="#eff1f2"/>
    <stop offset=".59" stop-color="#fbfbfc"/>
    <stop offset=".99" stop-color="#fff"/>
    <stop offset="1" stop-color="#fff"/>
  </linearGradient>
  <path fill="url(#SVGID_3_)" d="M367.67 385.36L255.15 345.6l11.1-2.21 135.13 41.22z"/>
  <linearGradient id="SVGID_4_" gradientUnits="userSpaceOnUse" x1="202.2" y1="212.98" x2="330.9" y2="212.98">
    <stop offset="0" stop-color="#e6e8ea"/>
    <stop offset=".2" stop-color="#eff1f2"/>
    <stop offset=".59" stop-color="#fbfbfc"/>
    <stop offset=".99" stop-color="#fff"/>
    <stop offset="1" stop-color="#fff"/>
  </linearGradient>
  <path d="M330.79 231.1a46 46 0 0 1-70.08 35.92 38.87 38.87 0 0 1-42.36-65.08 41.65 41.65 0 0 1 81.4-17.59 46.01 46.01 0 0 1 31.04 46.75" fill="url(#SVGID_4_)"/>
  <linearGradient id="SVGID_5_" gradientUnits="userSpaceOnUse" x1="202.2" y1="212.98" x2="330.9" y2="212.98">
    <stop offset="0" stop-color="#e6e8ea"/>
    <stop offset=".2" stop-color="#eff1f2"/>
    <stop offset=".59" stop-color="#fbfbfc"/>
    <stop offset=".99" stop-color="#fff"/>
    <stop offset="1" stop-color="#fff"/>
  </linearGradient>
  <path d="M330.79 231.1a46 46 0 0 1-70.08 35.92 38.87 38.87 0 0 1-42.36-65.08 41.65 41.65 0 0 1 81.4-17.59 46.01 46.01 0 0 1 31.04 46.75z" fill="url(#SVGID_5_)"/>
  <path class="st3" d="M278.73 198.78l-19.35 52.91-25.25-21.6 23.72 29.79-1.02 83.83h8.67l-1.02-84.45z"/>
  <path fill="none" stroke="#818b95" stroke-width="4" stroke-linejoin="round" stroke-miterlimit="10" d="M278.73 198.78l-19.35 52.91-25.25-21.6 23.72 29.79-1.02 83.83h8.67l-1.02-84.45z"/>
  <path d="M330.79 231.1a46 46 0 0 1-70.08 35.92 38.87 38.87 0 0 1-42.36-65.08 41.65 41.65 0 0 1 81.4-17.59 46.01 46.01 0 0 1 31.04 46.75" fill="#f5f7f8"/>
  <path class="st8" d="M330.79 231.1a46 46 0 0 1-70.08 35.92 38.87 38.87 0 0 1-42.36-65.08 41.65 41.65 0 0 1 81.4-17.59 46.01 46.01 0 0 1 31.04 46.75z"/>
  <path class="st3" d="M280.15 215.78l-20.77 35.91-18.16-9.56 16.63 17.75-1.01 83.83h8.66l-1.02-84.45z"/>
  <path class="st1" d="M280.15 215.78l-20.77 35.91-18.16-9.56 16.63 17.75-1.01 83.83h8.66l-1.02-84.45z"/>
</svg>
