<?xml version="1.0" encoding="utf-8"?>
<!-- Generator: Adobe Illustrator 22.0.1, SVG Export Plug-In . SVG Version: 6.00 Build 0)  -->
<svg version="1.1" id="Ebene_1" xmlns="http://www.w3.org/2000/svg" xmlns:xlink="http://www.w3.org/1999/xlink" x="0px" y="0px"
	 width="175.3px" height="46.7px" viewBox="0 0 175.3 46.7" style="enable-background:new 0 0 175.3 46.7;" xml:space="preserve">
<style type="text/css">
	.st0{fill:#FFFFFF;}
	.st1{clip-path:url(#SVGID_2_);fill:#FFFFFF;}
</style>
<g>
	<polygon class="st0" points="24.5,0.7 17.5,13.9 14.8,0.7 4.7,0.7 1,23.6 8.7,23.6 10.5,10.1 12.9,23.6 18.8,23.6 25.8,10.1 
		23.2,23.6 31,23.6 34.6,0.7 	"/>
	<polygon class="st0" points="8.6,31 4.5,40 3.3,31 1.4,31 3.2,42.2 5,42.2 10.5,31 	"/>
	<g>
		<defs>
			<rect id="SVGID_1_" x="1" y="0.2" width="173.3" height="45.8"/>
		</defs>
		<clipPath id="SVGID_2_">
			<use xlink:href="#SVGID_1_"  style="overflow:visible;"/>
		</clipPath>
		<path class="st1" d="M14.6,38.4c0.3-1.6,0.2-2.5-1.3-2.5c-1.5,0-1.8,0.9-2.1,2.5C11,40,11,40.9,12.5,40.9S14.4,40,14.6,38.4
			 M9.5,38.4c0.4-2.3,1.3-3.9,4.1-3.9c2.8,0,3.2,1.6,2.8,3.9c-0.4,2.3-1.3,3.9-4.1,3.9S9.1,40.7,9.5,38.4"/>
		<path class="st1" d="M18,40.3l1.5-9.3h1.7l-1.5,9.3c-0.1,0.4,0.1,0.6,0.6,0.6l-0.2,1.3c0,0-0.2,0-0.3,0
			C18.3,42.2,17.8,41.6,18,40.3"/>
		<path class="st1" d="M22.3,40.3l1.5-9.3h1.7L24,40.3c-0.1,0.4,0.1,0.6,0.6,0.6l-0.2,1.3c0,0-0.2,0-0.3,0
			C22.6,42.2,22.1,41.6,22.3,40.3"/>
		<path class="st1" d="M28.4,37.9h3.1c0.2-1,0.2-1.9-1.1-1.9C29.1,36,28.6,36.8,28.4,37.9 M30.6,34.5c2.7,0,2.9,1.7,2.5,3.8
			c0,0.3-0.1,0.5-0.2,0.7h-4.8c-0.2,1.1,0.1,1.8,1.7,1.8c1,0,1.8-0.2,2.5-0.4l-0.2,1.4c-0.9,0.4-2,0.5-2.8,0.5
			c-2.6,0-3.3-1.5-2.9-3.9C26.9,36,28.1,34.5,30.6,34.5"/>
		<path class="st1" d="M40,36C39.8,36,39.5,36,39.1,36c-0.9,0-1.6,0.2-2.1,0.4l-0.9,5.7h-1.7l1.2-7.4h1l0.2,0.6
			c0.6-0.4,1.6-0.8,2.6-0.8c0.3,0,0.6,0,0.8,0.1L40,36z"/>
	</g>
	<polygon class="st0" points="51.3,37.1 46.4,37.1 45.9,40.6 51.2,40.6 50.9,42.1 43.9,42.1 45.7,31 52.8,31 52.5,32.5 47.2,32.5 
		46.7,35.6 51.5,35.6 	"/>
	<g>
		<path class="st0" d="M57.6,42.1l0.8-5.1c0.1-0.8-0.2-1.1-1-1.1c-0.8,0-1.4,0.2-1.9,0.4l-1,5.8h-1.7l1.2-7.4h1l0.2,0.6
			c0.9-0.5,1.8-0.8,2.6-0.8c2,0,2.5,0.9,2.3,2.4l-0.9,5.2H57.6z"/>
		<path class="st0" d="M63.5,37.9h3.1c0.2-1,0.3-1.9-1.1-1.9C64.3,36,63.8,36.8,63.5,37.9 M65.8,34.5c2.7,0,2.9,1.7,2.5,3.8
			c0,0.3-0.1,0.5-0.2,0.7h-4.8c-0.2,1.1,0.1,1.8,1.7,1.8c1,0,1.8-0.2,2.5-0.4l-0.2,1.4c-0.9,0.4-2,0.5-2.8,0.5
			c-2.6,0-3.3-1.5-2.9-3.9C62.1,36,63.2,34.5,65.8,34.5"/>
		<path class="st0" d="M75.1,36C74.9,36,74.6,36,74.3,36c-0.9,0-1.6,0.2-2.1,0.4l-0.9,5.7h-1.7l1.2-7.4h1l0.2,0.6
			c0.6-0.4,1.6-0.8,2.6-0.8c0.3,0,0.6,0,0.8,0.1L75.1,36z"/>
		<path class="st0" d="M78.8,38.8c1.3,0,1.7-0.6,1.8-1.5c0.1-0.8,0-1.5-1.4-1.5c-1.3,0-1.7,0.6-1.8,1.5
			C77.4,38.2,77.5,38.8,78.8,38.8 M77.7,42.3c-0.8,0.1-1.6,0.5-1.7,1.2c-0.1,0.8,0.4,1.2,1.9,1.2c1.4,0,2.6-0.4,2.8-1.3
			c0.1-0.5-0.1-0.7-0.8-0.8L77.7,42.3z M78.6,40.2c-0.3,0-0.6,0-0.9-0.1c-0.1,0.1-0.3,0.3-0.3,0.4c0,0.2,0.1,0.4,0.4,0.4l2.8,0.3
			c1.5,0.2,1.9,0.8,1.7,2.1C82,45.3,79.8,46,77.5,46c-2.1,0-3.5-0.6-3.2-2.2c0.2-1,1.1-1.6,1.9-1.8l0,0c-0.4-0.2-0.5-0.6-0.4-1
			c0.1-0.5,0.5-0.9,0.9-1.2c-0.8-0.5-1-1.3-0.8-2.4c0.3-1.7,1.3-2.8,3.7-2.8c0.6,0,1,0.1,1.4,0.2h2.7l-0.2,1l-1.2,0.3
			c0.1,0.4,0.1,0.8,0,1.3C82.1,39,81,40.2,78.6,40.2"/>
		<path class="st0" d="M84.3,40.3l0.9-5.6h1.7L86,40.3c-0.1,0.4,0.1,0.6,0.6,0.6l-0.2,1.3c0,0-0.2,0-0.3,0
			C84.6,42.2,84.1,41.6,84.3,40.3 M86.6,31.4c0.6,0,1,0.5,1,1.1c-0.1,0.6-0.7,1.1-1.3,1.1c-0.6,0-1.1-0.5-1-1.1
			C85.4,31.9,86,31.4,86.6,31.4"/>
		<path class="st0" d="M90.3,37.9h3.1c0.2-1,0.2-1.9-1.1-1.9C91.1,36,90.6,36.8,90.3,37.9 M92.6,34.5c2.7,0,2.9,1.7,2.5,3.8
			c0,0.3-0.1,0.5-0.1,0.7h-4.8c-0.2,1.1,0.2,1.8,1.7,1.8c1,0,1.8-0.2,2.5-0.4l-0.2,1.4c-0.9,0.4-2,0.5-2.8,0.5
			c-2.6,0-3.3-1.5-2.9-3.9C88.9,36,90,34.5,92.6,34.5"/>
		<path class="st0" d="M47.8,5.5c-3.1,0-4.4,1.5-5.2,6.6c-0.8,5.1,0,6.6,3.1,6.6c3.1,0,4.4-1.5,5.2-6.6C51.8,7.1,51,5.5,47.8,5.5
			 M48.7,0.2c9.8,0,11.3,4.7,10.2,12c-1.2,7.2-4.1,12-14,12c-9.9,0-11.4-4.7-10.2-12C35.9,4.9,38.9,0.2,48.7,0.2"/>
	</g>
	<polygon class="st0" points="76.6,12.6 70.1,0.7 62.6,0.7 59,23.6 66.8,23.6 68.3,11.7 74.7,23.6 82.2,23.6 85.9,0.7 78.1,0.7 	"/>
	<polygon class="st0" points="87.4,0.7 86.6,6 92.9,6 90,23.6 98.3,23.6 101,6 107.8,6 110.4,0.7 	"/>
	<path class="st0" d="M116.9,6.3l0.5,8.7h-3.9L116.9,6.3z M112.6,0.7l-11,22.9h8.2l1.8-4.2h6.3l0.5,4.2h8.2l-3.7-22.9H112.6z"/>
	<polygon class="st0" points="145.5,0.7 143.9,12.6 137.5,0.7 130,0.7 126.3,23.6 134.1,23.6 135.6,11.7 142.1,23.6 149.6,23.6 
		153.3,0.7 	"/>
	<path class="st0" d="M164.7,6.3l0.5,8.7h-3.9L164.7,6.3z M160.4,0.7l-11,22.9h8.2l1.8-4.2h6.3l0.5,4.2h8.2l-3.7-22.9H160.4z"/>
</g>
</svg>
