<?xml version="1.0" encoding="UTF-8"?>
<svg width="175px" height="93px" viewBox="0 0 175 93" version="1.1" xmlns="http://www.w3.org/2000/svg" xmlns:xlink="http://www.w3.org/1999/xlink">
    <!-- Generator: Sketch 49.3 (51167) - http://www.bohemiancoding.com/sketch -->
    <title>persoenlich</title>
    <desc>Created with Sketch.</desc>
    <defs>
        <polygon id="path-1" points="0.337474943 0.992933812 114.140969 0.992933812 114.140969 63 0.337474943 63"></polygon>
    </defs>
    <g id="Page-1" stroke="none" stroke-width="1" fill="none" fill-rule="evenodd">
        <g id="persoenlich" transform="translate(0.000000, 1.000000)">
            <g id="Group-3" transform="translate(28.000000, 28.159200)">
                <mask id="mask-2" fill="white">
                    <use xlink:href="#path-1"></use>
                </mask>
                <g id="Clip-2"></g>
                <polygon id="Fill-1" fill="#EAEDF1" mask="url(#mask-2)" points="114.140969 36.9688047 89.8961385 0.992933812 18.591387 11.4854318 29.1075491 14.2773466 0.337474943 43.0474208 29.6880963 50.911895 45.9861849 34.6138063 61.7491281 38.8374736 45.4510394 55.1355622 74.8026267 63.0002952 81.6179238 56.1849981 103.625773 34.1771487"></polygon>
            </g>
            <path d="M60.3204594,56.3887051 L1.34600914,40.5875863 C0.69111145,40.4121071 0.480148435,39.9580337 0.741517391,39.5300994 L11.4794815,25.8025333 C11.7930162,25.4889986 12.3683168,25.2456038 13.0503983,25.2285587 L44.4591445,25.391284 L45.9484343,23.9019942 C42.5877352,19.6202857 44.1711253,12.885619 49.8171992,7.23954503 C55.6208571,1.4358872 68.1899289,-1.16253723 77.887824,1.43600553 C87.585719,4.03454829 90.7428851,10.8468049 84.9400438,16.6496462 C79.2939698,22.2957202 69.4530295,26.8188186 60.8901911,27.90459 L59.3991188,29.3944374 L77.7914256,42.5748268 C78.1573736,42.8726906 78.1065707,43.2566241 77.793036,43.5701587 L62.3366738,56.0344694 C61.8133895,56.3911884 60.9753571,56.5641844 60.3204594,56.3887051 Z" id="Stroke-4" stroke="#46505A"></path>
            <polygon id="Stroke-6" stroke="#FF6400" stroke-width="0.333" points="119.828057 17.4843029 99.6703086 37.6347026 106.966016 39.5833696 102.047648 44.4833659 116.296859 42.0835615 154.472178 52.3126073 174.625027 32.1671066"></polygon>
        </g>
    </g>
</svg>