<?xml version="1.0" encoding="UTF-8"?>
<svg width="86px" height="83px" viewBox="0 0 86 83" version="1.1" xmlns="http://www.w3.org/2000/svg" xmlns:xlink="http://www.w3.org/1999/xlink">
    <!-- Generator: Sketch 50 (54983) - http://www.bohemiancoding.com/sketch -->
    <title>rechtssicher</title>
    <desc>Created with Sketch.</desc>
    <defs></defs>
    <g id="rechtssicher" stroke="none" stroke-width="1" fill="none" fill-rule="evenodd">
        <path d="M8.294,0.65 L62.94,0.65" id="Stroke-1" stroke="#FF6400" stroke-width="1.3"></path>
        <path d="M15.3634,8.0678 C15.3634,4.0068 12.0694,0.7148 8.0064,0.7148 C3.9434,0.7148 0.6504,4.0068 0.6504,8.0678 M70.4644,8.0678 C70.4644,4.0068 67.1704,0.7148 63.1074,0.7148 M15.3634,74.8668 C15.3634,78.9278 18.6574,82.2198 22.7204,82.2198 C26.7834,82.2198 30.0764,78.9278 30.0764,74.8668 M77.5834,82.2198 C81.6464,82.2198 84.9404,78.9278 84.9404,74.8668 M15.3634,74.8668 L15.3634,8.0678 M77.5834,82.2198 L22.7204,82.2198 M70.2514,55.7678 L70.2514,70.4888 M70.4644,8.0678 L70.4144,20.3418 M84.9404,74.8668 L84.9404,70.4888 L30.0764,70.4888 L30.0764,74.8668 M0.6504,8.0678 L0.6504,12.4448 L10.8744,12.4448 M60.6874,55.3008 L24.3414,55.3008 M51.7104,43.8348 L37.8074,43.8348 M51.7104,32.3698 L37.8074,32.3698 M61.4864,20.9038 L37.8074,20.9038" id="Stroke-3" stroke="#FF6400" stroke-width="1.3" stroke-linecap="round" stroke-linejoin="round"></path>
        <path d="M83.01,38.3781 C83.01,45.5441 77.196,51.3531 70.024,51.3531 C62.852,51.3531 57.039,45.5441 57.039,38.3781 C57.039,31.2121 62.852,25.4031 70.024,25.4031 C77.196,25.4031 83.01,31.2121 83.01,38.3781 Z" id="Stroke-5" stroke="#FF6400" stroke-width="1.3" stroke-linecap="round" stroke-linejoin="round"></path>
        <path d="M27.514,28.5421 C25.392,28.5421 23.671,26.7941 23.671,24.6371 C23.671,22.4801 25.392,20.7321 27.514,20.7321 L31.357,20.7321 L27.514,28.5421 Z M31.357,32.4471 C31.357,34.6041 29.636,36.3521 27.514,36.3521 C25.392,36.3521 23.671,34.6041 23.671,32.4471 C23.671,30.2901 25.392,28.5421 27.514,28.5421 C29.636,28.5421 31.357,30.2901 31.357,32.4471 Z M27.514,36.3521 C29.636,36.3521 31.357,38.1001 31.357,40.2571 C31.357,42.4141 29.636,44.1621 27.514,44.1621 L23.671,44.1621 L27.514,36.3521 Z M64.314,37.7431 L69.496,43.0081 L76.69,35.6971 L64.314,37.7431 Z" id="Stroke-7" stroke="#FF6400" stroke-width="1.3" stroke-linecap="round" stroke-linejoin="round"></path>
    </g>
</svg>