<?xml version="1.0" encoding="UTF-8"?>
<svg width="222px" height="81px" viewBox="0 0 222 81" version="1.1" xmlns="http://www.w3.org/2000/svg" xmlns:xlink="http://www.w3.org/1999/xlink">
    <!-- Generator: Sketch 49.3 (51167) - http://www.bohemiancoding.com/sketch -->
    <title>regional</title>
    <desc>Created with Sketch.</desc>
    <defs></defs>
    <g id="Page-1" stroke="none" stroke-width="1" fill="none" fill-rule="evenodd">
        <g id="regional">
            <path d="M115.318398,77.4370878 C147.798619,86.1401354 190.744645,76.5806521 211.239526,56.0857709 C231.734408,35.5908898 222.01816,11.9205945 189.537939,3.21754681 C157.056752,-5.4857597 114.111691,4.07398249 93.61681,24.5688636 C73.1219288,45.0637448 82.8372109,68.7337812 115.318398,77.4370878" id="Fill-1" fill="#EAEDF1"></path>
            <path d="M149.347371,42.6994777 C152.102191,43.4376294 155.714474,42.6569562 157.416053,40.9553773 C159.117632,39.2537984 158.263474,37.2763461 155.508654,36.5381943 C152.753833,35.8000425 149.14155,36.5807158 147.439971,38.2822947 C145.738392,39.9838736 146.59255,41.9613259 149.347371,42.6994777" id="Fill-3" fill="#FF6400"></path>
            <polygon id="Stroke-5" stroke="#46505A" points="62.8150693 36.1215353 65.8708976 34.8097435 60.5051301 29.0217602 59.7405253 24.295834 41.8276725 14.4853635 38.9187485 10.1621695 42.7436626 9.22520363 48.3130072 11.5125969 58.5872514 18.4460171 68.6024402 22.5582596 76.4906117 31.1661759 84.0155261 35.8617651 94.1449175 38.5138104 102.475125 37.8419326 107.415885 39.6948314 120.713857 43.6265698 124.563018 51.3965621 135.447312 54.7095101 144.142758 58.4795167 153.45163 60.9085987 158.092818 64.8418486 156.5968 67.9557545 148.017675 67.7130435 140.439653 70.1103951 134.476122 68.2588294 125.919195 68.9320742 120.487071 68.2478221 107.91969 69.2389156 99.8153766 64.8643041 91.4284775 57.3184981 89.5238416 52.6401307 79.2290853 47.4663601 62.6545163 39.7309696 57.4366043 37.7975967 43.1253832 36.4920968 32.3925476 33.1648622 25.8622604 32.9566035 9.30236395 36.2684354 0.793441166 36.0290061 1.45873916 34.7133686 8.86613604 34.0996312 22.9333385 30.8518242 24.4663521 28.2985983 17.5258917 24.9646745 16.3287388 22.6872264 19.929265 21.7884873 27.8732851 25.4379014 29.2077421 23.4567792 24.9500454 21.7009789 26.5270735 20.0333197 43.2738854 27.4556217 44.8472896 29.6299366 41.4765285 29.9670048 35.2005787 27.2190349 35.7354858 30.7270104 46.3892688 32.3610919 49.4318811 34.3203375 58.365002 35.1496574"></polygon>
        </g>
    </g>
</svg>