<?xml version="1.0" encoding="utf-8"?>
<!-- Generator: Adobe Illustrator 22.0.1, SVG Export Plug-In . SVG Version: 6.00 Build 0)  -->
<svg version="1.1" id="Ebene_1" xmlns="http://www.w3.org/2000/svg" xmlns:xlink="http://www.w3.org/1999/xlink" x="0px" y="0px"
	 width="131.9px" height="83px" viewBox="0 0 131.9 83" style="enable-background:new 0 0 131.9 83;" xml:space="preserve">
<style type="text/css">
	.st0{fill:#FF6400;}
</style>
<g>
	<path class="st0" d="M21.9,34.3c-0.1-0.1-0.3-0.2-0.5-0.2H1.4c-0.3,0-0.6,0.2-0.7,0.5c-0.1,0.3,0,0.7,0.2,0.9l18,16.8L0.9,69
		c-0.2,0.2-0.3,0.6-0.2,0.9c0.1,0.3,0.4,0.5,0.7,0.5h19.9c0.2,0,0.4-0.1,0.5-0.2l18.6-17.4c0.2-0.2,0.3-0.4,0.3-0.6
		s-0.1-0.4-0.3-0.6L21.9,34.3z M20.6,52.8c0.2-0.2,0.3-0.4,0.3-0.6s-0.1-0.4-0.3-0.6l-17.2-16H21l17.8,16.6L21,68.8H3.5L20.6,52.8z"
		/>
	<path class="st0" d="M131.2,57.3l-12.5-11.7c-0.1-0.1-0.3-0.2-0.5-0.2h-13.4c-0.3,0-0.6,0.2-0.7,0.5s0,0.7,0.2,0.9l11.9,11.1
		L104.2,69c-0.2,0.2-0.3,0.6-0.2,0.9s0.4,0.5,0.7,0.5h13.4c0.2,0,0.4-0.1,0.5-0.2l12.5-11.7c0.2-0.2,0.3-0.4,0.3-0.6
		S131.4,57.5,131.2,57.3z M117.8,58.5c0.2-0.2,0.3-0.4,0.3-0.6s-0.1-0.4-0.3-0.6l-11.1-10.3h11.1l11.7,10.9l-11.7,10.9h-11.1
		L117.8,58.5z"/>
	<path class="st0" d="M70.1,12.8c-0.1-0.1-0.3-0.2-0.5-0.2H41.8c-0.3,0-0.6,0.2-0.7,0.5c-0.1,0.3,0,0.7,0.2,0.9l25.3,23.5L41.3,61.1
		c-0.2,0.2-0.3,0.6-0.2,0.9c0.1,0.3,0.4,0.5,0.7,0.5h27.7c0.2,0,0.4-0.1,0.5-0.2L96,38.1c0.2-0.2,0.3-0.4,0.3-0.6S96.1,37.1,96,37
		L70.1,12.8z M68.3,38.1c0.2-0.2,0.3-0.4,0.3-0.6s-0.1-0.4-0.3-0.6L43.9,14.2h25.3l25,23.3l-25,23.3H43.9L68.3,38.1z"/>
</g>
</svg>
