<?xml version="1.0" encoding="utf-8"?>
<!-- Generator: Adobe Illustrator 22.0.1, SVG Export Plug-In . SVG Version: 6.00 Build 0)  -->
<svg version="1.1" id="Ebene_1" xmlns="http://www.w3.org/2000/svg" xmlns:xlink="http://www.w3.org/1999/xlink" x="0px" y="0px"
	 width="128.6px" height="83px" viewBox="0 0 128.6 83" style="enable-background:new 0 0 128.6 83;" xml:space="preserve">
<style type="text/css">
	.st0{fill:#FF6400;}
</style>
<g>
	<path class="st0" d="M70.2,34.7c-0.4,0.4-0.4,0.9,0,1.3l4.6,4.6h-26c-0.5,0-0.9,0.5-0.9,0.9c0,0.4,0.5,0.9,0.9,0.9h26l-4.7,4.7
		c-0.1,0.1-0.1,0.2-0.2,0.4c0,0.3,0.1,0.6,0.4,0.9c0.2,0.2,0.4,0.3,0.6,0.3c0.2,0,0.5-0.1,0.6-0.3l6.8-6.8l-6.8-6.8
		C71.4,34.5,70.5,34.5,70.2,34.7z"/>
	<path class="st0" d="M60.7,60.7c-0.2,0.2-0.3,0.4-0.3,0.6s0.1,0.5,0.3,0.6l4.6,4.6H54.8c-6.7,0-12.1-5.4-12.1-12.1
		c0-7.6-6.3-13.9-13.9-13.9h-6.8c-0.5,0-0.8,0.5-0.8,0.9c0,0.5,0.5,0.9,0.9,0.9h6.8c6.7,0,12.1,5.4,12.1,12.1
		c0,7.6,6.3,13.9,13.9,13.9h10.6l-4.6,4.8c-0.2,0.2-0.3,0.4-0.3,0.6s0.1,0.5,0.3,0.6c0.2,0.2,0.4,0.3,0.6,0.3c0.2,0,0.5-0.1,0.6-0.3
		l6.7-6.7l0.1-0.1l-6.8-6.8C61.9,60.4,61,60.4,60.7,60.7z"/>
	<path class="st0" d="M52.8,16.5l-4.6,4.6c-0.2,0.2-0.3,0.4-0.3,0.6c0,0.2,0.1,0.5,0.3,0.6c0.4,0.4,0.9,0.4,1.3,0l7-6.9l-6.8-6.8
		c-0.3-0.3-1.1-0.3-1.4,0C48.1,8.9,48,9.1,48,9.3c0,0.2,0.1,0.5,0.3,0.6l4.6,4.6h-24c-7.6,0-13.9,6.3-13.9,13.9
		c0,6.7-5.4,12.1-12.1,12.1H2.5c-0.5,0-0.9,0.5-0.9,0.9c0,0.4,0.5,0.9,0.9,0.9h0.4c7.6,0,13.9-6.3,13.9-13.9
		c0-6.7,5.4-12.1,12.1-12.1h23.9V16.5z"/>
	<path class="st0" d="M120.2,34.7c-0.3-0.3-1.1-0.3-1.4,0c-0.2,0.2-0.3,0.4-0.3,0.6s0.1,0.5,0.3,0.6l4.6,4.6H97.8
		c-6.7,0-12.1-5.4-12.1-12.1c0-7.6-6.3-13.9-13.9-13.9h-4.1c-0.5,0-0.9,0.5-0.9,0.9c0,0.4,0.5,0.9,0.9,0.9h4
		c6.7,0,12.1,5.4,12.1,12.1c0,7.6,6.3,13.9,13.9,13.9h5.5l-2,1.8c-2.9,2.7-4.6,6.4-4.6,10.3c0,6.7-5.4,12.1-12.1,12.1h-3.6
		c-0.5,0-0.9,0.5-0.9,0.9s0.5,0.9,0.9,0.9h3.6c7.6,0,13.9-6.3,13.9-13.9c0-6.7,5.4-12.1,12.1-12.1h12.8l-4.6,4.6
		c-0.2,0.2-0.3,0.4-0.3,0.6c0,0.2,0.1,0.5,0.3,0.6c0.4,0.4,0.9,0.4,1.3,0l7-6.8L120.2,34.7z"/>
</g>
</svg>
