<?xml version="1.0" encoding="utf-8"?>
<!-- Generator: Adobe Illustrator 22.0.1, SVG Export Plug-In . SVG Version: 6.00 Build 0)  -->
<svg version="1.1" id="Ebene_1" xmlns="http://www.w3.org/2000/svg" xmlns:xlink="http://www.w3.org/1999/xlink" x="0px" y="0px"
	 width="116.3px" height="83px" viewBox="0 0 116.3 83" style="enable-background:new 0 0 116.3 83;" xml:space="preserve">
<style type="text/css">
	.st0{fill:#FF6400;}
</style>
<path class="st0" d="M115.1,22.2h-37l0.7-1.9c0.8-2.2,0.8-4.4,0.8-4.6c0-0.4-0.3-0.8-0.8-0.8H49.6c-0.1,0-0.3,0-0.4,0.1L37,22.2H1.1
	c-0.4,0-0.8,0.3-0.8,0.7v32c0,0.4,0.3,0.7,0.8,0.7h18.8c0.4,0,0.8-0.3,0.8-0.7v-4.4h3.7l23.8,15c0.8,0.7,4,2.5,7.9,2.5
	c1.1,0,2.2-0.1,3-0.3c6.5-1.5,17.5-5.1,20.5-6.1l0.7-0.2l0.6,0.4c1.4,0.8,2.6,1.4,3.9,1.4c1.8,0,3.4-0.7,4.3-2
	c0.8-1,1.3-2.2,1.3-3.4c0-1.4-0.5-2.9-1.6-4.2l-1-1.3l3.5-2.4h4.1v5c0,0.4,0.3,0.8,0.8,0.8h18.8c0.4,0,0.8-0.3,0.8-0.8V23
	C115.8,22.6,115.5,22.2,115.1,22.2z M114.4,23.8v30.4H97.2V23.8H114.4z M76.1,56.2c-0.1,0.1-0.2,0.3-0.2,0.5c0,0.2,0.1,0.4,0.2,0.5
	c0.1,0.1,0.6,0.6,1.3,1.3l1.7,1.6L76.6,61c-1.9,0.6-11.8,3.9-17.7,5.2c-0.8,0.2-1.8,0.3-2.7,0.3c-4.3,0-7-2.3-7.1-2.3l-24-15.1
	C25,49,24.8,49,24.6,49h-4V23.8h16.6c0.1,0,0.3,0,0.4-0.1l12.2-7.2h28.1l-0.4,1.7c-0.3,1.5-0.9,2.8-1.9,3.9l-0.1,0.1l-0.2,0.1
	c-0.1,0-0.1,0-0.1,0.1c0,0,0,0-0.1,0h0L75,22.6c-1.4,0.9-2.8,1.4-4.4,1.4H58.5c-0.1,0-0.3,0-0.4,0.1L33.7,39.3
	c-0.3,0.2-0.4,0.6-0.3,1.1c0,0,2.3,4.2,6.4,5.2c2.2,0.5,4.5,0.1,6.6-1.3L56.9,38h12.4l1.8,1.8c0.1,0.1,10.2,9,14.9,13.3l1.2,1
	c2.3,2.1,2.1,4.5,0.9,6c-1.8,2.1-4.5,1.6-6.2,0.2c-1.2-0.9-2.7-2.3-4.6-4.2C76.9,56,76.8,56,76.6,56C76.4,56,76.2,56.1,76.1,56.2z
	 M86.5,51.2l-0.8-0.7c-2-1.8-4.6-4.1-6.8-6.2c-1.7-1.5-3.3-3-4.5-4l-2.8-2.5h7.1c0.4,0,0.8-0.3,0.8-0.7c0-0.4-0.3-0.8-0.8-0.8H56.9
	c-0.1,0-0.3,0-0.4,0.1L45.7,43c-1.8,1.2-3.7,1.6-5.4,1.2c-1.2-0.3-2.5-1-4-2.4l-1.3-1.4l23.5-14.9h12c2.1,0,3.8-0.5,5.1-1.5l0.4-0.3
	h19.2v24.6h-4.3c-0.1,0-0.3,0-0.4,0.1L86.5,51.2z M2,54.2V23.8h17.1v30.5H2z"/>
</svg>
