<?xml version="1.0" encoding="utf-8"?>
<!-- Generator: Adobe Illustrator 22.0.1, SVG Export Plug-In . SVG Version: 6.00 Build 0)  -->
<svg version="1.1" id="Ebene_1" xmlns="http://www.w3.org/2000/svg" xmlns:xlink="http://www.w3.org/1999/xlink" x="0px" y="0px"
	 width="85.4px" height="83.8px" viewBox="0 0 85.4 83.8" style="enable-background:new 0 0 85.4 83.8;" xml:space="preserve">
<style type="text/css">
	.st0{fill:#FF6400;}
</style>
<g>
	<path class="st0" d="M84,69.9H70.5V56.6l6.4,3.7l-0.1,0l0.1,0l0,0c0.2,0.1,0.3,0.1,0.5,0.1s0.2-0.1,0.3-0.2
		c0.2-0.1,0.4-0.3,0.4-0.7V46.3c0-0.1,0-0.1,0-0.2c2.5-2.3,4-5.5,4-9.1c0-6.9-5.6-12.4-12.4-12.4S57.1,30.1,57.1,37
		c0,3.5,1.5,6.7,3.8,8.9c-0.1,0.1-0.1,0.2-0.1,0.4v13.3c0,0.2,0.2,0.6,0.5,0.7c0.2,0.1,0.6,0.1,0.8,0l6.7-3.8v13.5H30.3
		c-0.5,0-0.8,0.4-0.8,0.8v4.3c0,3.5-2.9,6.4-6.4,6.4s-6.4-2.9-6.4-6.4V8.6c0-2.6-1.2-4.9-3.1-6.4h49.1c3.5,0,6.4,2.9,6.4,6.4v9.5
		c0,0.5,0.4,0.8,0.8,0.8s0.8-0.4,0.8-0.8V8.6c0-4.4-3.6-8-8-8H8.5c-4.4,0-8,3.6-8,8v4.3c0,0.5,0.4,0.8,0.8,0.8h9.8
		c0.5,0,0.8-0.4,0.8-0.8s-0.4-0.8-0.8-0.8h-9V8.6c0-3.5,2.9-6.4,6.5-6.4c3.5,0,6.4,2.9,6.4,6.4v66.6c0,4.4,3.6,8,8,8h53.8
		c4.4,0,8-3.6,8-8.1v-4.3C84.9,70.3,84.5,69.9,84,69.9z M62.5,47.2c2,1.4,4.4,2.2,7.1,2.2c2.5,0,4.8-0.7,6.8-2v10.7l-6.5-3.8
		c-0.2-0.1-0.6-0.1-0.8,0l-6.5,3.8V47.2z M69.5,26.3c5.8,0,10.8,4.9,10.8,10.8c0,5.9-4.8,10.8-10.8,10.8S58.8,43,58.8,37.1
		S63.6,26.3,69.5,26.3z M83.2,71.6v3.5c0,3.5-2.9,6.4-6.4,6.4H27.9c2-1.5,3.1-3.8,3.1-6.4v-3.5H83.2z"/>
	<path class="st0" d="M24.6,53.7c-0.5,0-0.8,0.4-0.8,0.8s0.4,0.8,0.8,0.8h26.8c0.5,0,0.8-0.5,0.9-0.8l0,0c0-0.5-0.4-0.8-0.8-0.8
		H24.6z"/>
	<path class="st0" d="M61.9,20.7c0-0.5-0.4-0.8-0.8-0.8H24.6c-0.5,0-0.8,0.4-0.8,0.8s0.4,0.8,0.8,0.8H61
		C61.5,21.5,61.9,21.1,61.9,20.7z"/>
	<path class="st0" d="M51.5,42.4H24.6c-0.5,0-0.8,0.4-0.8,0.8c0,0.5,0.4,0.8,0.8,0.8h26.8c0.4,0,0.9-0.3,0.9-0.8
		C52.4,42.7,52,42.4,51.5,42.4z"/>
	<path class="st0" d="M51.5,31.1H24.6c-0.5,0-0.8,0.4-0.8,0.8s0.4,0.8,0.8,0.8h26.8c0.4,0,0.9-0.3,0.9-0.8
		C52.4,31.4,52,31.1,51.5,31.1z"/>
</g>
</svg>
