<?xml version="1.0" encoding="utf-8"?>
<!-- Generator: Adobe Illustrator 22.0.1, SVG Export Plug-In . SVG Version: 6.00 Build 0)  -->
<svg version="1.1" id="Ebene_1" xmlns="http://www.w3.org/2000/svg" xmlns:xlink="http://www.w3.org/1999/xlink" x="0px" y="0px"
	 width="216.7px" height="55.2px" viewBox="0 0 216.7 55.2" style="enable-background:new 0 0 216.7 55.2;" xml:space="preserve">
<style type="text/css">
	.st0{fill:#FFFFFF;}
</style>
<g>
	<polygon class="st0" points="23.7,8.9 20.4,23.6 16.3,8.9 12.7,8.9 8.6,23.6 5.3,8.9 1,8.9 6.2,31.9 10.3,31.9 14.4,17 18.6,31.9 
		22.8,31.9 27.9,8.9 	"/>
	<g>
		<path class="st0" d="M35.1,13.1v14.5h2c2,0,3.4-0.2,4.3-0.7c0.9-0.5,1.6-1.2,2.2-2.3c0.6-1.1,0.9-2.4,0.9-4c0-2.4-0.7-4.3-2-5.7
			c-1.2-1.2-3.2-1.8-5.9-1.8H35.1z M30.7,8.9h5.1c3.3,0,5.8,0.4,7.4,1.2c1.6,0.8,2.9,2.2,4,4c1,1.9,1.6,4,1.6,6.5
			c0,1.8-0.3,3.4-0.9,4.9c-0.6,1.5-1.4,2.7-2.4,3.7c-1,1-2.1,1.7-3.3,2c-1.2,0.4-3.3,0.6-6.2,0.6h-5.2V8.9z"/>
	</g>
	<polygon class="st0" points="50,8.9 54.5,8.9 60.2,25.2 66.1,8.9 70.5,8.9 62.3,31.9 58.1,31.9 	"/>
	<polygon class="st0" points="91.7,8.9 95.9,8.9 101.2,24.9 106.6,8.9 110.8,8.9 114.6,31.9 110.4,31.9 108,17.4 103.1,31.9 
		99.3,31.9 94.5,17.4 92,31.9 87.7,31.9 	"/>
	<g>
		<path class="st0" d="M128.5,12.6c-2.1,0-3.9,0.7-5.3,2.2c-1.4,1.5-2.2,3.4-2.2,5.6c0,2.5,0.9,4.6,2.7,6c1.4,1.2,3,1.7,4.8,1.7
			c2.1,0,3.8-0.8,5.3-2.2c1.4-1.5,2.2-3.3,2.2-5.5c0-2.2-0.7-4-2.2-5.6C132.3,13.3,130.6,12.6,128.5,12.6 M128.5,8.3
			c3.2,0,6,1.2,8.3,3.5c2.3,2.4,3.5,5.2,3.5,8.6c0,3.4-1.1,6.2-3.4,8.5c-2.3,2.3-5.1,3.5-8.3,3.5c-3.4,0-6.3-1.2-8.5-3.6
			c-2.3-2.4-3.4-5.2-3.4-8.5c0-2.2,0.5-4.2,1.6-6.1c1.1-1.8,2.5-3.3,4.4-4.4C124.4,8.8,126.4,8.3,128.5,8.3"/>
	</g>
	<polygon class="st0" points="144.1,8.9 148.4,8.9 148.4,27.7 154.8,27.7 154.8,31.9 144.1,31.9 	"/>
	<polygon class="st0" points="157.7,8.9 162.1,8.9 162.1,27.7 168.4,27.7 168.4,31.9 157.7,31.9 	"/>
	<rect x="171" y="8.9" class="st0" width="4.3" height="23"/>
	<polygon class="st0" points="179.9,8.9 184.1,8.9 193.9,24 193.9,8.9 198.2,8.9 198.2,31.9 194,31.9 184.3,16.8 184.3,31.9 
		179.9,31.9 	"/>
	<path class="st0" d="M203.1,8.9v23h12.5v-4.3h-8.1v-6h8.1v-4.2h-8.1v-4.2h8.1V8.9H203.1z M210.1,1l-3.7,6.1h3l5.7-6.1H210.1z"/>
	<g>
		<path class="st0" d="M76.7,20h1c0.5,0,0.8-0.1,1-0.2c0.2-0.1,0.3-0.3,0.3-0.6c0-0.2,0-0.3-0.1-0.4c-0.1-0.1-0.2-0.2-0.4-0.3
			c-0.2-0.1-0.4-0.1-0.9-0.1h-1V20z M75.8,23v-5.3h1.8c0.6,0,1.1,0,1.3,0.1c0.3,0.1,0.5,0.3,0.7,0.5s0.2,0.5,0.2,0.8
			c0,0.4-0.1,0.7-0.4,1c-0.3,0.3-0.6,0.5-1.1,0.5c0.2,0.1,0.3,0.2,0.4,0.3c0.2,0.2,0.5,0.6,0.8,1.1l0.6,1h-1l-0.5-0.8
			c-0.4-0.7-0.7-1.1-0.9-1.2c-0.2-0.1-0.4-0.2-0.7-0.2h-0.5V23H75.8z M78,16.1c-0.7,0-1.4,0.2-2,0.5c-0.7,0.4-1.2,0.9-1.5,1.5
			c-0.4,0.7-0.6,1.4-0.6,2.1c0,0.7,0.2,1.4,0.5,2c0.4,0.7,0.9,1.2,1.5,1.5c0.7,0.4,1.3,0.5,2,0.5c0.7,0,1.4-0.2,2-0.5
			c0.7-0.4,1.2-0.9,1.5-1.5c0.4-0.7,0.5-1.3,0.5-2c0-0.7-0.2-1.4-0.6-2.1c-0.4-0.7-0.9-1.2-1.5-1.5C79.4,16.3,78.7,16.1,78,16.1
			 M78,15.3c0.8,0,1.6,0.2,2.4,0.6c0.8,0.4,1.4,1,1.8,1.8c0.4,0.8,0.7,1.6,0.7,2.5c0,0.9-0.2,1.7-0.6,2.5c-0.4,0.8-1,1.4-1.8,1.8
			c-0.8,0.4-1.6,0.7-2.4,0.7c-0.9,0-1.7-0.2-2.4-0.7c-0.8-0.4-1.4-1-1.8-1.8c-0.4-0.8-0.7-1.6-0.7-2.5c0-0.9,0.2-1.7,0.7-2.5
			c0.4-0.8,1.1-1.4,1.8-1.8C76.4,15.5,77.2,15.3,78,15.3"/>
	</g>
	<polygon class="st0" points="35.5,43 32.9,50.8 30.4,43 28.4,43 26.4,54.1 28.5,54.1 29.7,47.1 32,54.1 33.9,54.1 36.2,47.1 
		37.4,54.1 39.4,54.1 37.6,43 	"/>
	<g>
		<path class="st0" d="M47.3,49c-0.1-0.5-0.4-0.8-0.8-1.1c-0.4-0.3-0.9-0.4-1.4-0.4c-0.6,0-1.1,0.2-1.5,0.5
			c-0.3,0.2-0.5,0.6-0.8,1.1H47.3z M49.3,50.6h-6.6c0.1,0.6,0.3,1,0.8,1.4c0.4,0.3,0.9,0.5,1.6,0.5c0.8,0,1.4-0.3,2-0.8l1.7,0.8
			c-0.4,0.6-0.9,1.1-1.5,1.4c-0.6,0.3-1.3,0.4-2.1,0.4c-1.3,0-2.3-0.4-3.1-1.2c-0.8-0.8-1.2-1.8-1.2-3c0-1.3,0.4-2.3,1.2-3.1
			c0.8-0.8,1.8-1.2,3-1.2c1.3,0,2.3,0.4,3.1,1.2c0.8,0.8,1.2,1.9,1.2,3.3L49.3,50.6z"/>
		<path class="st0" d="M56.3,47.1L55,48.3c-0.5-0.5-1-0.8-1.4-0.8c-0.2,0-0.4,0-0.5,0.1c-0.1,0.1-0.2,0.2-0.2,0.4
			c0,0.1,0,0.2,0.1,0.3c0.1,0.1,0.3,0.2,0.6,0.4l0.7,0.4c0.8,0.4,1.3,0.8,1.6,1.2c0.3,0.4,0.4,0.9,0.4,1.4c0,0.7-0.3,1.3-0.8,1.8
			c-0.5,0.5-1.2,0.7-2.1,0.7c-1.2,0-2.1-0.5-2.8-1.4l1.3-1.4c0.2,0.3,0.5,0.5,0.8,0.7c0.3,0.2,0.6,0.3,0.9,0.3
			c0.3,0,0.5-0.1,0.7-0.2c0.2-0.1,0.2-0.3,0.2-0.5c0-0.3-0.3-0.6-0.9-0.9l-0.7-0.3c-1.3-0.7-2-1.5-2-2.5c0-0.6,0.2-1.2,0.7-1.7
			c0.5-0.5,1.1-0.7,1.9-0.7c0.5,0,1,0.1,1.5,0.4C55.5,46.3,55.9,46.6,56.3,47.1"/>
		<path class="st0" d="M63.3,47.1L62,48.3c-0.5-0.5-1-0.8-1.4-0.8c-0.2,0-0.4,0-0.5,0.1c-0.1,0.1-0.2,0.2-0.2,0.4
			c0,0.1,0,0.2,0.1,0.3c0.1,0.1,0.3,0.2,0.6,0.4l0.7,0.4c0.8,0.4,1.3,0.8,1.6,1.2c0.3,0.4,0.4,0.9,0.4,1.4c0,0.7-0.3,1.3-0.8,1.8
			c-0.5,0.5-1.2,0.7-2.1,0.7c-1.2,0-2.1-0.5-2.8-1.4l1.3-1.4c0.2,0.3,0.5,0.5,0.8,0.7c0.3,0.2,0.6,0.3,0.9,0.3
			c0.3,0,0.5-0.1,0.7-0.2c0.2-0.1,0.2-0.3,0.2-0.5c0-0.3-0.3-0.6-0.9-0.9L60,50.6c-1.3-0.7-2-1.5-2-2.5c0-0.6,0.2-1.2,0.7-1.7
			c0.5-0.5,1.1-0.7,1.9-0.7c0.5,0,1,0.1,1.5,0.4C62.6,46.3,63,46.6,63.3,47.1"/>
	</g>
	<polygon class="st0" points="65.6,42.9 65.6,45.9 64.6,45.9 64.6,47.7 65.6,47.7 65.6,54.1 67.7,54.1 67.7,47.7 68.9,47.7 
		68.9,45.9 67.7,45.9 67.7,42.9 	"/>
	<g>
		<path class="st0" d="M76.4,49c-0.1-0.5-0.4-0.8-0.8-1.1c-0.4-0.3-0.9-0.4-1.4-0.4c-0.6,0-1.1,0.2-1.5,0.5
			c-0.3,0.2-0.5,0.6-0.8,1.1H76.4z M78.4,50.6h-6.6c0.1,0.6,0.3,1,0.8,1.4c0.4,0.3,0.9,0.5,1.6,0.5c0.8,0,1.4-0.3,2-0.8l1.7,0.8
			c-0.4,0.6-0.9,1.1-1.5,1.4c-0.6,0.3-1.3,0.4-2.1,0.4c-1.3,0-2.3-0.4-3.1-1.2c-0.8-0.8-1.2-1.8-1.2-3c0-1.3,0.4-2.3,1.2-3.1
			c0.8-0.8,1.8-1.2,3-1.2c1.3,0,2.3,0.4,3.1,1.2c0.8,0.8,1.2,1.9,1.2,3.3L78.4,50.6z"/>
		<path class="st0" d="M88.4,47.6l-1.7,0.9c-0.3-0.3-0.6-0.6-0.9-0.7c-0.3-0.1-0.7-0.2-1.1-0.2c-0.8,0-1.4,0.2-1.9,0.7
			c-0.5,0.5-0.7,1-0.7,1.8c0,0.7,0.2,1.3,0.7,1.7c0.5,0.4,1.1,0.7,1.8,0.7c0.9,0,1.6-0.3,2.1-0.9l1.6,1.1c-0.9,1.1-2.1,1.7-3.7,1.7
			c-1.4,0-2.6-0.4-3.4-1.3c-0.8-0.9-1.2-1.9-1.2-3c0-0.8,0.2-1.5,0.6-2.2c0.4-0.7,0.9-1.2,1.7-1.6c0.7-0.4,1.5-0.6,2.4-0.6
			c0.8,0,1.5,0.2,2.2,0.5C87.4,46.5,88,47,88.4,47.6"/>
		<path class="st0" d="M90.5,42.8h2v4c0.4-0.3,0.8-0.6,1.2-0.8c0.4-0.2,0.8-0.3,1.2-0.3c0.8,0,1.5,0.3,2,0.8
			c0.5,0.5,0.7,1.2,0.7,2.1v5.4h-2v-3.6c0-1,0-1.6-0.1-1.9c-0.1-0.3-0.2-0.6-0.5-0.8c-0.2-0.2-0.5-0.2-0.8-0.2
			c-0.4,0-0.8,0.1-1.1,0.4c-0.3,0.3-0.5,0.7-0.6,1.1c-0.1,0.2-0.1,0.8-0.1,1.7v3.3h-2V42.8z"/>
		<path class="st0" d="M100,45.9h2v0.8c0.5-0.4,0.9-0.7,1.3-0.8c0.4-0.2,0.8-0.2,1.2-0.2c0.8,0,1.5,0.3,2.1,0.9
			c0.5,0.5,0.7,1.2,0.7,2.1v5.4h-2v-3.6c0-1,0-1.6-0.1-1.9c-0.1-0.3-0.2-0.6-0.5-0.7c-0.2-0.2-0.5-0.3-0.8-0.3
			c-0.4,0-0.8,0.1-1.1,0.4c-0.3,0.3-0.5,0.7-0.6,1.2c-0.1,0.3-0.1,0.8-0.1,1.7v3.3h-2V45.9z"/>
		<path class="st0" d="M109.3,45.9h2v8.2h-2V45.9z M110.3,42.5c0.4,0,0.7,0.1,0.9,0.4c0.3,0.3,0.4,0.6,0.4,0.9
			c0,0.4-0.1,0.7-0.4,0.9c-0.3,0.3-0.6,0.4-0.9,0.4c-0.4,0-0.7-0.1-0.9-0.4c-0.3-0.3-0.4-0.6-0.4-1c0-0.4,0.1-0.7,0.4-0.9
			C109.6,42.7,110,42.5,110.3,42.5"/>
	</g>
	<polygon class="st0" points="113.5,42.8 113.5,54.1 115.6,54.1 115.6,50.3 119,54.1 121.5,54.1 117.6,49.9 121.1,45.9 118.6,45.9 
		115.6,49.3 115.6,42.8 	"/>
	<g>
		<path class="st0" d="M130.8,47.6c-0.6,0-1.2,0.2-1.6,0.7c-0.4,0.5-0.6,1-0.6,1.7c0,0.7,0.2,1.3,0.6,1.7c0.4,0.5,0.9,0.7,1.6,0.7
			c0.6,0,1.2-0.2,1.6-0.7c0.4-0.5,0.6-1,0.6-1.8c0-0.7-0.2-1.3-0.6-1.7C131.9,47.8,131.4,47.6,130.8,47.6 M132.9,42.8h2v11.4h-2
			v-0.9c-0.4,0.4-0.8,0.7-1.2,0.8s-0.8,0.3-1.3,0.3c-1.1,0-2-0.4-2.7-1.2c-0.8-0.8-1.2-1.8-1.2-3.1c0-1.3,0.4-2.3,1.1-3.1
			c0.7-0.8,1.6-1.2,2.7-1.2c0.5,0,0.9,0.1,1.4,0.3c0.4,0.2,0.8,0.5,1.2,0.8V42.8z"/>
		<path class="st0" d="M137.1,45.9h2v8.2h-2V45.9z M138.1,42.5c0.4,0,0.7,0.1,0.9,0.4c0.3,0.3,0.4,0.6,0.4,0.9
			c0,0.4-0.1,0.7-0.4,0.9c-0.3,0.3-0.6,0.4-0.9,0.4c-0.4,0-0.7-0.1-0.9-0.4c-0.3-0.3-0.4-0.6-0.4-1c0-0.4,0.1-0.7,0.4-0.9
			C137.4,42.7,137.7,42.5,138.1,42.5"/>
		<path class="st0" d="M147.4,49c-0.1-0.5-0.4-0.8-0.8-1.1c-0.4-0.3-0.9-0.4-1.4-0.4c-0.6,0-1.1,0.2-1.5,0.5
			c-0.3,0.2-0.5,0.6-0.7,1.1H147.4z M149.4,50.6h-6.6c0.1,0.6,0.3,1,0.8,1.4c0.4,0.3,0.9,0.5,1.6,0.5c0.8,0,1.4-0.3,2-0.8l1.7,0.8
			c-0.4,0.6-0.9,1.1-1.5,1.4c-0.6,0.3-1.3,0.4-2.1,0.4c-1.3,0-2.3-0.4-3.1-1.2c-0.8-0.8-1.2-1.8-1.2-3c0-1.3,0.4-2.3,1.2-3.1
			s1.8-1.2,3-1.2c1.3,0,2.3,0.4,3.1,1.2s1.2,1.9,1.2,3.3L149.4,50.6z"/>
	</g>
	<polygon class="st0" points="155.2,45.9 155.2,47.7 158.3,47.7 154.7,54.1 161.2,54.1 161.2,52.4 157.8,52.4 161.5,45.9 	"/>
	<g>
		<path class="st0" d="M168.7,42.3c0.3,0,0.6,0.1,0.8,0.3c0.2,0.2,0.3,0.5,0.3,0.8c0,0.3-0.1,0.6-0.3,0.8c-0.2,0.2-0.5,0.3-0.8,0.3
			c-0.3,0-0.5-0.1-0.8-0.3c-0.2-0.2-0.3-0.5-0.3-0.8c0-0.3,0.1-0.5,0.3-0.8C168.2,42.4,168.4,42.3,168.7,42.3 M166.9,47.6
			c-0.6,0-1.2,0.2-1.6,0.7c-0.4,0.4-0.6,1-0.6,1.7c0,0.7,0.2,1.3,0.6,1.7c0.4,0.5,0.9,0.7,1.6,0.7c0.6,0,1.2-0.2,1.6-0.7
			c0.4-0.4,0.6-1,0.6-1.8c0-0.7-0.2-1.3-0.6-1.7S167.6,47.6,166.9,47.6 M165.4,42.3c0.3,0,0.6,0.1,0.8,0.3c0.2,0.2,0.3,0.5,0.3,0.8
			c0,0.3-0.1,0.6-0.3,0.8c-0.2,0.2-0.5,0.3-0.8,0.3c-0.3,0-0.5-0.1-0.8-0.3c-0.2-0.2-0.3-0.5-0.3-0.8c0-0.3,0.1-0.5,0.3-0.8
			C164.8,42.4,165.1,42.3,165.4,42.3 M169.1,45.9h2v8.2h-2v-0.9c-0.4,0.4-0.8,0.7-1.2,0.8c-0.4,0.2-0.8,0.3-1.3,0.3
			c-1.1,0-2-0.4-2.7-1.2c-0.8-0.8-1.2-1.8-1.2-3.1c0-1.3,0.4-2.3,1.1-3.1c0.7-0.8,1.6-1.2,2.7-1.2c0.5,0,0.9,0.1,1.4,0.3
			c0.4,0.2,0.8,0.5,1.2,0.8V45.9z"/>
		<path class="st0" d="M173.6,42.8h2v4c0.4-0.3,0.8-0.6,1.2-0.8c0.4-0.2,0.8-0.3,1.2-0.3c0.8,0,1.5,0.3,2,0.8
			c0.5,0.5,0.7,1.2,0.7,2.1v5.4h-2v-3.6c0-1,0-1.6-0.1-1.9c-0.1-0.3-0.2-0.6-0.5-0.8c-0.2-0.2-0.5-0.2-0.8-0.2
			c-0.4,0-0.8,0.1-1.1,0.4c-0.3,0.3-0.5,0.7-0.6,1.1c-0.1,0.2-0.1,0.8-0.1,1.7v3.3h-2V42.8z"/>
	</g>
	<rect x="183" y="42.8" class="st0" width="2" height="11.4"/>
	<polygon class="st0" points="187.6,42.9 187.6,45.9 186.5,45.9 186.5,47.7 187.6,47.7 187.6,54.1 189.6,54.1 189.6,47.7 
		190.8,47.7 190.8,45.9 189.6,45.9 189.6,42.9 	"/>
</g>
</svg>
