<?xml version="1.0" encoding="utf-8"?>
<!-- Generator: Adobe Illustrator 22.1.0, SVG Export Plug-In . SVG Version: 6.00 Build 0)  -->
<svg version="1.1" id="Ebene_1" xmlns="http://www.w3.org/2000/svg" xmlns:xlink="http://www.w3.org/1999/xlink" x="0px" y="0px"
	 viewBox="0 0 990 410" style="enable-background:new 0 0 990 410;" xml:space="preserve">
<style type="text/css">
	.st0{fill:url(#SVGID_1_);}
	.st1{fill:url(#SVGID_2_);}
	.st2{fill:#F5F7F8;}
	.st3{fill:none;stroke:#818B95;stroke-width:4;stroke-linejoin:round;stroke-miterlimit:10;}
	.st4{fill:#FFFFFF;}
	.st5{fill:none;stroke:#818B95;stroke-linejoin:round;stroke-miterlimit:10;}
	.st6{fill:url(#SVGID_3_);}
	.st7{fill:none;stroke:#FF6400;stroke-width:5;stroke-linejoin:round;stroke-miterlimit:10;}
	.st8{fill:none;stroke:#FF6400;stroke-linejoin:round;stroke-miterlimit:10;}
</style>
<linearGradient id="SVGID_1_" gradientUnits="userSpaceOnUse" x1="194.313" y1="186.6667" x2="194.313" y2="380.1149">
	<stop  offset="0" style="stop-color:#E6E8EA"/>
	<stop  offset="0.2047" style="stop-color:#EFF1F2"/>
	<stop  offset="0.5924" style="stop-color:#FBFBFC"/>
	<stop  offset="0.987" style="stop-color:#FFFFFF"/>
	<stop  offset="1" style="stop-color:#FFFFFF"/>
</linearGradient>
<path class="st0" d="M211.709,224.297c0-21.539-17.461-39-39-39c-17.816,0-32.83,11.949-37.493,28.266
	c-11.735-11.208-27.623-18.106-45.132-18.106c-20.18,0-38.219,9.148-50.211,23.52C33.919,205.055,20.1,195.297,4,195.297
	c-21.539,0-39,17.461-39,39s7.382,159.16,7.382,159.16l439-15c0,0,12.244-138.121,12.244-159.66s-17.461-39-39-39
	c-16.507,0-30.609,10.258-36.301,24.746c-2.071-12.57-12.958-22.172-26.116-22.172c-14.636,0-26.5,11.867-26.5,26.5"/>
<linearGradient id="SVGID_2_" gradientUnits="userSpaceOnUse" x1="328.0563" y1="355.7721" x2="326.7229" y2="394.4387">
	<stop  offset="0" style="stop-color:#D9DCDF"/>
	<stop  offset="0.0311" style="stop-color:#DCDEE1"/>
	<stop  offset="0.346" style="stop-color:#EFF0F2"/>
	<stop  offset="0.6639" style="stop-color:#FBFBFC"/>
	<stop  offset="0.987" style="stop-color:#FFFFFF"/>
	<stop  offset="1" style="stop-color:#FFFFFF"/>
</linearGradient>
<polygon class="st1" points="366.946,390.997 254.423,351.24 265.517,349.028 400.657,390.247 "/>
<path class="st2" d="M206.666,174.207c10.627-15.465,31.783-19.385,47.248-8.758c1.059,0.729,2.061,1.51,3.01,2.332
	c9.521-8.683,24.082-10.035,35.16-2.42c12.137,8.342,15.754,24.444,8.775,37.067c3.616,0.738,7.143,2.199,10.373,4.42
	c12.914,8.875,16.188,26.533,7.313,39.445c-6.316,9.189-17.08,13.465-27.42,11.986c-0.961,2.641-2.271,5.203-3.936,7.625
	c-10.628,15.465-31.783,19.383-47.25,8.756c-5.539-3.807-9.589-8.967-12.029-14.73c-6.732,0.906-13.807-0.555-19.848-4.703
	c-12.914-8.875-16.187-26.538-7.314-39.448c1.342-1.951,2.902-3.654,4.6-5.156C198.906,199.609,198.959,185.416,206.666,174.207"/>
<path class="st3" d="M206.666,174.207c10.627-15.465,31.783-19.385,47.248-8.758c1.059,0.729,2.061,1.51,3.01,2.332
	c9.521-8.683,24.082-10.035,35.16-2.42c12.137,8.342,15.754,24.444,8.775,37.067c3.616,0.738,7.143,2.199,10.373,4.42
	c12.914,8.875,16.188,26.533,7.313,39.445c-6.316,9.189-17.08,13.465-27.42,11.986c-0.961,2.641-2.271,5.203-3.936,7.625
	c-10.628,15.465-31.783,19.383-47.25,8.756c-5.539-3.807-9.589-8.967-12.029-14.73c-6.732,0.906-13.807-0.555-19.848-4.703
	c-12.914-8.875-16.187-26.538-7.314-39.448c1.342-1.951,2.902-3.654,4.6-5.156C198.906,199.609,198.959,185.416,206.666,174.207z"/>
<polygon class="st4" points="279.656,226.083 262.354,242.269 259.526,212.409 256.88,256.112 233.044,235.924 256.764,265.715 
	255.749,349.546 264.413,349.546 263.182,250.02 "/>
<polygon class="st3" points="279.656,226.083 262.354,242.269 259.526,212.409 256.88,256.112 233.044,235.924 256.764,265.715 
	255.749,349.546 264.413,349.546 263.182,250.02 "/>
<path class="st2" d="M206.588,174.137c10.645-15.488,31.83-19.416,47.318-8.77c1.061,0.729,2.063,1.512,3.014,2.334
	c9.535-8.695,24.115-10.048,35.211-2.423c12.154,8.353,15.775,24.48,8.789,37.125c3.619,0.738,7.152,2.201,10.387,4.423
	c12.933,8.889,16.211,26.577,7.324,39.508c-6.326,9.203-17.105,13.487-27.459,12.004c-0.965,2.645-2.273,5.211-3.941,7.639
	c-10.645,15.486-31.832,19.412-47.321,8.767c-5.549-3.812-9.601-8.982-12.045-14.753c-6.744,0.91-13.828-0.555-19.877-4.711
	c-12.933-8.889-16.213-26.577-7.324-39.508c1.344-1.953,2.906-3.658,4.604-5.164C198.818,199.58,198.873,185.362,206.588,174.137"/>
<path class="st5" d="M206.588,174.137c10.645-15.488,31.83-19.416,47.318-8.77c1.061,0.729,2.063,1.512,3.014,2.334
	c9.535-8.695,24.115-10.048,35.211-2.423c12.154,8.353,15.775,24.48,8.789,37.125c3.619,0.738,7.152,2.201,10.387,4.423
	c12.933,8.889,16.211,26.577,7.324,39.508c-6.326,9.203-17.105,13.487-27.459,12.004c-0.965,2.645-2.273,5.211-3.941,7.639
	c-10.645,15.486-31.832,19.412-47.321,8.767c-5.549-3.812-9.601-8.982-12.045-14.753c-6.744,0.91-13.828-0.555-19.877-4.711
	c-12.933-8.889-16.213-26.577-7.324-39.508c1.344-1.953,2.906-3.658,4.604-5.164C198.818,199.58,198.873,185.362,206.588,174.137z"
	/>
<linearGradient id="SVGID_3_" gradientUnits="userSpaceOnUse" x1="778.1422" y1="302.2327" x2="804.8089" y2="392.8994">
	<stop  offset="0" style="stop-color:#FFD7BD"/>
	<stop  offset="1" style="stop-color:#FFFFFF"/>
</linearGradient>
<polygon class="st6" points="799.981,406 593.635,355.67 783.183,299.069 989.529,340.186 "/>
<polygon class="st7" points="795.731,169.918 681.285,6.378 495.892,61.739 406.984,140.499 380.731,163.755 394.624,167.478 
	394.267,300.264 596.088,354.343 781.48,298.982 781.838,174.073 "/>
<polygon class="st4" points="681.281,6.384 795.725,169.918 781.832,174.073 781.474,298.978 579.657,244.901 580.015,112.12 
	566.122,108.397 "/>
<polygon class="st8" points="681.281,6.384 795.725,169.918 781.832,174.073 781.474,298.978 579.657,244.901 580.015,112.12 
	566.122,108.397 "/>
<polygon class="st4" points="681.282,6.384 495.895,61.743 380.736,163.756 394.629,167.478 394.272,300.26 579.659,244.901 
	580.016,112.12 566.124,108.397 "/>
<polygon class="st8" points="681.282,6.384 495.895,61.743 380.736,163.756 394.629,167.478 394.272,300.26 579.659,244.901 
	580.016,112.12 566.124,108.397 "/>
<polygon class="st4" points="596.088,354.337 394.272,300.26 579.659,244.899 781.475,298.977 "/>
<polygon class="st8" points="596.088,354.337 394.272,300.26 579.659,244.899 781.475,298.977 "/>
<polygon class="st4" points="681.709,31.124 764.721,149.193 764.381,277.357 597.842,232.733 598.182,104.57 "/>
<polygon class="st5" points="681.709,31.124 764.721,149.193 764.381,277.357 597.842,232.733 598.182,104.57 "/>
<polygon class="st4" points="411.058,287.985 411.398,159.821 598.184,104.568 597.845,232.732 "/>
<polygon class="st5" points="411.058,287.985 411.398,159.821 598.184,104.568 597.845,232.732 "/>
<polygon class="st4" points="411.397,159.824 494.924,86.378 681.71,31.125 598.183,104.571 "/>
<polygon class="st5" points="411.397,159.824 494.924,86.378 681.71,31.125 598.183,104.571 "/>
<polygon class="st4" points="577.595,332.608 411.058,287.984 597.843,232.73 764.381,277.354 "/>
<polygon class="st5" points="577.595,332.608 411.058,287.984 597.843,232.73 764.381,277.354 "/>
<polygon class="st4" points="494.925,86.376 577.937,204.445 577.597,332.609 411.058,287.985 411.398,159.822 "/>
<polygon class="st5" points="494.925,86.376 577.937,204.445 577.597,332.609 411.058,287.985 411.398,159.822 "/>
<polygon class="st2" points="494.923,86.377 681.709,31.124 764.72,149.194 577.934,204.447 "/>
<polygon class="st5" points="494.923,86.377 681.709,31.124 764.72,149.194 577.934,204.447 "/>
<polygon class="st2" points="577.933,204.445 764.72,149.192 764.38,277.356 577.593,332.609 "/>
<polygon class="st5" points="577.933,204.445 764.72,149.192 764.38,277.356 577.593,332.609 "/>
<polygon class="st8" points="495.895,61.743 610.338,225.277 596.445,221.555 596.087,354.337 394.272,300.26 394.629,167.478 
	380.737,163.756 "/>
<polygon class="st8" points="495.895,61.743 681.281,6.384 795.724,169.918 610.338,225.277 "/>
<polyline class="st8" points="596.445,221.555 596.087,354.337 781.474,298.978 "/>
<polygon class="st4" points="279.656,226.083 262.354,242.269 259.526,212.409 256.88,256.112 233.044,235.924 256.764,265.715 
	255.749,349.546 264.413,349.546 263.182,250.02 "/>
<polygon class="st5" points="279.656,226.083 262.354,242.269 259.526,212.409 256.88,256.112 233.044,235.924 256.764,265.715 
	255.749,349.546 264.413,349.546 263.182,250.02 "/>
<g>
</g>
<g>
</g>
<g>
</g>
<g>
</g>
<g>
</g>
<g>
</g>
<g>
</g>
<g>
</g>
<g>
</g>
<g>
</g>
<g>
</g>
<g>
</g>
<g>
</g>
<g>
</g>
<g>
</g>
</svg>
