<svg id="Ebene_1" xmlns="http://www.w3.org/2000/svg" viewBox="0 0 990 410">
  <style>
    .st2{fill:#f5f7f8}.st3{fill:none;stroke:#818b95;stroke-width:4;stroke-linejoin:round;stroke-miterlimit:10}.st4{fill:#fff}.st5,.st8{fill:none;stroke:#818b95;stroke-linejoin:round;stroke-miterlimit:10}.st8{stroke:#ff6400}
  </style>
  <linearGradient id="SVGID_1_" gradientUnits="userSpaceOnUse" x1="194.31" y1="186.67" x2="194.31" y2="380.11">
    <stop offset="0" stop-color="#e6e8ea"/>
    <stop offset=".2" stop-color="#eff1f2"/>
    <stop offset=".59" stop-color="#fbfbfc"/>
    <stop offset=".99" stop-color="#fff"/>
    <stop offset="1" stop-color="#fff"/>
  </linearGradient>
  <path d="M211.7 224.3a39 39 0 0 0-76.48-10.74 65.13 65.13 0 0 0-45.14-18.1 65.23 65.23 0 0 0-50.2 23.52A39.01 39.01 0 0 0-35 234.3c0 21.54 7.38 159.16 7.38 159.16l439-15s12.25-138.12 12.25-159.66a39 39 0 0 0-75.3-14.26 26.49 26.49 0 0 0-52.62 4.33" fill="url(#SVGID_1_)"/>
  <linearGradient id="SVGID_2_" gradientUnits="userSpaceOnUse" x1="328.06" y1="355.77" x2="326.72" y2="394.44">
    <stop offset="0" stop-color="#d9dcdf"/>
    <stop offset=".03" stop-color="#dcdee1"/>
    <stop offset=".35" stop-color="#eff0f2"/>
    <stop offset=".66" stop-color="#fbfbfc"/>
    <stop offset=".99" stop-color="#fff"/>
    <stop offset="1" stop-color="#fff"/>
  </linearGradient>
  <path fill="url(#SVGID_2_)" d="M366.95 391l-112.53-39.76 11.1-2.21 135.14 41.22z"/>
  <path class="st2" d="M206.67 174.2a33.98 33.98 0 0 1 50.25-6.42 28.36 28.36 0 0 1 43.94 34.65 28.36 28.36 0 0 1-9.73 55.85 33.98 33.98 0 0 1-63.21 1.65c-6.74.9-13.82-.56-19.86-4.7a28.37 28.37 0 0 1-7.31-39.45 28.3 28.3 0 0 1 4.6-5.16 33.96 33.96 0 0 1 1.32-36.41"/>
  <path class="st3" d="M206.67 174.2a33.98 33.98 0 0 1 50.25-6.42 28.36 28.36 0 0 1 43.94 34.65 28.36 28.36 0 0 1-9.73 55.85 33.98 33.98 0 0 1-63.21 1.65c-6.74.9-13.82-.56-19.86-4.7a28.37 28.37 0 0 1-7.31-39.45 28.3 28.3 0 0 1 4.6-5.16 33.96 33.96 0 0 1 1.32-36.41z"/>
  <path class="st4" d="M279.66 226.08l-17.3 16.19-2.83-29.86-2.65 43.7-23.84-20.19 23.72 29.8-1.01 83.83h8.66l-1.23-99.53z"/>
  <path class="st3" d="M279.66 226.08l-17.3 16.19-2.83-29.86-2.65 43.7-23.84-20.19 23.72 29.8-1.01 83.83h8.66l-1.23-99.53z"/>
  <path class="st2" d="M206.59 174.14a34.03 34.03 0 0 1 50.33-6.44 28.4 28.4 0 0 1 44 34.7 28.41 28.41 0 0 1 17.71 43.93 28.38 28.38 0 0 1-27.46 12 34.03 34.03 0 0 1-63.3 1.65 28.27 28.27 0 0 1-19.88-4.7 28.41 28.41 0 0 1-7.33-39.5 28.5 28.5 0 0 1 4.6-5.17 34.03 34.03 0 0 1 1.33-36.47"/>
  <path class="st5" d="M206.59 174.14a34.03 34.03 0 0 1 50.33-6.44 28.4 28.4 0 0 1 44 34.7 28.41 28.41 0 0 1 17.71 43.93 28.38 28.38 0 0 1-27.46 12 34.03 34.03 0 0 1-63.3 1.65 28.27 28.27 0 0 1-19.88-4.7 28.41 28.41 0 0 1-7.33-39.5 28.5 28.5 0 0 1 4.6-5.17 34.03 34.03 0 0 1 1.33-36.47z"/>
  <linearGradient id="SVGID_3_" gradientUnits="userSpaceOnUse" x1="778.14" y1="302.23" x2="804.81" y2="392.9">
    <stop offset="0" stop-color="#ffd7bd"/>
    <stop offset="1" stop-color="#fff"/>
  </linearGradient>
  <path fill="url(#SVGID_3_)" d="M799.98 406l-206.35-50.33 189.55-56.6 206.35 41.12z"/>
  <path fill="none" stroke="#ff6400" stroke-width="5" stroke-linejoin="round" stroke-miterlimit="10" d="M795.73 169.92L681.28 6.38 495.9 61.74 407 140.5l-26.26 23.25 13.9 3.73-.36 132.78 201.82 54.08 185.39-55.36.36-124.9z"/>
  <path class="st4" d="M681.28 6.38l114.45 163.54-13.9 4.15-.36 124.9-201.81-54.07.36-132.78-13.9-3.72z"/>
  <path class="st8" d="M681.28 6.38l114.45 163.54-13.9 4.15-.36 124.9-201.81-54.07.36-132.78-13.9-3.72z"/>
  <path class="st4" d="M681.28 6.38L495.9 61.74 380.74 163.76l13.89 3.72-.36 132.78 185.39-55.36.36-132.78-13.9-3.72z"/>
  <path class="st8" d="M681.28 6.38L495.9 61.74 380.74 163.76l13.89 3.72-.36 132.78 185.39-55.36.36-132.78-13.9-3.72z"/>
  <path class="st4" d="M596.09 354.34l-201.82-54.08 185.39-55.36 201.82 54.08z"/>
  <path class="st8" d="M596.09 354.34l-201.82-54.08 185.39-55.36 201.82 54.08z"/>
  <path class="st4" d="M681.7 31.12l83.02 118.07-.34 128.17-166.54-44.63.34-128.16z"/>
  <path class="st5" d="M681.7 31.12l83.02 118.07-.34 128.17-166.54-44.63.34-128.16z"/>
  <path class="st4" d="M411.06 287.99l.34-128.17 186.78-55.25-.33 128.16z"/>
  <path class="st5" d="M411.06 287.99l.34-128.17 186.78-55.25-.33 128.16z"/>
  <path class="st4" d="M411.4 159.82l83.52-73.44 186.79-55.25-83.53 73.44z"/>
  <path class="st5" d="M411.4 159.82l83.52-73.44 186.79-55.25-83.53 73.44z"/>
  <path class="st4" d="M577.6 332.6l-166.54-44.62 186.78-55.25 166.54 44.62z"/>
  <path class="st5" d="M577.6 332.6l-166.54-44.62 186.78-55.25 166.54 44.62z"/>
  <path class="st4" d="M494.93 86.38l83 118.06-.33 128.17-166.54-44.63.34-128.16z"/>
  <path class="st5" d="M494.93 86.38l83 118.06-.33 128.17-166.54-44.63.34-128.16z"/>
  <path class="st2" d="M494.92 86.38l186.79-55.26 83.01 118.07-186.79 55.26z"/>
  <path class="st5" d="M494.92 86.38l186.79-55.26 83.01 118.07-186.79 55.26z"/>
  <path class="st2" d="M577.93 204.44l186.79-55.25-.34 128.17-186.79 55.25z"/>
  <path class="st5" d="M577.93 204.44l186.79-55.25-.34 128.17-186.79 55.25z"/>
  <path class="st8" d="M495.9 61.74l114.44 163.54-13.9-3.72-.35 132.78-201.82-54.08.36-132.78-13.9-3.72z"/>
  <path class="st8" d="M495.9 61.74L681.27 6.38l114.44 163.54-185.38 55.36zM596.45 221.56l-.36 132.78 185.38-55.36"/>
  <path class="st4" d="M279.66 226.08l-17.3 16.19-2.83-29.86-2.65 43.7-23.84-20.19 23.72 29.8-1.01 83.83h8.66l-1.23-99.53z"/>
  <path class="st5" d="M279.66 226.08l-17.3 16.19-2.83-29.86-2.65 43.7-23.84-20.19 23.72 29.8-1.01 83.83h8.66l-1.23-99.53z"/>
</svg>
