<?xml version="1.0" encoding="utf-8"?>
<!-- Generator: Adobe Illustrator 22.0.1, SVG Export Plug-In . SVG Version: 6.00 Build 0)  -->
<svg version="1.1" id="Ebene_1" xmlns="http://www.w3.org/2000/svg" xmlns:xlink="http://www.w3.org/1999/xlink" x="0px" y="0px"
	 width="248.3px" height="60.2px" viewBox="0 0 248.3 60.2" style="enable-background:new 0 0 248.3 60.2;" xml:space="preserve">
<style type="text/css">
	.st0{fill:#FFFFFF;}
</style>
<g>
	<g>
		<path class="st0" d="M190.9,33.9V20.8h3.7v13.1L190.9,33.9z M192.8,19.4c-0.6,0-1.1-0.2-1.5-0.6c-0.8-0.8-0.8-2.1,0-2.9
			c0,0,0,0,0,0c0.4-0.4,1-0.6,1.5-0.6c0.5,0,1.1,0.2,1.5,0.6c0.8,0.8,0.8,2.1,0,2.9C193.8,19.2,193.3,19.4,192.8,19.4L192.8,19.4z
			 M241.7,23.5c-0.3,0-0.7,0.1-1,0.2c-0.3,0.1-0.5,0.3-0.7,0.5c-0.2,0.2-0.3,0.5-0.4,0.7c-0.1,0.3-0.2,0.6-0.2,0.9h4.4
			c0-0.7-0.2-1.3-0.6-1.7S242.4,23.5,241.7,23.5L241.7,23.5z M241.9,20.5c1.8,0,3.2,0.6,4.1,1.7c1,1.1,1.5,2.8,1.5,4.9
			c0,0.2,0,0.5,0,0.6c0,0.2,0,0.4-0.1,0.7h-8c0,0.8,0.3,1.5,0.7,1.9c0.4,0.5,1.1,0.7,1.9,0.7c0.6,0,1.1-0.1,1.6-0.5
			c0.4-0.3,0.8-0.6,1.1-0.9l2.2,2.4c-0.8,0.8-1.6,1.3-2.4,1.6c-0.8,0.3-1.7,0.4-2.5,0.4c-1.1,0-2-0.2-2.8-0.5
			c-0.8-0.3-1.4-0.8-2-1.4c-0.5-0.6-0.9-1.3-1.1-2.1c-0.3-0.9-0.4-1.8-0.4-2.8c0-1,0.1-1.9,0.4-2.8c0.3-0.8,0.7-1.6,1.2-2.2
			c0.5-0.6,1.2-1.1,1.9-1.4C240.2,20.7,241,20.5,241.9,20.5L241.9,20.5z M230.3,33.9v-7.2c0-1.1-0.2-1.9-0.5-2.3
			c-0.4-0.4-0.9-0.6-1.5-0.6c-0.7,0-1.3,0.2-1.6,0.7c-0.4,0.4-0.5,1.2-0.5,2.4v7.1h-3.7V16.7h3.7v5.2c0.4-0.4,0.9-0.8,1.5-1
			c0.7-0.3,1.4-0.4,2.1-0.4c1.6,0,2.7,0.5,3.4,1.4c0.7,0.9,1.1,2.3,1,4v7.9L230.3,33.9z M220.6,31.5c-0.3,0.4-0.7,0.7-1,1
			c-0.4,0.3-0.8,0.6-1.3,0.9c-0.5,0.3-1,0.5-1.5,0.6c-0.6,0.1-1.2,0.2-1.8,0.2c-0.9,0-1.8-0.1-2.6-0.5c-0.7-0.3-1.4-0.7-1.9-1.3
			c-0.6-0.6-1-1.3-1.2-2.1c-0.3-0.9-0.5-1.9-0.4-2.9c0-0.9,0.1-1.9,0.4-2.8c0.3-0.8,0.7-1.6,1.3-2.2c0.6-0.6,1.3-1.1,2-1.4
			c0.9-0.3,1.8-0.5,2.7-0.5c0.6,0,1.2,0.1,1.8,0.2c0.5,0.2,1,0.4,1.5,0.6c0.4,0.3,0.8,0.6,1.2,0.9c0.3,0.3,0.7,0.7,0.9,1l-2.3,2.3
			c-0.2-0.2-0.4-0.5-0.6-0.7c-0.2-0.2-0.4-0.4-0.7-0.6c-0.5-0.4-1.1-0.6-1.8-0.6c-0.7,0-1.5,0.3-1.9,0.9c-0.5,0.6-0.8,1.5-0.8,2.8
			c0,1.3,0.3,2.2,0.8,2.8c0.5,0.6,1.2,0.9,1.9,0.9c0.6,0,1.2-0.2,1.8-0.5c0.5-0.4,1-0.8,1.4-1.3L220.6,31.5z M207.4,30
			c0,0.7-0.1,1.3-0.4,1.9c-0.2,0.5-0.6,1-1.1,1.3c-0.5,0.4-1,0.6-1.6,0.8c-0.7,0.2-1.4,0.3-2.1,0.2c-0.5,0-1.1,0-1.6-0.1
			c-0.5-0.1-1-0.2-1.6-0.3c-0.5-0.1-1-0.3-1.4-0.5c-0.4-0.2-0.8-0.4-1.2-0.6l1.2-2.8c0.7,0.4,1.4,0.7,2.2,1c0.7,0.3,1.5,0.4,2.3,0.4
			c0.5,0,0.9-0.1,1.2-0.2c0.2-0.1,0.4-0.4,0.4-0.7s-0.2-0.6-0.6-0.8c-0.4-0.2-1-0.4-2-0.6c-0.5-0.1-1-0.3-1.5-0.5
			c-0.5-0.2-1-0.4-1.4-0.7c-0.4-0.3-0.8-0.7-1-1.2c-0.3-0.5-0.4-1.1-0.4-1.8c0-1.3,0.5-2.3,1.4-3c0.9-0.7,2.2-1.1,3.9-1.1
			c1,0,1.9,0.1,2.9,0.4c0.8,0.2,1.6,0.6,2.3,1.1l-1.6,2.6c-0.6-0.4-1.3-0.7-2-0.9c-0.5-0.2-1.1-0.3-1.7-0.3c-0.9,0-1.4,0.3-1.4,0.8
			c0,0.3,0.2,0.6,0.6,0.8c0.6,0.2,1.2,0.5,1.9,0.6c0.6,0.2,1.1,0.4,1.7,0.6c0.5,0.2,1,0.5,1.4,0.8c0.4,0.3,0.7,0.7,1,1.2
			C207.3,28.8,207.4,29.4,207.4,30L207.4,30z M184.9,24.5c-0.3-0.3-0.6-0.5-1-0.6c-0.3-0.2-0.7-0.2-1.1-0.2c-0.7,0-1.3,0.3-1.7,0.9
			c-0.4,0.6-0.6,1.5-0.6,2.7c0,2.4,0.7,3.6,2.2,3.6c0.4,0,0.9-0.1,1.3-0.2c0.3-0.1,0.6-0.3,0.9-0.5V24.5z M188.5,33
			c0,0.9-0.1,1.7-0.2,2.6c-0.1,0.7-0.4,1.3-0.9,1.9c-0.5,0.5-1.1,1-1.8,1.2c-0.7,0.3-1.7,0.4-2.9,0.4c-1,0-2-0.1-2.9-0.4
			c-0.9-0.2-1.7-0.6-2.5-1.1l1.2-2.7c0.6,0.4,1.3,0.7,2,0.9c0.7,0.3,1.4,0.4,2.2,0.4c0.8,0,1.4-0.2,1.7-0.6c0.3-0.4,0.4-1,0.4-1.8
			V33c-0.3,0.3-0.7,0.5-1.1,0.7c-0.5,0.2-1.1,0.3-1.6,0.2c-0.7,0-1.4-0.1-2-0.3c-0.6-0.2-1.2-0.6-1.7-1.1c-0.5-0.6-0.9-1.3-1.1-2
			c-0.3-0.8-0.4-1.9-0.4-3.1c0-1,0.1-1.9,0.4-2.8c0.2-0.8,0.6-1.5,1.1-2.1c0.4-0.6,1-1,1.7-1.4c0.7-0.3,1.4-0.5,2.2-0.5
			c1.2,0,2.2,0.4,2.9,1.2v-0.9h3.4L188.5,33z M174.7,20.5c0.3,0,0.6,0,0.8,0.1c0.2,0,0.4,0.1,0.6,0.1v3.5c-0.3-0.1-0.7-0.2-1-0.2
			c-0.3,0-0.6-0.1-0.9-0.1c-0.3,0-0.6,0-0.9,0.1c-0.3,0.1-0.5,0.2-0.8,0.4c-0.2,0.2-0.4,0.5-0.5,0.8c-0.1,0.4-0.2,0.9-0.2,1.3v7.3
			h-3.6V20.8h3.5v1.3c0.3-0.5,0.8-0.8,1.3-1.1C173.5,20.7,174.1,20.5,174.7,20.5 M160.7,23.5c-0.3,0-0.7,0.1-1,0.2
			c-0.3,0.1-0.5,0.3-0.7,0.5c-0.2,0.2-0.3,0.5-0.4,0.7c-0.1,0.3-0.2,0.6-0.2,0.9h4.4c0-0.7-0.2-1.3-0.6-1.7
			C162,23.7,161.4,23.5,160.7,23.5L160.7,23.5z M160.9,20.5c1.8,0,3.2,0.6,4.1,1.7c1,1.1,1.5,2.8,1.5,4.9c0,0.2,0,0.5,0,0.6
			c0,0.2,0,0.4-0.1,0.7h-8c0,0.8,0.3,1.5,0.7,1.9c0.4,0.5,1.1,0.7,1.9,0.7c0.6,0,1.1-0.1,1.6-0.5c0.4-0.3,0.8-0.6,1.1-0.9l2.2,2.4
			c-0.8,0.8-1.6,1.3-2.4,1.6c-0.8,0.3-1.7,0.4-2.5,0.4c-1.1,0-2-0.2-2.8-0.5c-0.8-0.3-1.4-0.8-2-1.4c-0.5-0.6-0.9-1.3-1.1-2.1
			c-0.3-0.9-0.4-1.8-0.4-2.8c0-1,0.1-1.9,0.4-2.8c0.3-0.8,0.7-1.6,1.2-2.2c0.5-0.6,1.2-1.1,1.9-1.4C159.2,20.7,160,20.5,160.9,20.5
			L160.9,20.5z M149.8,27.3c0-1.2-0.2-2.1-0.6-2.7c-0.4-0.6-1-0.9-1.6-0.9c-0.4,0-0.8,0.1-1.2,0.2c-0.4,0.2-0.7,0.4-1,0.6v5.5
			c0.3,0.3,0.6,0.5,0.9,0.6c0.4,0.2,0.8,0.3,1.2,0.3c0.7,0,1.3-0.3,1.7-0.9C149.6,29.6,149.7,28.6,149.8,27.3L149.8,27.3z
			 M153.4,27.4c0,0.9-0.1,1.8-0.3,2.7c-0.2,0.8-0.5,1.5-1,2.2c-0.4,0.6-1,1.1-1.6,1.4c-0.7,0.4-1.4,0.5-2.2,0.5
			c-0.6,0-1.2-0.1-1.8-0.3c-0.5-0.2-1-0.5-1.3-0.9l-0.1,0.9h-3.3V16.7h3.6v4.8c0.4-0.3,0.8-0.5,1.2-0.7c0.6-0.2,1.2-0.3,1.9-0.3
			c0.7,0,1.3,0.1,1.9,0.4c0.6,0.3,1.2,0.7,1.6,1.2c0.5,0.6,0.9,1.3,1.1,2.1C153.3,25.1,153.4,26.1,153.4,27.4L153.4,27.4z M136,33.9
			v-7.4c0-1.1-0.2-1.8-0.5-2.1c-0.3-0.4-0.8-0.5-1.5-0.5c-0.7,0-1.2,0.2-1.5,0.6c-0.3,0.4-0.5,1.1-0.5,2v7.5h-3.7v-7.5
			c0-1-0.2-1.6-0.5-2c-0.3-0.4-0.8-0.6-1.5-0.6c-0.7,0-1.2,0.2-1.5,0.6c-0.3,0.4-0.5,1.1-0.5,2v7.4h-3.7V20.8h3.5V22
			c0.4-0.5,0.9-0.9,1.5-1.1c0.6-0.3,1.2-0.4,1.8-0.4c1.7,0,2.9,0.6,3.6,1.8c0.2-0.3,0.5-0.5,0.7-0.7c0.3-0.2,0.6-0.4,0.9-0.6
			c0.4-0.2,0.7-0.3,1.1-0.4c0.5-0.1,1-0.1,1.4-0.1c0.8,0,1.5,0.1,2.1,0.4c0.5,0.2,1,0.6,1.3,1c0.4,0.5,0.6,1,0.7,1.6
			c0.2,0.7,0.2,1.3,0.2,2v8.4L136,33.9z M113.1,23.5c-0.3,0-0.7,0.1-1,0.2c-0.3,0.1-0.5,0.3-0.7,0.5c-0.2,0.2-0.3,0.5-0.4,0.7
			c-0.1,0.3-0.2,0.6-0.2,0.9h4.4c0-0.7-0.2-1.3-0.6-1.7C114.4,23.7,113.9,23.5,113.1,23.5L113.1,23.5z M113.3,20.5
			c1.8,0,3.2,0.6,4.1,1.7c1,1.1,1.5,2.8,1.5,4.9c0,0.2,0,0.5,0,0.6c0,0.2,0,0.4-0.1,0.6h-8c0,0.8,0.3,1.5,0.7,1.9
			c0.4,0.5,1.1,0.7,1.9,0.7c0.6,0,1.1-0.2,1.6-0.5c0.4-0.3,0.8-0.6,1.1-0.9l2.2,2.4c-0.8,0.8-1.6,1.3-2.4,1.6
			c-0.8,0.3-1.7,0.4-2.5,0.4c-1.1,0-2-0.2-2.8-0.5c-0.8-0.3-1.4-0.8-2-1.4c-0.5-0.6-0.9-1.3-1.1-2.1c-0.3-0.9-0.4-1.8-0.4-2.8
			c0-1,0.1-1.9,0.4-2.8c0.3-0.8,0.7-1.6,1.2-2.2c0.5-0.6,1.2-1.1,1.9-1.4C111.6,20.7,112.5,20.5,113.3,20.5L113.3,20.5z M106.1,33.8
			c-0.4,0.2-0.9,0.3-1.4,0.4c-0.5,0.1-1,0.1-1.5,0.1c-1.3,0-2.2-0.3-2.9-0.9c-0.7-0.6-1-1.5-1-2.8v-6.7h-1.6v-3h1.6v-4.1h3.7v4.1
			h2.8v3H103v5.8c0,0.6,0.1,1.1,0.4,1.3c0.3,0.2,0.7,0.4,1.1,0.4c0.6,0,1.1-0.1,1.6-0.4L106.1,33.8z M97,33.8
			c-0.4,0.2-0.9,0.3-1.4,0.4c-0.5,0.1-1,0.1-1.5,0.1c-1.3,0-2.2-0.3-2.9-0.9c-0.7-0.6-1-1.5-1-2.8v-6.7h-1.6v-3h1.6v-4.1h3.7v4.1
			h2.8v3h-2.8v5.8c0,0.6,0.1,1.1,0.4,1.3c0.3,0.2,0.7,0.4,1,0.4c0.6,0,1.1-0.1,1.6-0.4L97,33.8z M86.2,20.5c0.3,0,0.6,0,0.8,0.1
			c0.2,0,0.4,0.1,0.6,0.1v3.5c-0.3-0.1-0.7-0.2-1-0.2c-0.3,0-0.6-0.1-0.9-0.1c-0.3,0-0.6,0-0.9,0.1c-0.3,0.1-0.5,0.2-0.8,0.4
			c-0.2,0.2-0.4,0.5-0.5,0.8c-0.1,0.4-0.2,0.9-0.2,1.3v7.3h-3.6V20.8h3.5v1.3c0.3-0.5,0.8-0.8,1.3-1.1C85,20.7,85.6,20.5,86.2,20.5
			L86.2,20.5z M75.1,19.4c-0.6,0-1.1-0.2-1.5-0.6c-0.8-0.8-0.8-2.1,0-2.9c0,0,0,0,0,0c0.4-0.4,1-0.6,1.5-0.6c0.5,0,1.1,0.2,1.5,0.6
			c0.8,0.8,0.8,2.1,0,2.9C76.2,19.2,75.7,19.4,75.1,19.4L75.1,19.4z M68.7,19.4c-0.6,0-1.1-0.2-1.5-0.6c-0.8-0.8-0.8-2.1,0-2.9
			c0,0,0,0,0,0c0.4-0.4,1-0.6,1.5-0.6c0.5,0,1.1,0.2,1.5,0.6c0.8,0.8,0.8,2.1,0,2.9C69.8,19.2,69.2,19.4,68.7,19.4L68.7,19.4z
			 M73.9,20.8h3.7v8c0,2-0.5,3.4-1.5,4.2c-1,0.9-2.5,1.3-4.4,1.3c-1,0-1.9-0.1-2.7-0.4c-0.7-0.2-1.3-0.6-1.8-1.1
			c-0.5-0.5-0.8-1.1-1-1.7C66.1,30.5,66,29.7,66,29v-8.2h3.8v7.6c0,0.5,0,0.9,0.1,1.3c0.1,0.3,0.2,0.6,0.3,0.8
			c0.2,0.2,0.4,0.4,0.6,0.4c0.3,0.1,0.6,0.1,1,0.1c0.7,0,1.2-0.2,1.5-0.6c0.3-0.4,0.5-1.1,0.5-2.2V20.8z M61,33.9h-3.2l-1.9-8.3
			h-0.1c-0.3,1.3-0.6,2.7-0.9,4.1c-0.3,1.4-0.6,2.8-0.9,4.1h-3.2l-3.6-13.1h3.7l1.6,7.7h0.1l1.8-7.7h3.2l1.8,7.7h0.1l1.7-7.7h3.6
			L61,33.9z"/>
		<path class="st0" d="M33.7,33.6h-4.3L27.4,25l-1.9,8.6H24l-1.1-1.2c0.3-0.6,0.6-1.3,0.7-2h-1.2c-0.1,0.4-0.2,0.7-0.4,1.1L20.8,30
			c0,0,1.5-0.9,1.2-2.4c-0.2-0.9-1.1-1.8-2.4-1.6c-1.1,0.2-1.9,1.3-1.6,2.5c0.1,0.5,0.4,0.9,0.8,1.2c0,0-2,1.2-1.7,3
			c0,0.2,0.1,0.5,0.3,0.7h-2.9L12.6,25l-1.9,8.6H6.4L3.2,20.8h3.9l1.8,8.7l1.9-8.7h3.4l2,8.7l1.8-8.7H22l1.8,8.7l1.9-8.7h3.4l2,8.7
			l1.8-8.7h3.9L33.7,33.6z M19.9,27.2c0.5-0.1,0.8,0.3,0.9,0.7c0.2,0.8-0.8,1.4-0.8,1.4s-0.7-0.5-0.8-1.1
			C19.2,27.8,19.4,27.3,19.9,27.2 M19.9,33.6c0,0-1.1,0.1-1.3-1.1c-0.1-0.7,0.5-1.3,1-1.7l1.7,1.9C20.8,33.6,19.9,33.6,19.9,33.6
			 M1.2,38.4h37.7V0.7H1.2V38.4z"/>
		<path class="st0" d="M188.9,56.2c0-0.5,0.4-0.9,0.9-0.9c0.5,0,0.9,0.4,0.9,0.9c0,0.5-0.5,0.9-1,0.9
			C189.3,57.1,188.9,56.7,188.9,56.2 M185.9,54.7v-2.4c-0.3-0.7-0.9-1.1-1.7-1.1c-1,0-1.7,0.8-1.7,2.3c0,1.5,0.7,2.3,1.7,2.3
			C185,55.7,185.6,55.3,185.9,54.7L185.9,54.7z M181.7,58.4l0.4-0.8c0.6,0.5,1.4,0.7,2.2,0.7c1,0,1.6-0.6,1.6-1.7v-0.9
			c-0.3,0.5-0.9,0.9-1.8,0.9c-1.4,0-2.6-1-2.6-3.2c0-2.2,1.2-3.2,2.6-3.2c0.9,0,1.5,0.4,1.9,1v-0.8h1v6.2c0,1.7-1,2.7-2.6,2.7
			C183.4,59.3,182.5,59,181.7,58.4 M175.3,50.4v0.9c0.5-0.7,1.3-1.1,2.1-1.1c1.6,0,2.4,1,2.4,2.6V57h-1.1V53c0-1.1-0.5-1.7-1.5-1.7
			c-0.8,0-1.5,0.4-1.8,1.2V57h-1.1v-6.6L175.3,50.4z M166.8,54.4v-4h1.1v3.8c0,1.3,0.6,2,1.6,2s1.6-0.6,1.6-2v-3.8h1.1v4
			c0,1.9-1.1,2.8-2.7,2.8S166.8,56.3,166.8,54.4L166.8,54.4z M163.6,52.3c-0.3-0.7-1-1.1-1.7-1.1c-1,0-1.8,0.8-1.8,2.5
			c0,1.7,0.7,2.5,1.8,2.5c0.7,0,1.4-0.4,1.7-1.1V52.3z M164.7,47.6V57h-1v-0.9c-0.3,0.5-1,1-2,1c-1.4,0-2.7-1.1-2.7-3.5
			s1.3-3.5,2.7-3.5c0.9,0,1.6,0.4,1.9,1v-3.6L164.7,47.6z M152.8,50.4v0.9c0.5-0.7,1.3-1.1,2.1-1.1c1.6,0,2.4,1,2.4,2.6V57h-1.1V53
			c0-1.1-0.5-1.7-1.5-1.7c-0.8,0-1.5,0.4-1.8,1.2V57h-1.1v-6.6H152.8z M148.7,55.4v-1.7c-2,0-3.1,0.5-3.1,1.5c0,0.7,0.5,1.1,1.1,1.1
			C147.5,56.2,148.3,55.9,148.7,55.4L148.7,55.4z M144.5,55.2c0-1.6,1.4-2.4,4.2-2.4v-0.2c0-0.8-0.3-1.3-1.3-1.3
			c-0.7,0-1.4,0.3-2,0.7l-0.5-0.8c0.6-0.5,1.5-0.9,2.5-0.9c1.6,0,2.3,0.8,2.3,2.3V57h-1v-0.7c-0.3,0.4-1.1,0.9-2.1,0.9
			C145.4,57.2,144.5,56.5,144.5,55.2L144.5,55.2z M141.3,50.4v1c0.3-0.6,0.9-1.2,1.9-1.2c0.2,0,0.4,0,0.7,0.1v1.1
			c-0.2-0.1-0.5-0.1-0.7-0.1c-0.8,0-1.5,0.4-1.8,1.3V57h-1.1v-6.6H141.3z M137.3,54.4c0-0.9-0.6-1.6-1.8-1.6h-2.4V56h2.4
			C136.7,56,137.3,55.4,137.3,54.4L137.3,54.4z M136.9,50.4c0-0.9-0.6-1.5-1.8-1.5h-2.1v3h2.1C136.4,51.9,137,51.3,136.9,50.4
			L136.9,50.4z M131.9,57v-9.2h3.4c1.6,0,2.8,0.9,2.8,2.4c0,0.9-0.5,1.6-1.3,2c0.9,0.3,1.6,1.1,1.6,2.2c0,1.5-1.2,2.5-2.8,2.5
			L131.9,57z M124.9,50.4v1c0.3-0.6,0.9-1.2,1.9-1.2c0.2,0,0.4,0,0.7,0.1v1.1c-0.2-0.1-0.5-0.1-0.7-0.1c-0.8,0-1.5,0.4-1.8,1.3V57
			h-1.1v-6.6L124.9,50.4z M119.3,51.2c-1,0-1.7,0.8-1.8,1.9h3.5C121,52,120.5,51.2,119.3,51.2L119.3,51.2z M116.4,53.7
			c0-2,1.2-3.5,2.9-3.5c1.8,0,2.8,1.3,2.8,3.4v0.4h-4.6c0.1,1.3,0.8,2.2,1.9,2.2c0.7,0,1.4-0.3,1.8-0.9l0.7,0.7
			c-0.6,0.7-1.5,1.1-2.4,1.1C117.6,57.2,116.4,55.8,116.4,53.7L116.4,53.7z M113.6,52.3c-0.3-0.7-1-1.1-1.7-1.1
			c-1,0-1.8,0.8-1.8,2.5s0.7,2.5,1.8,2.5c0.7,0,1.4-0.4,1.7-1.1V52.3z M114.6,47.6V57h-1v-0.9c-0.3,0.5-1,1-1.9,1
			c-1.4,0-2.7-1.1-2.7-3.5c0-2.4,1.3-3.5,2.7-3.5c0.9,0,1.6,0.4,1.9,1v-3.6L114.6,47.6z M99.5,50.4v0.9c0.5-0.7,1.3-1.1,2.1-1.1
			c1.6,0,2.4,1,2.4,2.6V57h-1.1V53c0-1.1-0.5-1.7-1.5-1.7c-0.8,0-1.5,0.4-1.8,1.2V57h-1.1v-6.6L99.5,50.4z M96.4,50.4V57h-1.1v-6.6
			L96.4,50.4z M95.1,48.4c0-0.4,0.3-0.8,0.7-0.8c0.4,0,0.8,0.3,0.8,0.7c0,0,0,0,0,0.1c0,0.4-0.3,0.8-0.7,0.8
			C95.4,49.2,95.1,48.9,95.1,48.4C95.1,48.5,95.1,48.5,95.1,48.4 M85.2,56.2l0.4-0.9c0.6,0.5,1.3,0.9,2.2,0.9c0.8,0,1.3-0.4,1.3-0.9
			c0-0.5-0.3-0.8-1.1-1l-1-0.3c-0.8-0.2-1.6-0.7-1.6-1.8c0-1.1,0.8-1.9,2.3-1.9c0.9,0,1.7,0.3,2.3,0.8l-0.5,0.8
			c-0.6-0.5-1.3-0.7-1.9-0.7c-0.8,0-1.2,0.4-1.2,0.8c0,0.4,0.2,0.7,0.9,0.9l1,0.3c1.1,0.3,1.8,0.9,1.8,2c0,1.2-0.9,2-2.4,2
			C86.6,57.2,85.8,56.7,85.2,56.2 M82,55.5v-7.9h1.1v7.8c0,0.4,0.1,0.8,0.6,0.8c0.2,0,0.4,0,0.6-0.1V57c-0.3,0.1-0.6,0.2-0.9,0.2
			C82.7,57.2,82,56.6,82,55.5L82,55.5z M77.5,51.2c-1,0-1.7,0.8-1.8,2h3.5C79.2,52,78.6,51.2,77.5,51.2L77.5,51.2z M74.6,53.7
			c0-2,1.2-3.5,2.9-3.5c1.8,0,2.8,1.3,2.8,3.4v0.4h-4.6c0.1,1.3,0.8,2.2,1.9,2.2c0.7,0,1.4-0.3,1.8-0.9l0.7,0.7
			c-0.6,0.7-1.5,1.1-2.4,1.1C75.8,57.2,74.6,55.8,74.6,53.7 M73.4,47.9v1h-4.4v2.9h4.2v1h-4.2V57h-1.1v-9.2L73.4,47.9z M60.7,50.4v1
			c0.3-0.6,0.9-1.2,1.9-1.2c0.2,0,0.4,0,0.7,0.1v1.1c-0.2-0.1-0.5-0.1-0.7-0.1c-0.8,0-1.5,0.4-1.8,1.3V57h-1.1v-6.6L60.7,50.4z
			 M53.2,47.6v3.6c0.4-0.6,1-1,2-1c1.6,0,2.4,1,2.4,2.6V57h-1.1V53c0-1.1-0.5-1.7-1.5-1.7c-0.8,0-1.5,0.4-1.8,1.2V57h-1.1v-9.4H53.2
			z M49.8,57h-1.1v-9.2h1.1V57z"/>
	</g>
</g>
</svg>
