<?xml version="1.0" encoding="UTF-8"?>
<svg width="45px" height="43px" viewBox="0 0 45 43" version="1.1" xmlns="http://www.w3.org/2000/svg" xmlns:xlink="http://www.w3.org/1999/xlink">
    <!-- Generator: Sketch 50.2 (55047) - http://www.bohemiancoding.com/sketch -->
    <title>zertifikat</title>
    <desc>Created with Sketch.</desc>
    <defs></defs>
    <g id="zertifikat" stroke="none" stroke-width="1" fill="none" fill-rule="evenodd">
        <path d="M43.228,0.125 L1.241,0.125 C0.627,0.125 0.125,0.627 0.125,1.241 L0.125,34.444 C0.125,35.058 0.627,35.56 1.241,35.56 L16.877,35.56 L16.654,42.201 C16.654,42.647 16.877,43.038 17.268,43.261 C17.659,43.429 18.161,43.373 18.496,43.094 L22.29,39.857 L26.085,43.094 C26.308,43.261 26.531,43.373 26.81,43.373 C26.978,43.373 27.145,43.317 27.313,43.261 C27.703,43.094 27.982,42.647 27.926,42.201 L27.703,35.56 L43.34,35.56 C43.953,35.56 44.456,35.058 44.456,34.444 L44.456,1.241 C44.344,0.627 43.842,0.125 43.228,0.125 Z M22.96,37.513 C22.737,37.346 22.514,37.234 22.235,37.234 C21.956,37.234 21.732,37.346 21.509,37.513 L18.942,39.69 L19.165,33.105 C20.114,33.496 21.118,33.663 22.235,33.663 C23.351,33.663 24.355,33.44 25.304,33.105 L25.527,39.69 L22.96,37.513 Z M22.235,31.431 C18.775,31.431 15.985,28.641 15.985,25.181 C15.985,21.721 18.775,18.931 22.235,18.931 C25.694,18.931 28.485,21.721 28.485,25.181 C28.485,28.641 25.694,31.431 22.235,31.431 Z M42.112,33.272 L27.536,33.272 L27.48,31.877 C29.433,30.315 30.717,27.915 30.717,25.181 C30.717,20.493 26.922,16.699 22.235,16.699 C17.547,16.699 13.752,20.493 13.752,25.181 C13.752,27.859 15.036,30.315 16.989,31.877 L16.933,33.272 L2.357,33.272 L2.357,2.357 L42.112,2.357 L42.112,33.272 Z" id="Fill-1" fill="#46505A"></path>
        <path d="M43.228,0.125 L1.241,0.125 C0.627,0.125 0.125,0.627 0.125,1.241 L0.125,34.444 C0.125,35.058 0.627,35.56 1.241,35.56 L16.877,35.56 L16.654,42.201 C16.654,42.647 16.877,43.038 17.268,43.261 C17.659,43.429 18.161,43.373 18.496,43.094 L22.29,39.857 L26.085,43.094 C26.308,43.261 26.531,43.373 26.81,43.373 C26.978,43.373 27.145,43.317 27.313,43.261 C27.703,43.094 27.982,42.647 27.926,42.201 L27.703,35.56 L43.34,35.56 C43.953,35.56 44.456,35.058 44.456,34.444 L44.456,1.241 C44.344,0.627 43.842,0.125 43.228,0.125 Z M22.96,37.513 C22.737,37.346 22.514,37.234 22.235,37.234 C21.956,37.234 21.732,37.346 21.509,37.513 L18.942,39.69 L19.165,33.105 C20.114,33.496 21.118,33.663 22.235,33.663 C23.351,33.663 24.355,33.44 25.304,33.105 L25.527,39.69 L22.96,37.513 Z M22.235,31.431 C18.775,31.431 15.985,28.641 15.985,25.181 C15.985,21.721 18.775,18.931 22.235,18.931 C25.694,18.931 28.485,21.721 28.485,25.181 C28.485,28.641 25.694,31.431 22.235,31.431 Z M42.112,33.272 L27.536,33.272 L27.48,31.877 C29.433,30.315 30.717,27.915 30.717,25.181 C30.717,20.493 26.922,16.699 22.235,16.699 C17.547,16.699 13.752,20.493 13.752,25.181 C13.752,27.859 15.036,30.315 16.989,31.877 L16.933,33.272 L2.357,33.272 L2.357,2.357 L42.112,2.357 L42.112,33.272 Z" id="Stroke-3" stroke="#46505A" stroke-width="0.25"></path>
        <path d="M8.0491,7.9375 L36.4201,7.9375 C37.0341,7.9375 37.5361,7.4355 37.5361,6.8215 C37.5361,6.2075 37.0341,5.7055 36.4201,5.7055 L8.0491,5.7055 C7.4351,5.7055 6.9331,6.2075 6.9331,6.8215 C6.9331,7.4355 7.4351,7.9375 8.0491,7.9375" id="Fill-5" fill="#46505A"></path>
        <path d="M8.0491,7.9375 L36.4201,7.9375 C37.0341,7.9375 37.5361,7.4355 37.5361,6.8215 C37.5361,6.2075 37.0341,5.7055 36.4201,5.7055 L8.0491,5.7055 C7.4351,5.7055 6.9331,6.2075 6.9331,6.8215 C6.9331,7.4355 7.4351,7.9375 8.0491,7.9375 Z" id="Stroke-7" stroke="#46505A" stroke-width="0.25"></path>
        <path d="M32.0673,11.2857 L12.4013,11.2857 C11.7883,11.2857 11.2853,11.7877 11.2853,12.4017 C11.2853,13.0157 11.7883,13.5177 12.4013,13.5177 L32.0673,13.5177 C32.6813,13.5177 33.1833,13.0157 33.1833,12.4017 C33.1833,11.7877 32.6813,11.2857 32.0673,11.2857" id="Fill-9" fill="#46505A"></path>
        <path d="M32.0673,11.2857 L12.4013,11.2857 C11.7883,11.2857 11.2853,11.7877 11.2853,12.4017 C11.2853,13.0157 11.7883,13.5177 12.4013,13.5177 L32.0673,13.5177 C32.6813,13.5177 33.1833,13.0157 33.1833,12.4017 C33.1833,11.7877 32.6813,11.2857 32.0673,11.2857 Z" id="Stroke-11" stroke="#46505A" stroke-width="0.25"></path>
    </g>
</svg>