<?xml version="1.0" encoding="UTF-8"?>
<svg width="234px" height="76px" viewBox="0 0 234 76" version="1.1" xmlns="http://www.w3.org/2000/svg" xmlns:xlink="http://www.w3.org/1999/xlink">
    <!-- Generator: Sketch 49.3 (51167) - http://www.bohemiancoding.com/sketch -->
    <title>logo</title>
    <desc>Created with Sketch.</desc>
    <defs></defs>
    <g id="logo" stroke="none" stroke-width="1" fill="none" fill-rule="evenodd">
        <g id="Group-47" transform="translate(75.000000, 35.406300)">
            <path d="M0.4556,39.8999 L0.4556,39.4709 L0.5856,39.4709 C0.7016,39.4709 0.8106,39.4619 0.9126,39.4459 C1.0136,39.4289 1.1026,39.3949 1.1796,39.3429 C1.2556,39.2929 1.3156,39.2189 1.3586,39.1209 C1.4026,39.0259 1.4246,38.8969 1.4246,38.7369 L1.4246,33.7679 C1.4246,33.6089 1.4026,33.4799 1.3586,33.3839 C1.3156,33.2869 1.2556,33.2129 1.1796,33.1619 C1.1026,33.1099 1.0136,33.0769 0.9126,33.0589 C0.8106,33.0429 0.7016,33.0349 0.5856,33.0349 L0.4556,33.0349 L0.4556,32.6059 L3.4296,32.6059 L3.4296,33.0349 L3.2946,33.0349 C3.1816,33.0349 3.0726,33.0429 2.9696,33.0589 C2.8666,33.0769 2.7786,33.1099 2.7026,33.1619 C2.6286,33.2129 2.5676,33.2869 2.5236,33.3839 C2.4786,33.4799 2.4566,33.6089 2.4566,33.7679 L2.4566,38.7369 C2.4566,38.8969 2.4786,39.0259 2.5236,39.1209 C2.5676,39.2189 2.6286,39.2929 2.7026,39.3429 C2.7786,39.3949 2.8666,39.4289 2.9696,39.4459 C3.0726,39.4619 3.1816,39.4709 3.2946,39.4709 L3.4296,39.4709 L3.4296,39.8999 L0.4556,39.8999 Z" id="Fill-1" fill="#828C96"></path>
            <path d="M10.7031,39.8999 L10.7031,39.4709 L10.7381,39.4709 C10.8481,39.4709 10.9471,39.4639 11.0351,39.4489 C11.1221,39.4329 11.1981,39.4039 11.2601,39.3589 C11.3211,39.3139 11.3701,39.2489 11.4061,39.1629 C11.4431,39.0789 11.4641,38.9659 11.4721,38.8269 L11.4721,33.3679 L9.1311,39.8999 L8.5781,39.8999 L6.2071,33.3889 L6.2071,38.7369 C6.2071,38.8969 6.2241,39.0259 6.2581,39.1209 C6.2911,39.2189 6.3401,39.2929 6.4041,39.3429 C6.4691,39.3949 6.5481,39.4289 6.6391,39.4459 C6.7301,39.4619 6.8331,39.4709 6.9461,39.4709 L6.9751,39.4709 L6.9751,39.8999 L4.6161,39.8999 L4.6161,39.4709 L4.7451,39.4709 C4.8591,39.4709 4.9661,39.4639 5.0671,39.4489 C5.1691,39.4329 5.2571,39.4029 5.3341,39.3559 C5.4111,39.3099 5.4721,39.2399 5.5171,39.1489 C5.5621,39.0579 5.5831,38.9369 5.5831,38.7869 L5.5831,33.7279 C5.5831,33.5779 5.5621,33.4579 5.5171,33.3669 C5.4721,33.2749 5.4111,33.2039 5.3341,33.1549 C5.2571,33.1039 5.1691,33.0719 5.0671,33.0579 C4.9661,33.0419 4.8591,33.0349 4.7451,33.0349 L4.6161,33.0349 L4.6161,32.6059 L6.9461,32.6059 L9.0621,38.4489 L11.1571,32.6059 L13.4221,32.6059 L13.4221,33.0349 L13.2931,33.0349 C13.1771,33.0349 13.0681,33.0429 12.9651,33.0589 C12.8631,33.0769 12.7751,33.1099 12.6981,33.1619 C12.6231,33.2129 12.5621,33.2869 12.5201,33.3839 C12.4761,33.4799 12.4551,33.6089 12.4551,33.7679 L12.4551,38.7369 C12.4551,38.8969 12.4761,39.0259 12.5201,39.1209 C12.5621,39.2189 12.6231,39.2929 12.6981,39.3429 C12.7751,39.3949 12.8631,39.4289 12.9651,39.4459 C13.0681,39.4619 13.1771,39.4709 13.2931,39.4709 L13.4221,39.4709 L13.4221,39.8999 L10.7031,39.8999 Z" id="Fill-3" fill="#828C96"></path>
            <path d="M20.6962,39.8999 L20.6962,39.4709 L20.7312,39.4709 C20.8412,39.4709 20.9402,39.4639 21.0282,39.4489 C21.1152,39.4329 21.1902,39.4039 21.2532,39.3589 C21.3142,39.3139 21.3632,39.2489 21.3992,39.1629 C21.4352,39.0789 21.4572,38.9659 21.4642,38.8269 L21.4642,33.3679 L19.1242,39.8999 L18.5702,39.8999 L16.2002,33.3889 L16.2002,38.7369 C16.2002,38.8969 16.2172,39.0259 16.2512,39.1209 C16.2842,39.2189 16.3332,39.2929 16.3972,39.3429 C16.4622,39.3949 16.5412,39.4289 16.6322,39.4459 C16.7232,39.4619 16.8262,39.4709 16.9392,39.4709 L16.9682,39.4709 L16.9682,39.8999 L14.6092,39.8999 L14.6092,39.4709 L14.7382,39.4709 C14.8522,39.4709 14.9592,39.4639 15.0602,39.4489 C15.1622,39.4329 15.2502,39.4029 15.3272,39.3559 C15.4042,39.3099 15.4652,39.2399 15.5102,39.1489 C15.5552,39.0579 15.5762,38.9369 15.5762,38.7869 L15.5762,33.7279 C15.5762,33.5779 15.5552,33.4579 15.5102,33.3669 C15.4652,33.2749 15.4042,33.2039 15.3272,33.1549 C15.2502,33.1039 15.1622,33.0719 15.0602,33.0579 C14.9592,33.0419 14.8522,33.0349 14.7382,33.0349 L14.6092,33.0349 L14.6092,32.6059 L16.9392,32.6059 L19.0552,38.4489 L21.1502,32.6059 L23.4152,32.6059 L23.4152,33.0349 L23.2852,33.0349 C23.1692,33.0349 23.0592,33.0429 22.9582,33.0589 C22.8562,33.0769 22.7682,33.1099 22.6912,33.1619 C22.6162,33.2129 22.5552,33.2869 22.5132,33.3839 C22.4692,33.4799 22.4472,33.6089 22.4472,33.7679 L22.4472,38.7369 C22.4472,38.8969 22.4692,39.0259 22.5132,39.1209 C22.5552,39.2189 22.6162,39.2929 22.6912,39.3429 C22.7682,39.3949 22.8562,39.4289 22.9582,39.4459 C23.0592,39.4619 23.1692,39.4709 23.2852,39.4709 L23.4152,39.4709 L23.4152,39.8999 L20.6962,39.8999 Z" id="Fill-5" fill="#828C96"></path>
            <path d="M25.9197,36.2428 C25.9197,36.7488 25.9577,37.1998 26.0317,37.5968 C26.1067,37.9948 26.2267,38.3308 26.3937,38.6048 C26.5587,38.8798 26.7747,39.0888 27.0387,39.2338 C27.3047,39.3788 27.6257,39.4518 28.0047,39.4518 C28.3847,39.4518 28.7067,39.3788 28.9707,39.2338 C29.2357,39.0888 29.4487,38.8798 29.6137,38.6048 C29.7787,38.3308 29.8977,37.9948 29.9707,37.5968 C30.0447,37.1998 30.0807,36.7488 30.0807,36.2428 C30.0807,35.7368 30.0447,35.2858 29.9707,34.8888 C29.8977,34.4918 29.7787,34.1548 29.6137,33.8828 C29.4487,33.6098 29.2367,33.4028 28.9757,33.2588 C28.7137,33.1168 28.3947,33.0448 28.0147,33.0448 C27.6367,33.0448 27.3127,33.1168 27.0477,33.2588 C26.7807,33.4028 26.5637,33.6098 26.3967,33.8828 C26.2287,34.1548 26.1067,34.4918 26.0317,34.8888 C25.9577,35.2858 25.9197,35.7368 25.9197,36.2428 M31.2127,36.2428 C31.2127,36.8058 31.1437,37.3168 31.0027,37.7798 C30.8637,38.2418 30.6577,38.6368 30.3857,38.9668 C30.1127,39.2968 29.7767,39.5498 29.3777,39.7298 C28.9777,39.9098 28.5207,39.9998 28.0047,39.9998 C27.4627,39.9998 26.9907,39.9098 26.5877,39.7298 C26.1847,39.5498 25.8517,39.2968 25.5847,38.9668 C25.3197,38.6368 25.1197,38.2408 24.9857,37.7768 C24.8537,37.3128 24.7877,36.7978 24.7877,36.2328 C24.7877,35.6668 24.8537,35.1538 24.9857,34.6948 C25.1197,34.2328 25.3197,33.8388 25.5847,33.5138 C25.8517,33.1878 26.1877,32.9358 26.5927,32.7578 C26.9987,32.5788 27.4727,32.4908 28.0147,32.4908 C28.5307,32.4908 28.9857,32.5788 29.3817,32.7578 C29.7777,32.9358 30.1127,33.1878 30.3857,33.5168 C30.6577,33.8428 30.8637,34.2378 31.0027,34.6988 C31.1437,35.1598 31.2127,35.6728 31.2127,36.2428" id="Fill-7" fill="#828C96"></path>
            <path d="M34.5957,39.3903 L35.5887,39.3903 C35.8777,39.3903 36.1227,39.3643 36.3207,39.3103 C36.5217,39.2583 36.6837,39.1723 36.8107,39.0543 C36.9377,38.9363 37.0287,38.7823 37.0857,38.5933 C37.1417,38.4033 37.1697,38.1723 37.1697,37.8993 C37.1697,37.6333 37.1447,37.4023 37.0957,37.2053 C37.0447,37.0093 36.9587,36.8473 36.8387,36.7163 C36.7167,36.5873 36.5557,36.4903 36.3557,36.4263 C36.1577,36.3643 35.9077,36.3323 35.6077,36.3323 L34.5957,36.3323 L34.5957,39.3903 Z M34.5957,35.8233 L35.3037,35.8233 C35.6037,35.8233 35.8527,35.7973 36.0527,35.7433 C36.2517,35.6903 36.4107,35.6093 36.5317,35.4973 C36.6517,35.3853 36.7367,35.2423 36.7877,35.0653 C36.8407,34.8883 36.8647,34.6783 36.8647,34.4313 C36.8647,34.1823 36.8377,33.9733 36.7807,33.8053 C36.7237,33.6373 36.6327,33.5023 36.5067,33.3993 C36.3787,33.2963 36.2167,33.2223 36.0147,33.1793 C35.8137,33.1353 35.5687,33.1153 35.2787,33.1153 L34.5957,33.1153 L34.5957,35.8233 Z M37.9577,34.4313 C37.9577,34.6603 37.9257,34.8623 37.8607,35.0343 C37.7957,35.2083 37.7067,35.3593 37.5937,35.4903 C37.4807,35.6193 37.3477,35.7283 37.1927,35.8163 C37.0377,35.9043 36.8707,35.9783 36.6907,36.0383 L36.6907,36.0773 C36.9237,36.1183 37.1357,36.1863 37.3287,36.2833 C37.5217,36.3793 37.6887,36.5053 37.8257,36.6583 C37.9637,36.8133 38.0707,36.9963 38.1477,37.2083 C38.2247,37.4203 38.2627,37.6593 38.2627,37.9283 C38.2627,38.5873 38.0467,39.0813 37.6147,39.4093 C37.1807,39.7353 36.5227,39.8993 35.6377,39.8993 L32.5947,39.8993 L32.5947,39.4703 L32.7237,39.4703 C32.8417,39.4703 32.9497,39.4623 33.0517,39.4453 C33.1527,39.4293 33.2417,39.3943 33.3187,39.3443 C33.3957,39.2913 33.4547,39.2173 33.4977,39.1223 C33.5417,39.0253 33.5617,38.8973 33.5617,38.7373 L33.5617,33.7283 C33.5617,33.5793 33.5397,33.4573 33.4957,33.3663 C33.4507,33.2743 33.3897,33.2053 33.3127,33.1543 C33.2367,33.1053 33.1477,33.0713 33.0457,33.0573 C32.9447,33.0423 32.8367,33.0353 32.7237,33.0353 L32.5947,33.0353 L32.5947,32.6063 L35.3337,32.6063 C36.2177,32.6063 36.8767,32.7523 37.3097,33.0473 C37.7417,33.3413 37.9577,33.8023 37.9577,34.4313 Z" id="Fill-9" fill="#828C96"></path>
            <path d="M39.684,39.8999 L39.684,39.4709 L39.814,39.4709 C39.93,39.4709 40.039,39.4619 40.141,39.4459 C40.242,39.4289 40.331,39.3949 40.408,39.3429 C40.484,39.2929 40.544,39.2189 40.587,39.1209 C40.631,39.0259 40.653,38.8969 40.653,38.7369 L40.653,33.7679 C40.653,33.6089 40.631,33.4799 40.587,33.3839 C40.544,33.2869 40.484,33.2129 40.408,33.1619 C40.331,33.1099 40.242,33.0769 40.141,33.0589 C40.039,33.0429 39.93,33.0349 39.814,33.0349 L39.684,33.0349 L39.684,32.6059 L42.658,32.6059 L42.658,33.0349 L42.523,33.0349 C42.41,33.0349 42.301,33.0429 42.198,33.0589 C42.095,33.0769 42.007,33.1099 41.931,33.1619 C41.857,33.2129 41.797,33.2869 41.752,33.3839 C41.707,33.4799 41.685,33.6089 41.685,33.7679 L41.685,38.7369 C41.685,38.8969 41.707,39.0259 41.752,39.1209 C41.797,39.2189 41.857,39.2929 41.931,39.3429 C42.007,39.3949 42.095,39.4289 42.198,39.4459 C42.301,39.4619 42.41,39.4709 42.523,39.4709 L42.658,39.4709 L42.658,39.8999 L39.684,39.8999 Z" id="Fill-11" fill="#828C96"></path>
            <path d="M43.8446,39.8999 L43.8446,39.4709 L43.9746,39.4709 C44.0906,39.4709 44.1996,39.4619 44.3016,39.4459 C44.4026,39.4289 44.4916,39.3949 44.5676,39.3429 C44.6446,39.2929 44.7046,39.2189 44.7476,39.1209 C44.7916,39.0259 44.8136,38.8969 44.8136,38.7369 L44.8136,33.7679 C44.8136,33.6089 44.7916,33.4799 44.7476,33.3839 C44.7046,33.2869 44.6446,33.2129 44.5676,33.1619 C44.4916,33.1099 44.4026,33.0769 44.3016,33.0589 C44.1996,33.0429 44.0906,33.0349 43.9746,33.0349 L43.8446,33.0349 L43.8446,32.6059 L46.8186,32.6059 L46.8186,33.0349 L46.6836,33.0349 C46.5706,33.0349 46.4626,33.0419 46.3616,33.0579 C46.2596,33.0719 46.1716,33.1039 46.0946,33.1549 C46.0176,33.2039 45.9566,33.2749 45.9126,33.3669 C45.8676,33.4579 45.8456,33.5779 45.8456,33.7279 L45.8456,39.3909 L47.8606,39.3909 C48.0146,39.3909 48.1446,39.3639 48.2526,39.3079 C48.3606,39.2529 48.4496,39.1819 48.5186,39.0939 C48.5896,39.0049 48.6436,38.9069 48.6816,38.7979 C48.7196,38.6879 48.7456,38.5779 48.7586,38.4669 L48.8586,37.7049 L49.3936,37.7049 L49.3226,39.8999 L43.8446,39.8999 Z" id="Fill-13" fill="#828C96"></path>
            <path d="M50.6198,39.8999 L50.6198,39.4709 L50.7498,39.4709 C50.8658,39.4709 50.9748,39.4619 51.0768,39.4459 C51.1778,39.4289 51.2668,39.3949 51.3438,39.3429 C51.4198,39.2929 51.4798,39.2189 51.5228,39.1209 C51.5668,39.0259 51.5888,38.8969 51.5888,38.7369 L51.5888,33.7679 C51.5888,33.6089 51.5668,33.4799 51.5228,33.3839 C51.4798,33.2869 51.4198,33.2129 51.3438,33.1619 C51.2668,33.1099 51.1778,33.0769 51.0768,33.0589 C50.9748,33.0429 50.8658,33.0349 50.7498,33.0349 L50.6198,33.0349 L50.6198,32.6059 L53.5938,32.6059 L53.5938,33.0349 L53.4588,33.0349 C53.3458,33.0349 53.2368,33.0429 53.1338,33.0589 C53.0308,33.0769 52.9428,33.1099 52.8668,33.1619 C52.7928,33.2129 52.7318,33.2869 52.6878,33.3839 C52.6428,33.4799 52.6208,33.6089 52.6208,33.7679 L52.6208,38.7369 C52.6208,38.8969 52.6428,39.0259 52.6878,39.1209 C52.7318,39.2189 52.7928,39.2929 52.8668,39.3429 C52.9428,39.3949 53.0308,39.4289 53.1338,39.4459 C53.2368,39.4619 53.3458,39.4709 53.4588,39.4709 L53.5938,39.4709 L53.5938,39.8999 L50.6198,39.8999 Z" id="Fill-15" fill="#828C96"></path>
            <path d="M56.7806,39.3907 L58.7506,39.3907 C58.9146,39.3907 59.0526,39.3687 59.1686,39.3237 C59.2836,39.2787 59.3786,39.2187 59.4546,39.1417 C59.5306,39.0647 59.5916,38.9757 59.6346,38.8747 C59.6776,38.7727 59.7076,38.6657 59.7236,38.5527 L59.7936,38.1137 L60.3286,38.1137 L60.2586,39.8997 L54.7796,39.8997 L54.7796,39.4707 L54.9106,39.4707 C55.0236,39.4707 55.1306,39.4637 55.2326,39.4487 C55.3326,39.4347 55.4216,39.4027 55.4986,39.3557 C55.5746,39.3097 55.6356,39.2397 55.6806,39.1487 C55.7256,39.0577 55.7486,38.9367 55.7486,38.7877 L55.7486,33.7677 C55.7486,33.6087 55.7266,33.4797 55.6826,33.3837 C55.6396,33.2867 55.5806,33.2127 55.5036,33.1617 C55.4266,33.1097 55.3376,33.0767 55.2366,33.0587 C55.1346,33.0427 55.0266,33.0347 54.9106,33.0347 L54.7796,33.0347 L54.7796,32.6057 L59.9286,32.6057 L59.9786,34.3917 L59.4496,34.3917 L59.4006,33.9517 C59.3856,33.8387 59.3616,33.7317 59.3226,33.6307 C59.2846,33.5307 59.2296,33.4407 59.1586,33.3637 C59.0856,33.2867 58.9976,33.2277 58.8886,33.1827 C58.7806,33.1377 58.6496,33.1137 58.4976,33.1137 L56.7806,33.1137 L56.7806,35.8337 L59.2456,35.8337 L59.2456,36.3327 L56.7806,36.3327 L56.7806,39.3907 Z" id="Fill-17" fill="#828C96"></path>
            <path d="M66.9785,39.8999 L63.1465,34.0129 L63.1465,38.7369 C63.1465,38.8969 63.1695,39.0259 63.2145,39.1209 C63.2595,39.2189 63.3185,39.2929 63.3925,39.3429 C63.4685,39.3949 63.5565,39.4289 63.6615,39.4459 C63.7645,39.4619 63.8715,39.4709 63.9845,39.4709 L64.1195,39.4709 L64.1195,39.8999 L61.5545,39.8999 L61.5545,39.4709 L61.6845,39.4709 C61.8015,39.4709 61.9095,39.4619 62.0115,39.4459 C62.1125,39.4289 62.2025,39.3949 62.2775,39.3429 C62.3545,39.2929 62.4145,39.2189 62.4575,39.1209 C62.5015,39.0259 62.5235,38.8969 62.5235,38.7369 L62.5235,33.7279 C62.5235,33.5779 62.5015,33.4579 62.4545,33.3669 C62.4115,33.2749 62.3505,33.2039 62.2735,33.1549 C62.1965,33.1039 62.1085,33.0719 62.0065,33.0579 C61.9055,33.0419 61.7985,33.0349 61.6845,33.0349 L61.5545,33.0349 L61.5545,32.6059 L63.4265,32.6059 L67.0825,38.2539 L67.0825,33.7279 C67.0825,33.5779 67.0615,33.4579 67.0165,33.3669 C66.9715,33.2749 66.9105,33.2039 66.8335,33.1549 C66.7565,33.1039 66.6685,33.0719 66.5665,33.0579 C66.4655,33.0419 66.3575,33.0349 66.2445,33.0349 L66.1105,33.0349 L66.1105,32.6059 L68.6745,32.6059 L68.6745,33.0349 L68.5455,33.0349 C68.4285,33.0349 68.3195,33.0429 68.2185,33.0589 C68.1165,33.0769 68.0285,33.1099 67.9515,33.1619 C67.8745,33.2129 67.8155,33.2869 67.7715,33.3839 C67.7285,33.4799 67.7065,33.6089 67.7065,33.7679 L67.7065,39.8999 L66.9785,39.8999 Z" id="Fill-19" fill="#828C96"></path>
            <path d="M76.4926,33.9626 C76.4926,33.8266 76.4756,33.7006 76.4416,33.5846 C76.4086,33.4666 76.3546,33.3666 76.2796,33.2816 C76.2056,33.1966 76.1066,33.1286 75.9846,33.0796 C75.8646,33.0306 75.7166,33.0046 75.5446,33.0046 C75.2416,33.0046 75.0096,33.0926 74.8456,33.2696 C74.6826,33.4446 74.6006,33.6796 74.6006,33.9726 C74.6006,34.1016 74.6146,34.2236 74.6406,34.3366 C74.6676,34.4496 74.7106,34.5626 74.7686,34.6726 C74.8266,34.7846 74.9006,34.9006 74.9906,35.0206 C75.0806,35.1396 75.1906,35.2716 75.3196,35.4136 C75.5196,35.3286 75.6936,35.2366 75.8416,35.1396 C75.9896,35.0446 76.1116,34.9386 76.2086,34.8226 C76.3046,34.7076 76.3746,34.5816 76.4226,34.4426 C76.4696,34.3016 76.4926,34.1426 76.4926,33.9626 Z M75.3296,39.4316 C75.5296,39.4316 75.7136,39.4096 75.8866,39.3676 C76.0576,39.3276 76.2146,39.2696 76.3576,39.1966 C76.4996,39.1226 76.6316,39.0356 76.7526,38.9346 C76.8706,38.8326 76.9796,38.7226 77.0756,38.6026 L74.8146,36.1826 C74.6596,36.2696 74.5196,36.3646 74.3946,36.4696 C74.2696,36.5756 74.1626,36.6956 74.0746,36.8336 C73.9876,36.9716 73.9186,37.1276 73.8726,37.3006 C73.8266,37.4726 73.8026,37.6696 73.8026,37.8886 C73.8026,38.1386 73.8396,38.3586 73.9136,38.5496 C73.9856,38.7416 74.0906,38.9026 74.2246,39.0346 C74.3596,39.1666 74.5196,39.2646 74.7066,39.3316 C74.8916,39.3966 75.1006,39.4316 75.3296,39.4316 Z M78.2936,39.8996 L77.4456,39.0026 C77.3216,39.1416 77.1866,39.2726 77.0396,39.3936 C76.8896,39.5146 76.7256,39.6196 76.5476,39.7096 C76.3676,39.7996 76.1696,39.8706 75.9506,39.9216 C75.7326,39.9736 75.4936,39.9996 75.2356,39.9996 C74.8256,39.9996 74.4686,39.9476 74.1636,39.8446 C73.8596,39.7416 73.6076,39.5966 73.4056,39.4086 C73.2056,39.2216 73.0546,38.9956 72.9546,38.7326 C72.8546,38.4686 72.8056,38.1756 72.8056,37.8536 C72.8056,37.5656 72.8446,37.3136 72.9226,37.0986 C72.9996,36.8846 73.1096,36.6946 73.2516,36.5316 C73.3926,36.3696 73.5636,36.2256 73.7656,36.1026 C73.9666,35.9806 74.1906,35.8676 74.4366,35.7636 C74.3076,35.6116 74.1926,35.4636 74.0946,35.3226 C73.9976,35.1806 73.9146,35.0396 73.8506,34.9006 C73.7856,34.7616 73.7366,34.6176 73.7026,34.4716 C73.6696,34.3256 73.6536,34.1686 73.6536,34.0016 C73.6536,33.7766 73.6896,33.5716 73.7626,33.3886 C73.8366,33.2056 73.9506,33.0476 74.1076,32.9146 C74.2636,32.7826 74.4646,32.6796 74.7096,32.6086 C74.9526,32.5356 75.2446,32.5016 75.5836,32.5016 C75.9096,32.5016 76.1876,32.5386 76.4176,32.6156 C76.6466,32.6926 76.8336,32.7966 76.9786,32.9306 C77.1236,33.0626 77.2276,33.2176 77.2926,33.3946 C77.3576,33.5696 77.3896,33.7566 77.3896,33.9526 C77.3896,34.1716 77.3576,34.3676 77.2956,34.5366 C77.2316,34.7066 77.1316,34.8626 76.9946,35.0046 C76.8546,35.1486 76.6786,35.2836 76.4596,35.4126 C76.2416,35.5406 75.9766,35.6706 75.6646,35.8036 L77.5246,37.7746 C77.5716,37.6206 77.6086,37.4656 77.6396,37.3076 C77.6696,37.1496 77.6926,36.9956 77.7116,36.8436 C77.7306,36.6926 77.7426,36.5446 77.7496,36.3996 C77.7556,36.2546 77.7596,36.1216 77.7596,35.9986 L77.7596,35.5996 L79.6016,35.5996 L79.6016,36.0286 L79.5056,36.0286 C79.3926,36.0286 79.2806,36.0346 79.1716,36.0486 C79.0616,36.0616 78.9586,36.0926 78.8646,36.1406 C78.7706,36.1886 78.6846,36.2596 78.6106,36.3506 C78.5356,36.4416 78.4756,36.5656 78.4326,36.7216 C78.3726,36.9406 78.3036,37.1786 78.2256,37.4356 C78.1486,37.6916 78.0516,37.9486 77.9336,38.2036 L78.8816,39.2156 C78.9316,39.2666 78.9836,39.3086 79.0376,39.3406 C79.0896,39.3746 79.1516,39.4016 79.2246,39.4216 C79.2946,39.4406 79.3806,39.4536 79.4776,39.4606 C79.5766,39.4676 79.6956,39.4706 79.8346,39.4706 L79.9246,39.4706 L79.9246,39.8996 L78.2936,39.8996 Z" id="Fill-21" fill="#828C96"></path>
            <path d="M86.5548,39.8999 L84.3498,33.5739 C84.3138,33.4669 84.2728,33.3779 84.2288,33.3089 C84.1868,33.2389 84.1368,33.1839 84.0798,33.1449 C84.0238,33.1039 83.9578,33.0769 83.8858,33.0589 C83.8118,33.0429 83.7258,33.0349 83.6258,33.0349 L83.4908,33.0349 L83.4908,32.6059 L86.2998,32.6059 L86.2998,33.0349 L86.0658,33.0349 C85.8588,33.0349 85.7048,33.0739 85.6048,33.1519 C85.5018,33.2309 85.4528,33.3539 85.4528,33.5229 C85.4528,33.5799 85.4598,33.6389 85.4748,33.6989 C85.4888,33.7579 85.5108,33.8259 85.5368,33.9029 L86.6588,37.2209 C86.7618,37.5239 86.8508,37.8169 86.9248,38.1019 C86.9968,38.3849 87.0618,38.6519 87.1188,38.8969 C87.1728,38.6519 87.2348,38.3909 87.3088,38.1139 C87.3808,37.8379 87.4738,37.5399 87.5868,37.2209 L88.7148,33.9729 C88.7418,33.8899 88.7628,33.8089 88.7808,33.7339 C88.7968,33.6569 88.8048,33.5899 88.8048,33.5339 C88.8048,33.3579 88.7488,33.2309 88.6378,33.1519 C88.5268,33.0739 88.3568,33.0349 88.1308,33.0349 L87.8978,33.0349 L87.8978,32.6059 L90.3868,32.6059 L90.3868,33.0349 L90.1928,33.0349 C90.0928,33.0349 90.0068,33.0449 89.9348,33.0649 C89.8638,33.0839 89.7978,33.1249 89.7398,33.1829 C89.6818,33.2409 89.6288,33.3199 89.5778,33.4229 C89.5288,33.5279 89.4748,33.6609 89.4188,33.8279 L87.3028,39.8999 L86.5548,39.8999 Z" id="Fill-23" fill="#828C96"></path>
            <path d="M93.1851,39.3907 L95.1551,39.3907 C95.3191,39.3907 95.4571,39.3687 95.5731,39.3237 C95.6871,39.2787 95.7831,39.2187 95.8591,39.1417 C95.9351,39.0647 95.9961,38.9757 96.0381,38.8747 C96.0821,38.7727 96.1121,38.6657 96.1281,38.5527 L96.1981,38.1137 L96.7331,38.1137 L96.6621,39.8997 L91.1841,39.8997 L91.1841,39.4707 L91.3151,39.4707 C91.4281,39.4707 91.5351,39.4637 91.6371,39.4487 C91.7371,39.4347 91.8261,39.4027 91.9031,39.3557 C91.9791,39.3097 92.0401,39.2397 92.0851,39.1487 C92.1291,39.0577 92.1531,38.9367 92.1531,38.7877 L92.1531,33.7677 C92.1531,33.6087 92.1311,33.4797 92.0871,33.3837 C92.0441,33.2867 91.9841,33.2127 91.9081,33.1617 C91.8311,33.1097 91.7421,33.0767 91.6411,33.0587 C91.5391,33.0427 91.4311,33.0347 91.3151,33.0347 L91.1841,33.0347 L91.1841,32.6057 L96.3331,32.6057 L96.3831,34.3917 L95.8541,34.3917 L95.8051,33.9517 C95.7901,33.8387 95.7661,33.7317 95.7271,33.6307 C95.6891,33.5307 95.6341,33.4407 95.5631,33.3637 C95.4901,33.2867 95.4001,33.2277 95.2931,33.1827 C95.1841,33.1377 95.0541,33.1137 94.9021,33.1137 L93.1851,33.1137 L93.1851,35.8337 L95.6501,35.8337 L95.6501,36.3327 L93.1851,36.3327 L93.1851,39.3907 Z" id="Fill-25" fill="#828C96"></path>
            <path d="M99.9604,36.2022 L100.6784,36.2022 C100.9784,36.2022 101.2274,36.1692 101.4264,36.1022 C101.6264,36.0372 101.7854,35.9372 101.9064,35.8032 C102.0254,35.6702 102.1104,35.5032 102.1624,35.3052 C102.2134,35.1042 102.2394,34.8732 102.2394,34.6062 C102.2394,34.3332 102.2124,34.1012 102.1554,33.9102 C102.0994,33.7182 102.0074,33.5622 101.8804,33.4422 C101.7544,33.3202 101.5904,33.2312 101.3884,33.1762 C101.1884,33.1212 100.9434,33.0932 100.6534,33.0932 L99.9604,33.0932 L99.9604,36.2022 Z M103.2324,38.6522 C103.4054,38.9252 103.5734,39.1292 103.7374,39.2662 C103.8994,39.4022 104.0894,39.4702 104.3054,39.4702 L104.3364,39.4702 L104.3364,39.8992 L104.1914,39.8992 C103.8724,39.8992 103.6094,39.8882 103.4054,39.8642 C103.2004,39.8412 103.0274,39.7962 102.8834,39.7302 C102.7394,39.6632 102.6184,39.5702 102.5164,39.4512 C102.4154,39.3312 102.3064,39.1742 102.1904,38.9812 L100.8084,36.6822 L99.9604,36.6822 L99.9604,38.7872 C99.9604,38.9362 99.9824,39.0572 100.0274,39.1482 C100.0724,39.2412 100.1334,39.3092 100.2094,39.3562 C100.2854,39.4022 100.3754,39.4342 100.4764,39.4482 C100.5784,39.4632 100.6854,39.4702 100.7984,39.4702 L100.9334,39.4702 L100.9334,39.8992 L97.9594,39.8992 L97.9594,39.4702 L98.0884,39.4702 C98.2014,39.4702 98.3094,39.4632 98.4104,39.4482 C98.5124,39.4342 98.6014,39.4022 98.6774,39.3562 C98.7544,39.3092 98.8154,39.2412 98.8604,39.1482 C98.9054,39.0572 98.9264,38.9362 98.9264,38.7872 L98.9264,33.7292 C98.9264,33.5782 98.9054,33.4572 98.8604,33.3662 C98.8154,33.2752 98.7544,33.2042 98.6774,33.1542 C98.6014,33.1042 98.5124,33.0722 98.4104,33.0572 C98.3094,33.0412 98.2014,33.0342 98.0884,33.0342 L97.9594,33.0342 L97.9594,32.6052 L100.7084,32.6052 C101.5934,32.6052 102.2514,32.7692 102.6844,33.0962 C103.1164,33.4242 103.3324,33.9172 103.3324,34.5752 C103.3324,34.8492 103.2884,35.0872 103.2004,35.2912 C103.1124,35.4972 102.9964,35.6732 102.8544,35.8242 C102.7104,35.9732 102.5504,36.0982 102.3704,36.1982 C102.1904,36.2982 102.0104,36.3772 101.8304,36.4372 L103.2324,38.6522 Z" id="Fill-27" fill="#828C96"></path>
            <path d="M110.2627,32.6753 L111.5397,37.1003 C111.6357,37.4393 111.7217,37.7663 111.7967,38.0763 C111.8717,38.3883 111.9327,38.6603 111.9797,38.8963 C112.0287,38.6513 112.0867,38.3923 112.1507,38.1213 C112.2157,37.8503 112.2957,37.5493 112.3877,37.2203 L113.2857,34.0673 C113.2957,34.0283 113.3077,33.9833 113.3207,33.9323 C113.3337,33.8833 113.3467,33.8323 113.3557,33.7833 C113.3657,33.7333 113.3757,33.6853 113.3827,33.6423 C113.3917,33.6003 113.3957,33.5643 113.3957,33.5333 C113.3957,33.3583 113.3407,33.2303 113.2287,33.1523 C113.1177,33.0743 112.9477,33.0343 112.7217,33.0343 L112.4887,33.0343 L112.4887,32.6053 L114.9817,32.6053 L114.9817,33.0343 L114.7877,33.0343 C114.6877,33.0343 114.6007,33.0453 114.5257,33.0653 C114.4517,33.0843 114.3827,33.1233 114.3237,33.1803 C114.2647,33.2363 114.2097,33.3163 114.1587,33.4193 C114.1097,33.5223 114.0597,33.6583 114.0087,33.8283 L112.2827,39.9003 L111.3647,39.9003 L109.6987,34.1773 L108.1367,39.9003 L107.1947,39.9003 L105.3227,33.5723 C105.2897,33.4673 105.2517,33.3783 105.2117,33.3093 C105.1697,33.2393 105.1197,33.1843 105.0637,33.1433 C105.0067,33.1043 104.9397,33.0753 104.8647,33.0593 C104.7877,33.0433 104.6997,33.0343 104.5997,33.0343 L104.4647,33.0343 L104.4647,32.6053 L107.2787,32.6053 L107.2787,33.0343 L107.0437,33.0343 C106.8377,33.0343 106.6847,33.0743 106.5827,33.1523 C106.4817,33.2303 106.4307,33.3543 106.4307,33.5233 C106.4307,33.5803 106.4397,33.6383 106.4557,33.6973 C106.4727,33.7583 106.4897,33.8263 106.5107,33.9033 L107.4487,37.1713 C107.5357,37.4803 107.6167,37.7833 107.6937,38.0823 C107.7687,38.3793 107.8357,38.6513 107.8917,38.8963 C107.9427,38.6303 108.0007,38.3403 108.0687,38.0273 C108.1387,37.7123 108.2167,37.3903 108.3067,37.0613 L109.5247,32.6753 L110.2627,32.6753 Z" id="Fill-29" fill="#828C96"></path>
            <path d="M118.7985,35.1604 C118.6925,34.8574 118.5945,34.5734 118.5065,34.3094 C118.4185,34.0454 118.3465,33.7904 118.2895,33.5434 C118.2665,33.6674 118.2385,33.7854 118.2065,33.9004 C118.1745,34.0154 118.1415,34.1324 118.1055,34.2514 C118.0675,34.3714 118.0275,34.4974 117.9805,34.6284 C117.9345,34.7604 117.8805,34.9054 117.8195,35.0644 L117.1265,36.9464 L119.4325,36.9464 L118.7985,35.1604 Z M116.9325,37.4594 L116.5435,38.5324 C116.5135,38.6124 116.4905,38.6924 116.4725,38.7694 C116.4565,38.8474 116.4485,38.9154 116.4485,38.9724 C116.4485,39.1444 116.5045,39.2704 116.6165,39.3504 C116.7265,39.4304 116.8975,39.4704 117.1265,39.4704 L117.3615,39.4704 L117.3615,39.9004 L114.8665,39.9004 L114.8665,39.4704 L115.0625,39.4704 C115.1625,39.4704 115.2465,39.4604 115.3155,39.4374 C115.3855,39.4174 115.4495,39.3764 115.5055,39.3154 C115.5625,39.2564 115.6155,39.1754 115.6685,39.0724 C115.7185,38.9694 115.7765,38.8354 115.8395,38.6724 L118.1055,32.6054 L118.9025,32.6054 L121.2135,38.9274 C121.2535,39.0334 121.2935,39.1214 121.3355,39.1914 C121.3765,39.2604 121.4255,39.3174 121.4825,39.3594 C121.5385,39.3994 121.6035,39.4284 121.6775,39.4464 C121.7505,39.4624 121.8375,39.4704 121.9355,39.4704 L122.0705,39.4704 L122.0705,39.9004 L119.2625,39.9004 L119.2625,39.4704 L119.4975,39.4704 C119.9065,39.4704 120.1105,39.3084 120.1105,38.9824 C120.1105,38.9254 120.1035,38.8664 120.0885,38.8064 C120.0725,38.7474 120.0525,38.6794 120.0265,38.6024 L119.6165,37.4594 L116.9325,37.4594 Z" id="Fill-31" fill="#828C96"></path>
            <path d="M122.8694,39.8999 L122.8694,39.4709 L122.9994,39.4709 C123.1164,39.4709 123.2244,39.4619 123.3264,39.4459 C123.4274,39.4289 123.5164,39.3949 123.5934,39.3429 C123.6694,39.2929 123.7294,39.2189 123.7724,39.1209 C123.8164,39.0259 123.8384,38.8969 123.8384,38.7369 L123.8384,33.7679 C123.8384,33.6089 123.8164,33.4799 123.7724,33.3839 C123.7294,33.2869 123.6694,33.2129 123.5934,33.1619 C123.5164,33.1099 123.4274,33.0769 123.3264,33.0589 C123.2244,33.0429 123.1164,33.0349 122.9994,33.0349 L122.8694,33.0349 L122.8694,32.6059 L125.8434,32.6059 L125.8434,33.0349 L125.7084,33.0349 C125.5954,33.0349 125.4884,33.0419 125.3864,33.0579 C125.2854,33.0719 125.1964,33.1039 125.1194,33.1549 C125.0424,33.2039 124.9824,33.2749 124.9374,33.3669 C124.8924,33.4579 124.8704,33.5779 124.8704,33.7279 L124.8704,39.3909 L126.8854,39.3909 C127.0394,39.3909 127.1694,39.3639 127.2774,39.3079 C127.3854,39.2529 127.4744,39.1819 127.5434,39.0939 C127.6154,39.0049 127.6684,38.9069 127.7064,38.7979 C127.7444,38.6879 127.7704,38.5779 127.7834,38.4669 L127.8834,37.7049 L128.4184,37.7049 L128.3474,39.8999 L122.8694,39.8999 Z" id="Fill-33" fill="#828C96"></path>
            <path d="M132.179,38.7371 C132.179,38.8961 132.201,39.0251 132.247,39.1211 C132.291,39.2181 132.352,39.2921 132.426,39.3431 C132.501,39.3951 132.589,39.4291 132.692,39.4461 C132.797,39.4621 132.904,39.4711 133.017,39.4711 L133.252,39.4711 L133.252,39.9001 L130.074,39.9001 L130.074,39.4711 L130.309,39.4711 C130.422,39.4711 130.529,39.4631 130.631,39.4471 C130.731,39.4331 130.82,39.4021 130.897,39.3561 C130.973,39.3101 131.034,39.2401 131.079,39.1491 C131.124,39.0571 131.147,38.9371 131.147,38.7861 L131.147,33.1141 L130.168,33.1141 C130.019,33.1141 129.893,33.1381 129.791,33.1821 C129.691,33.2261 129.607,33.2871 129.542,33.3641 C129.478,33.4411 129.429,33.5291 129.398,33.6301 C129.366,33.7321 129.343,33.8391 129.33,33.9521 L129.275,34.3921 L128.747,34.3921 L128.796,32.6051 L134.55,32.6051 L134.599,34.3921 L134.07,34.3921 L134.02,33.9521 C134.007,33.8391 133.983,33.7321 133.951,33.6301 C133.917,33.5291 133.868,33.4411 133.806,33.3641 C133.742,33.2871 133.659,33.2261 133.556,33.1821 C133.454,33.1381 133.324,33.1141 133.172,33.1141 L132.179,33.1141 L132.179,38.7371 Z" id="Fill-35" fill="#828C96"></path>
            <path d="M138.9089,39.9996 C138.5059,39.9996 138.1459,39.9576 137.8259,39.8716 C137.5069,39.7876 137.2369,39.6526 137.0149,39.4676 C136.7949,39.2836 136.6249,39.0456 136.5089,38.7556 C136.3929,38.4636 136.3339,38.1106 136.3339,37.6946 L136.3339,33.7276 C136.3339,33.5776 136.3119,33.4576 136.2669,33.3666 C136.2219,33.2746 136.1609,33.2036 136.0849,33.1546 C136.0089,33.1036 135.9189,33.0716 135.8179,33.0576 C135.7159,33.0416 135.6089,33.0346 135.4959,33.0346 L135.3669,33.0346 L135.3669,32.6056 L138.3409,32.6056 L138.3409,33.0346 L138.2059,33.0346 C138.0929,33.0346 137.9839,33.0426 137.8809,33.0586 C137.7779,33.0766 137.6899,33.1096 137.6139,33.1616 C137.5389,33.2136 137.4789,33.2866 137.4349,33.3836 C137.3899,33.4806 137.3679,33.6086 137.3679,33.7676 L137.3679,37.7546 C137.3679,38.0506 137.4099,38.3016 137.4939,38.5106 C137.5789,38.7176 137.6969,38.8856 137.8489,39.0166 C137.9999,39.1466 138.1799,39.2416 138.3869,39.3006 C138.5959,39.3606 138.8249,39.3906 139.0739,39.3906 C139.3699,39.3906 139.6249,39.3516 139.8399,39.2716 C140.0539,39.1906 140.2329,39.0806 140.3729,38.9396 C140.5149,38.7976 140.6199,38.6306 140.6879,38.4346 C140.7559,38.2406 140.7889,38.0266 140.7889,37.7946 L140.7889,33.7276 C140.7889,33.5776 140.7679,33.4576 140.7229,33.3666 C140.6779,33.2746 140.6169,33.2036 140.5399,33.1546 C140.4629,33.1036 140.3749,33.0716 140.2729,33.0576 C140.1719,33.0416 140.0649,33.0346 139.9509,33.0346 L139.8219,33.0346 L139.8219,32.6056 L142.3859,32.6056 L142.3859,33.0346 L142.2519,33.0346 C142.1389,33.0346 142.0309,33.0426 141.9279,33.0586 C141.8249,33.0766 141.7349,33.1096 141.6609,33.1616 C141.5849,33.2136 141.5259,33.2866 141.4809,33.3836 C141.4359,33.4806 141.4129,33.6086 141.4129,33.7676 L141.4129,37.8146 C141.4129,38.1536 141.3589,38.4586 141.2519,38.7296 C141.1429,39.0006 140.9839,39.2296 140.7719,39.4186 C140.5619,39.6066 140.2989,39.7506 139.9859,39.8506 C139.6749,39.9506 139.3149,39.9996 138.9089,39.9996" id="Fill-37" fill="#828C96"></path>
            <path d="M148.7574,39.8999 L144.9254,34.0129 L144.9254,38.7369 C144.9254,38.8969 144.9484,39.0259 144.9934,39.1209 C145.0384,39.2189 145.0974,39.2929 145.1714,39.3429 C145.2474,39.3949 145.3354,39.4289 145.4404,39.4459 C145.5434,39.4619 145.6504,39.4709 145.7634,39.4709 L145.8984,39.4709 L145.8984,39.8999 L143.3334,39.8999 L143.3334,39.4709 L143.4634,39.4709 C143.5794,39.4709 143.6884,39.4619 143.7904,39.4459 C143.8914,39.4289 143.9814,39.3949 144.0564,39.3429 C144.1334,39.2929 144.1934,39.2189 144.2364,39.1209 C144.2804,39.0259 144.3014,38.8969 144.3014,38.7369 L144.3014,33.7279 C144.3014,33.5779 144.2804,33.4579 144.2354,33.3669 C144.1904,33.2749 144.1294,33.2039 144.0524,33.1549 C143.9754,33.1039 143.8874,33.0719 143.7854,33.0579 C143.6844,33.0419 143.5774,33.0349 143.4634,33.0349 L143.3334,33.0349 L143.3334,32.6059 L145.2054,32.6059 L148.8614,38.2539 L148.8614,33.7279 C148.8614,33.5779 148.8404,33.4579 148.7954,33.3669 C148.7504,33.2749 148.6894,33.2039 148.6124,33.1549 C148.5354,33.1039 148.4474,33.0719 148.3454,33.0579 C148.2444,33.0419 148.1364,33.0349 148.0234,33.0349 L147.8884,33.0349 L147.8884,32.6059 L150.4534,32.6059 L150.4534,33.0349 L150.3244,33.0349 C150.2074,33.0349 150.0984,33.0429 149.9974,33.0589 C149.8954,33.0769 149.8074,33.1099 149.7304,33.1619 C149.6534,33.2129 149.5944,33.2869 149.5504,33.3839 C149.5074,33.4799 149.4854,33.6089 149.4854,33.7679 L149.4854,39.8999 L148.7574,39.8999 Z" id="Fill-39" fill="#828C96"></path>
            <path d="M155.2478,39.9996 C154.6558,39.9996 154.1388,39.9096 153.6998,39.7296 C153.2588,39.5496 152.8918,39.2966 152.6008,38.9676 C152.3098,38.6366 152.0928,38.2426 151.9498,37.7796 C151.8068,37.3176 151.7348,36.8056 151.7348,36.2426 C151.7348,35.6906 151.8118,35.1846 151.9628,34.7266 C152.1128,34.2666 152.3398,33.8726 152.6408,33.5436 C152.9428,33.2136 153.3148,32.9576 153.7618,32.7746 C154.2068,32.5916 154.7248,32.5006 155.3128,32.5006 C155.6918,32.5006 156.0218,32.5296 156.3038,32.5876 C156.5848,32.6456 156.8178,32.7266 157.0068,32.8296 C157.1948,32.9326 157.3358,33.0546 157.4288,33.1936 C157.5208,33.3346 157.5678,33.4856 157.5678,33.6476 C157.5678,33.7576 157.5428,33.8566 157.4938,33.9446 C157.4428,34.0336 157.3768,34.1086 157.2908,34.1696 C157.2068,34.2306 157.1068,34.2786 156.9918,34.3116 C156.8778,34.3446 156.7528,34.3626 156.6198,34.3626 C156.6198,34.2016 156.5968,34.0446 156.5498,33.8886 C156.5038,33.7316 156.4268,33.5906 156.3208,33.4666 C156.2138,33.3416 156.0748,33.2406 155.9018,33.1616 C155.7288,33.0836 155.5178,33.0446 155.2678,33.0446 C154.8358,33.0446 154.4678,33.1156 154.1638,33.2566 C153.8588,33.3986 153.6098,33.6036 153.4168,33.8756 C153.2238,34.1466 153.0848,34.4796 152.9978,34.8786 C152.9108,35.2756 152.8688,35.7306 152.8688,36.2426 C152.8688,36.7516 152.9138,37.2046 153.0018,37.5996 C153.0918,37.9956 153.2378,38.3276 153.4408,38.5976 C153.6438,38.8676 153.9078,39.0716 154.2298,39.2106 C154.5538,39.3516 154.9458,39.4206 155.4128,39.4206 C155.6088,39.4206 155.7988,39.4106 155.9848,39.3906 C156.1688,39.3706 156.3328,39.3396 156.4758,39.2966 L156.4758,37.6496 C156.4758,37.4996 156.4528,37.3796 156.4078,37.2886 C156.3628,37.1966 156.3018,37.1256 156.2248,37.0776 C156.1498,37.0306 156.0598,36.9986 155.9578,36.9806 C155.8568,36.9646 155.7498,36.9566 155.6368,36.9566 L155.5968,36.9566 L155.5968,36.5266 L158.2518,36.5266 L158.2518,36.9566 L158.2118,36.9566 C158.1158,36.9566 158.0248,36.9646 157.9378,36.9806 C157.8508,36.9986 157.7768,37.0316 157.7128,37.0836 C157.6488,37.1346 157.5998,37.2096 157.5638,37.3066 C157.5268,37.4056 157.5078,37.5346 157.5078,37.6946 L157.5078,39.5316 C157.1658,39.6906 156.8118,39.8086 156.4498,39.8846 C156.0868,39.9616 155.6868,39.9996 155.2478,39.9996" id="Fill-41" fill="#828C96"></path>
            <path d="M0.5448,0.3669 C5.9928,0.3679 15.5708,0.3709 21.0178,0.3699 C22.6628,0.3699 24.2058,0.7389 25.5858,1.6569 C26.9088,2.5379 27.8588,3.6969 28.0878,5.3239 C28.3288,7.0379 27.8308,8.4779 26.4408,9.5649 C26.3568,9.6319 26.2758,9.7019 26.1748,9.7849 C26.5368,10.0399 26.8958,10.2739 27.2338,10.5349 C27.9898,11.1179 28.6068,11.8209 28.9028,12.7429 C29.4298,14.3859 29.2328,15.9389 28.1958,17.3399 C27.2408,18.6309 25.8968,19.3219 24.3678,19.6729 C23.7388,19.8179 23.0898,19.8789 22.4488,19.9779 L0.5448,19.9779 L0.5448,0.3669 Z M5.3248,11.7749 L5.3248,16.1969 C5.3248,16.1969 17.4268,16.2229 21.2748,16.2019 C21.8368,16.1989 22.4148,16.1019 22.9568,15.9489 C23.7578,15.7239 24.2378,15.1609 24.3108,14.3099 C24.3808,13.4969 24.1148,12.8219 23.4398,12.3299 C22.7818,11.8499 22.0238,11.7759 21.2468,11.7759 C17.4378,11.7749 5.3248,11.7749 5.3248,11.7749 Z M5.3328,4.1429 L5.3328,7.9999 C5.3328,7.9999 17.4508,8.0089 21.3298,8.0109 C21.8478,8.0119 22.2878,7.8299 22.6808,7.4999 C23.5838,6.7419 23.5368,5.2559 22.5908,4.5589 C22.1098,4.2039 21.5638,4.1409 20.9928,4.1419 C17.2618,4.1439 5.3328,4.1429 5.3328,4.1429 Z" id="Fill-43" fill="#46505A"></path>
            <path d="M62.2466,19.9781 L62.2466,0.3881 L87.6166,0.3881 L87.6166,4.1341 L67.0356,4.1341 L67.0356,8.1371 L82.5826,8.1371 L82.5826,11.9061 L67.0316,11.9061 L67.0316,16.2081 L88.3776,16.2081 C88.3836,16.3371 88.3926,16.4411 88.3926,16.5451 C88.3936,17.5821 88.3926,18.6191 88.3946,19.6551 C88.3946,19.7631 88.4086,19.8701 88.4166,19.9781 L62.2466,19.9781 Z" id="Fill-45" fill="#46505A"></path>
        </g>
        <polygon id="Fill-48" fill="#46505A" points="109.2988 55.3844 109.2988 35.7964 114.0548 35.7964 114.0548 51.6214 133.2768 51.6214 133.2768 55.3844"></polygon>
        <path d="M168.0381,55.3844 L168.0381,35.7954 L172.7851,35.7954 C172.7901,35.9004 172.8011,36.0044 172.8011,36.1084 C172.8021,42.4354 172.8021,48.7634 172.8001,55.0914 C172.8001,55.1894 172.7861,55.2864 172.7781,55.3844 L168.0381,55.3844 Z" id="Fill-49" fill="#46505A"></path>
        <polygon id="Fill-51" fill="#FADCCD" points="58.3335 -0.0002 88.3955 28.2628 127.3115 28.2628 97.2505 -0.0002"></polygon>
        <polygon id="Fill-52" fill="#FF6400" points="58.5981 -0.0002 0.0001 55.4018 38.6011 55.4018 97.1991 -0.0002"></polygon>
    </g>
</svg>