<?xml version="1.0" encoding="UTF-8"?>
<svg width="31px" height="25px" viewBox="0 0 31 25" version="1.1" xmlns="http://www.w3.org/2000/svg" xmlns:xlink="http://www.w3.org/1999/xlink">
    <!-- Generator: Sketch 50 (54983) - http://www.bohemiancoding.com/sketch -->
    <title>quote</title>
    <desc>Created with Sketch.</desc>
    <defs></defs>
    <g id="quote" stroke="none" stroke-width="1" fill="none" fill-rule="evenodd">
        <path d="M17.634,20.014 L19.518,23.533 C26.505,19.948 30,14.963 30,8.576 C30,6.491 29.34,4.707 28.019,3.224 C26.699,1.741 25.137,1 23.334,1 C21.723,1 20.387,1.57 19.325,2.711 C18.262,3.852 17.731,5.252 17.731,6.914 C17.731,8.446 18.278,9.815 19.373,11.02 C20.467,12.225 21.852,12.926 23.527,13.122 C23.527,15.761 21.563,18.059 17.634,20.014 Z M1,20.014 L2.884,23.533 C9.871,19.948 13.366,14.963 13.366,8.576 C13.366,6.491 12.714,4.707 11.41,3.224 C10.105,1.741 8.551,1 6.748,1 C5.138,1 3.793,1.57 2.715,2.711 C1.635,3.852 1.097,5.252 1.097,6.914 C1.097,8.446 1.644,9.815 2.739,11.02 C3.833,12.225 5.234,12.926 6.941,13.122 C6.941,15.761 4.961,18.059 1,20.014 Z" id="Stroke-1" stroke="#FEFEFE"></path>
    </g>
</svg>