<?xml version="1.0" encoding="UTF-8"?>
<svg width="111px" height="63px" viewBox="0 0 111 63" version="1.1" xmlns="http://www.w3.org/2000/svg" xmlns:xlink="http://www.w3.org/1999/xlink">
    <!-- Generator: Sketch 50.2 (55047) - http://www.bohemiancoding.com/sketch -->
    <title>quote-element</title>
    <desc>Created with Sketch.</desc>
    <defs></defs>
    <g id="quote-element" stroke="none" stroke-width="1" fill="none" fill-rule="evenodd">
        <path d="M66.5090852,0 L110.921418,-1.11022302e-16 L44.6533148,62.511 L0.240982128,62.511 L66.5090852,0 Z M66.9063148,1 L2.75841787,61.511 L44.2560852,61.511 L108.403982,1 L66.9063148,1 Z" id="Stroke-1" fill="#E1E6EB" fill-rule="nonzero"></path>
        <path d="M85.9689889,44.2529299 C84.467384,42.5948197 83.7106,40.6959265 83.7106,38.5763 C83.7106,36.2906922 84.4454673,34.3456279 85.9101945,32.7670839 C87.3828184,31.1810989 89.2480287,30.3823 91.4726,30.3823 C93.9566698,30.3823 96.1141279,31.4102575 97.9186575,33.4435155 C99.7121643,35.4655345 100.6116,37.9050206 100.6116,40.7383 C100.6116,49.2464029 95.9688234,55.8958206 86.7554925,60.6398315 L86.3172961,60.865462 L83.4028079,55.3994535 L83.8621689,55.1699986 C88.578056,52.8143709 90.9985008,50.1165558 91.2077412,47.0843342 C89.1208452,46.7465728 87.3680556,45.799994 85.9689889,44.2529299 Z M86.7345205,59.5225433 C95.3413572,54.9593963 99.6116,48.7119689 99.6116,40.7383 C99.6116,38.1462574 98.7994635,35.9435478 97.1706388,34.107193 C95.550907,32.2821565 93.6623049,31.3823 91.4726,31.3823 C89.523755,31.3823 87.9247669,32.067086 86.6431199,33.4473929 C85.353311,34.8374266 84.7106,36.5385695 84.7106,38.5763 C84.7106,40.4436781 85.372531,42.1045699 86.7104463,43.58193 C88.0466544,45.059486 89.7303201,45.9146887 91.7807285,46.1546904 L92.2226,46.2064118 L92.2226,46.6513 C92.2226,50.2023204 89.7071649,53.2602597 84.7664103,55.8314297 L86.7345205,59.5225433 Z M64.4119889,44.2529299 C62.910384,42.5948197 62.1536,40.6959265 62.1536,38.5763 C62.1536,36.2888713 62.8997994,34.3427747 64.3867738,32.764327 C65.8801481,31.1801539 67.7541769,30.3823 69.9776,30.3823 C72.463037,30.3823 74.6124098,31.4114907 76.3945863,33.4457029 C78.1665918,35.4671094 79.0546,37.9055206 79.0546,40.7383 C79.0546,49.2464029 74.4118234,55.8958206 65.1984925,60.6398315 L64.7602961,60.865462 L61.8450148,55.397966 L62.3066357,55.1692689 C67.0612639,52.8137225 69.5018509,50.1161855 69.7135157,47.0856323 C67.5867656,46.7491784 65.8135126,45.8027109 64.4119889,44.2529299 Z M65.1775205,59.5225433 C73.7843572,54.9593963 78.0546,48.7119689 78.0546,40.7383 C78.0546,38.1443929 77.2521806,35.9410027 75.642517,34.1047869 C74.0453482,32.2817462 72.1669351,31.3823 69.9776,31.3823 C68.0278603,31.3823 66.4176132,32.0678508 65.1145416,33.4501506 C63.8054006,34.8398253 63.1536,36.5397287 63.1536,38.5763 C63.1536,40.4436781 63.815531,42.1045699 65.1534463,43.58193 C66.4892727,45.0590638 68.1925205,45.9143237 70.2856139,46.1545612 L70.7286,46.2054055 L70.7286,46.6513 C70.7286,50.2038864 68.192098,53.2619066 63.2102128,55.8329348 L65.1775205,59.5225433 Z" id="Stroke-3" fill="#FF6400" fill-rule="nonzero"></path>
    </g>
</svg>